<?xml version="1.0" encoding="UTF-8"?>
<svg width="18px" height="23px" viewBox="0 0 18 23" version="1.1" xmlns="http://www.w3.org/2000/svg" xmlns:xlink="http://www.w3.org/1999/xlink">
    <title>1</title>
    <g id="Page-1" stroke="none" stroke-width="1" fill="none" fill-rule="evenodd" opacity="0.85">
        <g id="Desktop-HD-Copy-15" transform="translate(-193.000000, -387.000000)" stroke="#C8A64A" stroke-width="0.650000036">
            <g id="Group-7-Copy-5" transform="translate(158.000000, 272.000000)">
                <g id="Group" transform="translate(22.000000, 0.000000)">
                    <g id="Group-10" transform="translate(0.000000, 108.000000)">
                        <g id="Group-24" transform="translate(2.000000, 0.000000)">
                            <g id="1" transform="translate(11.000000, 7.000000)">
                                <g id="cat_3" transform="translate(8.660001, 11.360002) scale(-1, -1) translate(-8.660001, -11.360002) translate(0.160001, 0.360002)">
                                    <path d="M2.648,0.468 L1.50500774,2.13053732 L15.2270983,2.50277556 L15.593,19.183 L15.2203011,19.1972778 L15.2203011,20.9798249 L0.36730877,21.0192289 L0.327904738,2.20214778 L1.45377376,0.481029261 L2.648,0.468 Z M16.27404,0.325000018 L16.3135132,19.157943 L16.234,19.16 L16.234636,0.403669762 L8.864,0.403 L16.27404,0.325000018 Z" id="Shape" fill-rule="nonzero"></path>
                                    <g id="Group-2" transform="translate(2.773334, 4.622223)">
                                        <path d="M7.84548569,1.15700005 C7.98686255,1.71572388 8.33648373,2.19436832 8.82438613,2.49294558 L8.82438613,2.49294558 L8.82438613,12.0671181 C8.45648105,12.292333 8.16764242,12.6200376 7.98697764,13.0070709 L7.98697764,13.0070709 L2.13311395,13.4030006 C1.81112798,12.6200343 1.52232682,12.2923245 1.15438581,12.0671075 L1.15438581,12.0671075 L1.15438581,2.49300488 C1.64238346,2.19438743 1.99201061,1.71572835 2.13332398,1.15700005 L2.13332398,1.15700005 Z" id="Shape" fill-rule="nonzero"></path>
                                        <path d="M9.98400043,12.6954892 C9.98400043,12.792032 9.92410683,12.8785281 9.83348937,12.9129482 C9.53186949,13.0275035 9.28380717,13.226831 9.11123947,13.4778183 C8.98410006,13.662819 8.89820475,13.8758788 8.86269896,14.1042166 C8.85128211,14.1778127 8.84476674,14.2528948 8.84410923,14.329166 C8.84303329,14.4569187 8.73848847,14.5600006 8.61003403,14.5600006 L1.3739664,14.5600006 C1.24545219,14.5600006 1.14096714,14.4569781 1.13989121,14.329166 C1.13923369,14.2528948 1.13277809,14.1778127 1.12136125,14.1042166 C1.08591524,13.8758788 1.00001992,13.662819 0.872820734,13.4778183 C0.700312814,13.226831 0.452190717,13.0275035 0.150570842,12.9129482 C0.0598936019,12.8785281 0,12.792032 0,12.6954892 L0,1.86463029 C0,1.76808755 0.0598936019,1.68159144 0.150511067,1.64717133 C0.746159514,1.42079525 1.13451154,0.864842232 1.13989121,0.230834643 C1.14096714,0.103022518 1.24545219,0 1.3739664,0 L8.61003403,0 C8.73848847,0 8.84303329,0.103022518 8.84410923,0.230775196 C8.84954867,0.86490168 9.23790069,1.4208547 9.83348937,1.64717133 C9.92416661,1.68159144 9.98400043,1.76808755 9.98400043,1.86463029 L9.98400043,12.6954892 Z" id="Path"></path>
                                        <g id="Group-4" transform="translate(2.909386, 1.664000)">
                                            <path d="M1.63732352,9.33279129 C1.67823534,9.30413713 1.72315424,9.28424123 1.77064558,9.27229356 C1.8092323,9.22738855 1.85123246,9.19083679 1.89629977,9.1632964 C1.98752273,9.05029981 2.08478105,8.9854989 2.08478105,8.9854989 C2.08478105,8.9854989 2.18213831,9.05024919 2.2733118,9.1632964 C2.31842858,9.19083679 2.36052768,9.22743918 2.39906493,9.27229356 C2.44665521,9.28424123 2.49157411,9.30413713 2.53243646,9.33279129 C2.69177982,9.44462349 2.75218287,9.66211155 2.71300251,9.9000524 C2.73724289,9.93149096 2.75050089,9.96525831 2.75050089,10.0004938 C2.75050089,10.0357799 2.73724289,10.0693954 2.71300251,10.100834 C2.75218287,10.3387748 2.69173035,10.5561616 2.53243646,10.6680445 C2.49157411,10.6967999 2.44665521,10.7168476 2.39906493,10.7285422 C2.36052768,10.7733966 2.31842858,10.8101508 2.2733118,10.8375393 C2.18213831,10.9506372 2.08492946,11.0153875 2.08492946,11.0153875 C2.08492946,11.0153875 1.98752273,10.9506878 1.89629977,10.8375393 C1.85123246,10.8101508 1.8092323,10.7733459 1.77064558,10.7285422 C1.72315424,10.7168476 1.67818587,10.6967999 1.63732352,10.6680445 C1.47798016,10.5561616 1.41752764,10.3387748 1.45675747,10.100834 C1.43251709,10.0693954 1.41930856,10.0357799 1.41930856,10.0004938 C1.41930856,9.96525831 1.43251709,9.93149096 1.45675747,9.9000524 C1.41752764,9.66211155 1.47798016,9.44462349 1.63732352,9.33279129 Z" id="Path"></path>
                                            <path d="M0.695797692,3.39921936 C0.826398894,3.3075362 0.969763395,3.24405156 1.12153782,3.2065379 C1.2442238,3.06326714 1.37868367,2.94576486 1.52194923,2.85848613 C1.81377366,2.49727167 2.12400099,2.29092127 2.12400099,2.29092127 C2.12400099,2.29092127 2.43427778,2.49727167 2.72610221,2.85838488 C2.86936777,2.94571423 3.00387712,3.06326714 3.12661256,3.2065379 C3.27848593,3.24400093 3.42180096,3.3075362 3.55235269,3.39921936 C4.06080692,3.75613064 4.2535921,4.45020915 4.12858103,5.20959484 C4.20590288,5.30978312 4.24810091,5.41756527 4.24810091,5.53000497 C4.24810091,5.64239406 4.2058534,5.7501762 4.12858103,5.85046573 C4.2535921,6.60975017 4.06085639,7.30387931 3.55235269,7.66073996 C3.42175149,7.75242312 3.27848593,7.81595839 3.12661256,7.85347204 C3.00392659,7.99674281 2.86941724,8.11424509 2.72610221,8.20152382 C2.43432725,8.56263702 2.1241494,8.76898743 2.1241494,8.76898743 C2.1241494,8.76898743 1.81382313,8.56273827 1.52194923,8.20157444 C1.3786342,8.11429571 1.2442238,7.99674281 1.12148835,7.85347204 C0.969664454,7.81600902 0.826349423,7.75242312 0.695748221,7.66073996 C0.187343467,7.30387931 -0.00544171675,6.60975017 0.119618828,5.85046573 C0.0422969802,5.75012557 -1.92537189e-13,5.64239406 -1.92537189e-13,5.53000497 C-1.92537189e-13,5.41756527 0.0422969802,5.30978312 0.119618828,5.20959484 C-0.00544171675,4.45015853 0.187392937,3.75608001 0.695797692,3.39921936 Z" id="Path"></path>
                                            <path d="M2.2733118,1.85198981 C2.18213831,1.96503703 2.08492946,2.02978731 2.08492946,2.02978731 C2.08492946,2.02978731 1.98752273,1.96503703 1.89629977,1.85198981 C1.85400279,1.8261707 1.81457508,1.79204897 1.77796717,1.75099151 C1.77554313,1.74825773 1.77302015,1.74577707 1.77064558,1.74304328 C1.72315424,1.73109561 1.67818587,1.71125033 1.63732352,1.68254555 C1.47798016,1.57071335 1.41752764,1.35317467 1.45675747,1.11528444 C1.43251709,1.08384588 1.41930856,1.05012915 1.41930856,1.01484303 C1.41930856,0.979556909 1.43251709,0.945941436 1.45675747,0.914401617 C1.41752764,0.676612646 1.47798016,0.459175211 1.63732352,0.347241761 C1.67823534,0.318536982 1.72315424,0.298539826 1.77064558,0.286744035 C1.8092323,0.241889654 1.85123246,0.205186012 1.89629977,0.177746876 C1.98752273,0.0646996604 2.08478105,-3.84076777e-14 2.08478105,-3.84076777e-14 C2.08478105,-3.84076777e-14 2.18213831,0.0646490347 2.2733118,0.177746876 C2.31842858,0.205186012 2.36052768,0.24194028 2.39906493,0.286744035 C2.44665521,0.298539826 2.49157411,0.318536982 2.53243646,0.347241761 C2.69177982,0.459175211 2.75218287,0.676612646 2.71300251,0.914401617 C2.73724289,0.945941436 2.75050089,0.979556909 2.75050089,1.01484303 C2.75050089,1.05012915 2.73724289,1.08384588 2.71300251,1.11528444 C2.75218287,1.35317467 2.69173035,1.57071335 2.53243646,1.68254555 C2.49157411,1.71125033 2.44665521,1.73109561 2.39906493,1.74304328 C2.39669036,1.74582769 2.39416738,1.74830835 2.39174335,1.75099151 C2.35513543,1.79209959 2.31560878,1.82622132 2.2733118,1.85198981 Z" id="Path"></path>
                                        </g>
                                    </g>
                                </g>
                            </g>
                        </g>
                    </g>
                </g>
            </g>
        </g>
    </g>
</svg>