<?xml version="1.0" encoding="UTF-8"?>
<svg width="25px" height="24px" viewBox="0 0 25 24" version="1.1" xmlns="http://www.w3.org/2000/svg" xmlns:xlink="http://www.w3.org/1999/xlink">
    <title>2</title>
    <g id="Page-1" stroke="none" stroke-width="1" fill="none" fill-rule="evenodd">
        <g id="Desktop-HD-Copy-15" transform="translate(-771.000000, -387.000000)">
            <g id="Group-7-Copy-6" transform="translate(738.000000, 361.000000)">
                <g id="Group-17" transform="translate(23.000000, 19.000000)">
                    <g id="Group" transform="translate(0.500000, 0.000000)">
                        <g id="Group-25" transform="translate(1.000000, 0.000000)">
                            <g id="question" transform="translate(10.000000, 8.000000)">
                                <path d="M22.1962558,15.0214895 C22.1962558,11.7861725 20.0162906,8.95948262 16.9421891,8.10768232 C16.7489676,3.60431754 13.0254319,0 8.47532814,0 C3.80194199,0 0,3.80194199 0,8.47532814 C0,9.99840799 0.405409496,11.4813534 1.17524731,12.78327 L0.0311592946,16.9193277 L4.1673863,15.775409 C5.36414031,16.4830975 6.71415062,16.8817333 8.10751299,16.9418504 C8.95914392,20.0161213 11.7860032,22.1962558 15.0214895,22.1962558 C16.3129068,22.1962558 17.5687618,21.8523181 18.6722073,21.1988197 L22.1649272,22.1649272 L21.1988197,18.6722073 C21.8523181,17.5687618 22.1962558,16.3129068 22.1962558,15.0214895 Z M4.37263122,14.3691765 L1.89648338,15.0541729 L2.58147982,12.5780251 L2.42534464,12.333831 C1.689545,11.1826306 1.30056186,9.84836923 1.30056186,8.47532814 C1.30056186,4.51911381 4.51911381,1.30056186 8.47532814,1.30056186 C12.4315425,1.30056186 15.6500944,4.51911381 15.6500944,8.47532814 C15.6500944,12.4315425 12.4315425,15.6500944 8.47532814,15.6500944 C7.10228705,15.6500944 5.7681951,15.2611113 4.61682528,14.5253116 L4.37263122,14.3691765 Z M20.2997724,20.2997724 L18.4623901,19.7914018 L18.2170107,19.9510932 C17.2658054,20.5690294 16.1606666,20.8956939 15.0214895,20.8956939 C12.4786201,20.8956939 10.2441261,19.2515331 9.45244295,16.893926 C13.3463387,16.4449951 16.4449951,13.3463387 16.8940954,9.45227362 C19.2515331,10.2441261 20.8956939,12.4786201 20.8956939,15.0214895 C20.8956939,16.1606666 20.5690294,17.2658054 19.9510932,18.2170107 L19.7914018,18.4623901 L20.2997724,20.2997724 Z" id="Shape" stroke="#FFFFFF" stroke-width="0.5" fill="#CCAD58" fill-rule="nonzero"></path>
                                <path d="M17.2358079,10.0392445 C18.1285514,10.4367906 18.8879535,11.0657125 19.4464057,11.8429371 C20.0948261,12.7453748 20.472334,13.8480088 20.472334,15.0214895 C20.472334,16.1326009 20.1375512,17.2088789 19.5057633,18.120971 L19.5057633,18.120971 L19.772562,19.7146369 L18.3889986,19.3318297 C17.211665,20.1321763 16.1350805,20.472334 15.0214895,20.472334 C13.847993,20.472334 12.7453448,20.0948159 11.8429207,19.4463581 C11.0656811,18.8878545 10.4367758,18.128367 10.0397303,17.2355593 C11.8672722,16.9101301 13.503651,16.0251631 14.7644282,14.7643859 C16.0252846,13.5035295 16.9103209,11.8669866 17.2358079,10.0392445 Z" id="Path" stroke="#D5BE6C" stroke-width="0.846719954" fill="#FFFFFF" opacity="0.15"></path>
                                <polygon id="Path" fill="#C8A64A" fill-rule="nonzero" points="7.82504721 11.7484088 9.12560907 11.7484088 9.12560907 13.0489707 7.82504721 13.0489707"></polygon>
                                <path d="M9.77589,6.50280931 C9.77589,6.87214855 9.62551254,7.213038 9.35253002,7.4628204 L7.82504721,8.8609244 L7.82504721,10.447847 L9.12560907,10.447847 L9.12560907,9.4336458 L10.2305786,8.42232348 C10.7680765,7.93037919 11.0764519,7.23081915 11.0764519,6.50280931 C11.0764519,5.06846568 9.90967178,3.90168559 8.47532814,3.90168559 C7.0409845,3.90168559 5.87420441,5.06846568 5.87420441,6.50280931 L7.17476628,6.50280931 C7.17476628,5.78563749 7.75815632,5.20224745 8.47532814,5.20224745 C9.19249996,5.20224745 9.77589,5.78563749 9.77589,6.50280931 Z" id="Path" fill="#C8A64A" fill-rule="nonzero"></path>
                            </g>
                        </g>
                    </g>
                </g>
            </g>
        </g>
    </g>
</svg>