<?xml version="1.0" encoding="UTF-8"?>
<svg width="22px" height="22px" viewBox="0 0 22 22" version="1.1" xmlns="http://www.w3.org/2000/svg" xmlns:xlink="http://www.w3.org/1999/xlink">
    <title>3</title>
    <g id="Page-1" stroke="none" stroke-width="1" fill="none" fill-rule="evenodd">
        <g id="Desktop-HD-Copy-15" transform="translate(-192.000000, -637.000000)" fill="#C8A64A" fill-rule="nonzero">
            <g id="Group-7-Copy-7" transform="translate(158.000000, 611.000000)">
                <g id="Group" transform="translate(22.000000, 18.000000)">
                    <g id="Group-26" transform="translate(2.000000, 0.000000)">
                        <g id="handshake" transform="translate(10.000000, 8.000000)">
                            <path d="M14.7469127,12.1244749 L11.8273669,10.3305711 C11.7917929,10.3086891 11.7508849,10.2938631 11.7095989,10.2873951 L10.795553,10.1261151 C10.626461,10.0962111 10.460393,10.2125511 10.4305731,10.3816431 C10.4007531,10.550735 10.516967,10.716803 10.686059,10.746623 L11.548613,10.898831 L14.4170867,12.6613609 C14.5571147,12.7474188 14.7491807,12.7056288 14.8421267,12.5703889 C14.9418346,12.4252369 14.8968106,12.2166649 14.7469127,12.1244749 Z" id="Path"></path>
                            <path d="M21.3995441,12.2254849 C21.2806841,12.0983509 21.0813521,12.0916309 20.9542181,12.2104069 L19.6770402,13.4040468 L13.8248447,7.62980331 L21.3847601,0.544907951 C21.511684,0.425921961 21.518152,0.226547979 21.3992081,0.099623991 C21.2802641,-0.0272999975 21.0808481,-0.0337679969 20.9539241,0.0851759923 L13.1549448,7.39409933 C13.0263408,7.51459732 13.0236528,7.7244293 13.1491068,7.84824529 L13.6667568,8.35892324 L13.5015288,8.50483123 L10.0415271,8.20688325 C9.98814509,8.20234726 9.9326631,8.21154525 9.8839431,8.23405725 L7.14247735,9.48263314 C7.13449735,9.48057514 7.12651735,9.47855914 7.11824335,9.47708914 L5.5413115,9.19879716 L5.66882349,8.87283519 C5.73186548,8.71163921 5.65311549,8.52977923 5.4924235,8.46556123 L0.451751959,6.44930941 C0.290135974,6.38458742 0.10684799,6.46325341 0.0422519962,6.6248274 C-0.022385998,6.78635938 0.0561959949,6.96973137 0.21776998,7.03432736 L4.96809555,8.93449119 L2.1687118,16.0883085 L0.43990796,15.4759906 C0.275855975,15.4179466 0.0958439913,15.5037526 0.0377579966,15.6678046 C-0.0203279982,15.8318146 0.065561994,16.0118685 0.229571979,16.0699545 L2.2458238,16.7840385 C2.40407978,16.8401085 2.58325177,16.7580825 2.64436176,16.6018425 L3.11219972,15.4062706 L4.33805361,16.0932225 L4.20285562,16.3123785 C3.81977365,16.9332645 4.01318364,17.7500804 4.63411158,18.1332044 C4.96246755,18.3358123 5.37007751,18.3838603 5.73698948,18.2650843 C5.79583147,18.6474523 6.02053145,18.9886603 6.35002142,19.1919403 C6.67837739,19.3945482 7.08594536,19.4425962 7.45289932,19.3238202 C7.51178332,19.7061882 7.7363993,20.0473542 8.06588927,20.2506762 C8.39525324,20.4539141 8.8007212,20.5017521 9.16885117,20.3829341 C9.22781916,20.7651341 9.45239314,21.1061741 9.78179911,21.3094121 C10.2605571,21.604798 10.894253,21.560656 11.325803,21.1989521 C11.434583,21.1077701 11.528201,20.9989481 11.6027089,20.8781561 L11.8176229,20.5298921 L11.9945689,20.6385881 C12.4739569,20.9331341 13.1074848,20.8877741 13.5383628,20.5252721 C13.6469748,20.4338801 13.7403828,20.3248902 13.8146807,20.2039722 C13.9623527,19.9636062 14.0234627,19.6942182 14.0073347,19.4319702 C14.1073787,19.4560362 14.2097747,19.4689722 14.3130947,19.4689722 C14.7706427,19.4689722 15.2034526,19.2276823 15.4428946,18.8380063 C15.5871226,18.6032263 15.6530206,18.3355603 15.6363046,18.0661304 C15.7360966,18.0900704 15.8382826,18.1029224 15.9412666,18.1029224 C16.3988145,18.1029224 16.8316665,17.8616324 17.0710664,17.4719564 C17.2154204,17.2370084 17.2812764,16.9691745 17.2644344,16.6995345 C17.3653184,16.7235585 17.4677564,16.7361165 17.5697324,16.7361165 C18.0146804,16.7361165 18.4497583,16.5120885 18.6992803,16.1059905 C19.0812283,15.4843486 18.8862643,14.6679107 18.2646223,14.2859627 L18.0487424,14.1533267 L18.7727803,13.3968228 L19.4500302,14.0650427 C19.5688062,14.1821807 19.7645682,14.1847847 19.8864102,14.0709647 L21.3845921,12.6708108 C21.511642,12.5519929 21.518362,12.3526189 21.3995441,12.2254849 Z M5.91876546,17.3710724 C5.71804748,17.6962784 5.29019352,17.7975824 4.96494555,17.5969904 C4.63969758,17.3963144 4.53839359,16.9684605 4.73902757,16.6432125 L6.50361541,13.7833907 C6.70055339,13.4641908 7.12315735,13.3598208 7.44584332,13.5504588 C7.77974329,13.7478588 7.87189129,14.2056167 7.6714253,14.5305707 L5.91876546,17.3710724 Z M7.63459131,18.4298083 C7.43395732,18.7550143 7.00606136,18.8563603 6.68085539,18.6557263 C6.35955542,18.4574443 6.25636143,18.0237524 6.45493741,17.7019484 L7.86655729,15.4140826 C8.06349527,15.0949246 8.48609923,14.9905126 8.8087852,15.1811506 C9.14268517,15.3785506 9.23483316,15.8363086 9.03432518,16.1612625 L7.63459131,18.4298083 Z M9.35062715,19.4885442 C9.25335516,19.6460862 9.10055917,19.7563782 8.92046319,19.7990502 C8.74024121,19.8417642 8.55430722,19.8116502 8.39676524,19.7144622 C8.07550727,19.5161802 7.97231328,19.0824463 8.17088926,18.7606843 L9.22962516,17.0447745 C9.42656314,16.7255745 9.84920911,16.6212045 10.1718531,16.8118425 C10.505753,17.0092425 10.597901,17.4670004 10.3974351,17.7919544 L9.35062715,19.4885442 Z M11.7604189,19.4227302 L11.066495,20.5473221 C10.868213,20.8686221 10.4345211,20.9717321 10.1126751,20.7731981 C9.79141711,20.5749581 9.68826512,20.1411822 9.8867991,19.8194202 L10.592609,18.6755083 C10.789547,18.3563923 11.212193,18.2518543 11.534837,18.4426183 C11.8687369,18.6399763 11.9608849,19.0977763 11.7604189,19.4227302 Z M17.4994664,13.8158147 L15.9378226,12.8562408 C15.7930066,12.7672428 15.5934646,12.8149128 15.5045086,12.9597288 C15.4155106,13.1045448 15.4631806,13.3040868 15.6079966,13.3930428 L17.9346704,14.8226807 C18.2602543,15.0227686 18.3623983,15.4504126 18.1623524,15.7760386 C17.9622644,16.1016225 17.5345784,16.2037665 17.2089524,16.0037205 L14.7136067,14.4703847 C14.5653887,14.3792447 14.3713487,14.4256547 14.2802927,14.5738727 C14.1892367,14.7220907 14.2355627,14.9161306 14.3837807,15.0071866 L16.3065405,16.1886465 C16.6282185,16.3862985 16.7321685,16.8198645 16.5342225,17.1420044 C16.3365705,17.4636824 15.9030046,17.5675904 15.5808646,17.3696864 L13.8383687,16.2989805 C13.6901088,16.2078825 13.4961108,16.2542505 13.4050548,16.4024685 C13.3139988,16.5506865 13.3603248,16.7447265 13.5085428,16.8357825 L14.6784107,17.5546124 C15.0000466,17.7523064 15.1040386,18.1857883 14.9060926,18.5079703 C14.7084407,18.8296063 14.2748747,18.9335983 13.9527347,18.7356523 C13.9527347,18.7356523 12.9239028,18.1040984 12.9142848,18.0994784 C12.7704348,18.0300104 12.5945389,18.0794444 12.5091949,18.2183803 C12.4181389,18.3665983 12.4644649,18.5606383 12.6126829,18.6516943 L13.0502808,18.9205783 C13.3758648,19.1206663 13.4779668,19.5483102 13.2779208,19.8739362 C13.0802688,20.1956142 12.6467029,20.2995222 12.3245629,20.1016182 L12.1486669,19.9935102 L12.2968009,19.7533962 C12.4861789,19.4464602 12.5449369,19.0684603 12.4579969,18.7163323 C12.3722329,18.3688243 12.1582849,18.0789404 11.8556749,17.9000624 C11.6195509,17.7605384 11.355413,17.7040064 11.098205,17.7213524 C11.146505,17.5138724 11.146757,17.2952204 11.095013,17.0855984 C11.009249,16.7380905 10.795301,16.4482065 10.492691,16.2693285 C10.2565671,16.1297625 9.99242909,16.0732305 9.73522112,16.0905765 C9.8651271,15.5324806 9.62597913,14.9320066 9.12970717,14.6385947 C8.89358319,14.4990707 8.62944522,14.4425387 8.37223724,14.4598427 C8.50214323,13.9017467 8.26299525,13.3012728 7.76672329,13.0078608 C7.15062535,12.6436789 6.34359542,12.8431368 5.96769546,13.4523048 L4.66947558,15.5563366 L3.3440397,14.8138607 L5.30703552,9.79729711 L6.37585142,9.98591909 C6.07185545,10.3634991 5.98638546,10.895093 6.20058544,11.365535 C6.42226142,11.8522309 6.90383337,12.1402249 7.40674133,12.1401829 C7.58990331,12.1401829 7.77592129,12.1019629 7.95320328,12.0212389 L9.79817911,11.180903 C9.9544191,11.109755 10.0254831,10.919873 9.9542931,10.763633 C9.8831451,10.607435 9.69326312,10.536287 9.53702313,10.607519 L7.6920053,11.447813 C7.34428733,11.6062369 6.93239337,11.452139 6.77396938,11.104337 C6.6155874,10.756535 6.76964339,10.3447251 7.11744535,10.1863011 L10.0697931,8.8416712 L13.5817488,9.14411317 C13.5907788,9.14491117 13.5998088,9.14528917 13.6087968,9.14528917 C13.6852368,9.14528917 13.7594508,9.11744317 13.8172847,9.06645518 L14.1162407,8.8024852 L18.3240523,12.9541428 L17.4994664,13.8158147 Z" id="Shape"></path>
                        </g>
                    </g>
                </g>
            </g>
        </g>
    </g>
</svg>