<?xml version="1.0" encoding="UTF-8"?>
<svg width="27px" height="26px" viewBox="0 0 27 26" version="1.1" xmlns="http://www.w3.org/2000/svg" xmlns:xlink="http://www.w3.org/1999/xlink">
    <title>4</title>
    <g id="Page-1" stroke="none" stroke-width="1" fill="none" fill-rule="evenodd">
        <g id="Desktop-HD-Copy-15" transform="translate(-771.000000, -635.000000)">
            <g id="Group-7-Copy-8" transform="translate(738.000000, 611.000000)">
                <g id="Group-19" transform="translate(23.000000, 19.000000)">
                    <g id="Group" transform="translate(0.500000, 0.000000)">
                        <g id="islam" transform="translate(11.000000, 6.000000)">
                            <path d="M22.73882,3.21435529 C22.5605365,3.09078273 22.3329649,3.06252371 22.1299492,3.13870402 L20.3782827,3.7955828 L20.3782827,1.11273995 C20.3782827,0.900378534 20.276312,0.700934264 20.1041123,0.576612239 C19.9319126,0.452246128 19.7104249,0.418211871 19.5089522,0.485045981 L11.7374394,3.06124522 L3.96597074,0.485045981 C3.76440984,0.418300043 3.54301027,0.452290213 3.37081061,0.576612239 C3.19861095,0.700934264 3.09659609,0.900378534 3.09659609,1.11273995 L3.09659609,3.7955828 L1.34492963,3.13870402 C1.1419139,3.0625678 0.914386384,3.09082681 0.736058775,3.21435529 C0.557819339,3.33788377 0.451439977,3.54098717 0.451439977,3.75788942 L0.451439977,17.0718084 C0.451439977,17.3673598 0.647578303,17.6270253 0.931844414,17.7078787 L3.09659609,18.3234491 L3.09659609,22.3621074 C3.09659609,22.5694871 3.19384967,22.7648314 3.35930418,22.8898147 C3.47542654,22.9775014 3.6156639,23.0234388 3.75792921,23.0234388 C3.81841511,23.0234388 3.8792537,23.0151066 3.93876972,22.9981777 L11.7374394,20.7805725 L19.5361091,22.9982217 C19.5956251,23.0151507 19.6564196,23.0234388 19.7169496,23.0234388 C19.8592149,23.0234388 19.9994523,22.9775014 20.1155746,22.8898588 C20.2810291,22.7648755 20.3782827,22.5695312 20.3782827,22.3621515 L20.3782827,18.3234932 L22.5430344,17.7079228 C22.8273005,17.6270694 23.0234388,17.3673598 23.0234388,17.0718084 L23.0234388,3.75788942 C23.0234388,3.54098717 22.9171036,3.33788377 22.73882,3.21435529 Z" id="Path" fill-opacity="0.146804" fill="#FFFFFF"></path>
                            <g id="020-quran" transform="translate(0.451440, 0.451440)" fill="#C8A64A" fill-rule="nonzero" stroke="#FFFFFF" stroke-width="0.5">
                                <path d="M22.2873801,2.76291532 C22.1090965,2.63934275 21.8815249,2.61108374 21.6785092,2.68726404 L19.9268427,3.34414283 L19.9268427,0.661299974 C19.9268427,0.448938557 19.824872,0.249494287 19.6526723,0.125172261 C19.4804726,0.000806150439 19.2589849,-0.0332281061 19.0575122,0.0336060039 L11.2859994,2.60980525 L3.51453076,0.0336060039 C3.31296986,-0.0331399345 3.0915703,0.000850236263 2.91937063,0.125172261 C2.74717097,0.249494287 2.64515612,0.448938557 2.64515612,0.661299974 L2.64515612,3.34414283 L0.89348965,2.68726404 C0.690473918,2.61112782 0.462946406,2.63938684 0.284618798,2.76291532 C0.106379362,2.8864438 0,3.08954719 0,3.30644945 L0,16.6203685 C0,16.9159198 0.196138326,17.1755853 0.480404437,17.2564387 L2.64515612,17.8720091 L2.64515612,21.9106674 C2.64515612,22.1180471 2.74240969,22.3133914 2.9078642,22.4383747 C3.02398656,22.5260614 3.16422392,22.5719989 3.30648923,22.5719989 C3.36697513,22.5719989 3.42781373,22.5636666 3.48732974,22.5467377 L11.2859994,20.3291325 L19.0846691,22.5467818 C19.1441851,22.5637107 19.2049796,22.5719989 19.2655096,22.5719989 C19.4077749,22.5719989 19.5480123,22.5260614 19.6641347,22.4384188 C19.8295892,22.3134355 19.9268427,22.1180912 19.9268427,21.9107115 L19.9268427,17.8720532 L22.0915944,17.2564828 C22.3758605,17.1756294 22.5719989,16.9159198 22.5719989,16.6203685 L22.5719989,3.30644945 C22.5719989,3.08954719 22.4656636,2.8864438 22.2873801,2.76291532 Z M3.96773417,12.2452471 L8.56744023,13.7661199 C9.47865243,14.0698713 10.1680242,14.7778896 10.4646344,15.6514502 L3.96773417,13.4977695 L3.96773417,12.2452471 Z M18.6042647,10.8522233 L13.5862713,12.5113933 C12.9574295,12.7210214 12.4023876,13.0648467 11.9472885,13.5040297 L11.9472885,3.78394301 L18.6042647,1.57718298 L18.6042647,10.8522233 Z M18.6042647,12.2452471 L18.6042647,13.4978136 L12.1073204,15.6514943 C12.4038865,14.7779778 13.0929497,14.0700476 14.0030156,13.766693 L18.6042647,12.2452471 Z M10.6247104,3.78394301 L10.6247104,13.5042942 C10.1693027,13.0648467 9.61377582,12.7208009 8.98418458,12.5109083 L3.96773417,10.8522233 L3.96773417,1.57718298 L10.6247104,3.78394301 Z M3.96773417,21.0351229 L3.96773417,18.2481053 L8.86828265,19.6416141 L3.96773417,21.0351229 Z M18.6042647,21.0351229 L13.7037162,19.6416141 L18.6042647,18.2481053 L18.6042647,21.0351229 Z M21.2494208,16.1209202 L11.2859994,18.9541398 L1.32257806,16.1209202 L1.32257806,4.26068712 L2.64515612,4.75665265 L2.64515612,13.975219 C2.64515612,14.2602779 2.82780415,14.5132424 3.09835953,14.602913 L11.0779138,17.2480624 C11.1337266,17.2670193 11.2148888,17.2816558 11.2859994,17.2816558 C11.3559638,17.2816558 11.4381841,17.2670634 11.494085,17.2480624 L19.4736393,14.602913 C19.7441947,14.5132424 19.9268427,14.2602779 19.9268427,13.975219 C19.9268427,13.5220608 19.9268427,5.21183878 19.9268427,4.75665265 L21.2494208,4.26068712 L21.2494208,16.1209202 Z" id="Shape"></path>
                            </g>
                        </g>
                    </g>
                </g>
            </g>
        </g>
    </g>
</svg>