<?xml version="1.0" encoding="UTF-8"?>
<svg width="1440px" height="478px" viewBox="0 0 1440 478" version="1.1" xmlns="http://www.w3.org/2000/svg" xmlns:xlink="http://www.w3.org/1999/xlink">
    <title>_footer_bg</title>
    <defs>
        <linearGradient x1="50%" y1="5.55111512e-15%" x2="50%" y2="139.699612%" id="linearGradient-1">
            <stop stop-color="#F2F2F2" offset="0%"></stop>
            <stop stop-color="#FFFFFF" offset="100%"></stop>
        </linearGradient>
    </defs>
    <g id="Page-1" stroke="none" stroke-width="1" fill="none" fill-rule="evenodd">
        <g id="Desktop-HD-Copy-16" transform="translate(0.000000, -1874.000000)" fill="url(#linearGradient-1)">
            <g id="_footer_bg" transform="translate(-680.000000, -1246.000000)">
                <g transform="translate(219.000000, 2844.000000)">
                    <path d="M1540.78718,421.406228 L2180.40352,470.380619 C2221.78717,473.549299 2257.12407,501.477748 2269.76806,541.009717 L2561.43758,1452.92678 C2578.59884,1506.58219 2549.01448,1563.99045 2495.35907,1581.15171 C2485.31426,1584.36447 2474.83195,1586 2464.28586,1586 L1533,1586 C1476.66696,1586 1431,1540.33304 1431,1484 L1431,523.10854 C1431,466.775494 1476.66696,421.108537 1533,421.108537 C1535.59857,421.108537 1538.1962,421.20784 1540.78718,421.406228 Z" id="Rectangle-Copy-3" opacity="0.5" transform="translate(2017.500000, 999.500000) rotate(-35.000000) translate(-2017.500000, -999.500000) "></path>
                    <path d="M340.787185,239.406228 L980.403522,288.380619 C1021.78717,291.549299 1057.12407,319.477748 1069.76806,359.009717 L1361.43758,1270.92678 C1378.59884,1324.58219 1349.01448,1381.99045 1295.35907,1399.15171 C1285.31426,1402.36447 1274.83195,1404 1264.28586,1404 L333.000003,1404 C276.666957,1404 231,1358.33304 231,1302 L231,341.10854 C231,284.775494 276.666957,239.108537 333.000003,239.108537 C335.598575,239.108537 338.196197,239.20784 340.787185,239.406228 Z" id="Rectangle-Copy" transform="translate(817.500000, 817.500000) rotate(-35.000000) translate(-817.500000, -817.500000) "></path>
                </g>
            </g>
        </g>
    </g>
</svg>