<?xml version="1.0" encoding="UTF-8"?>
<svg width="1440px" height="391px" viewBox="0 0 1440 391" version="1.1" xmlns="http://www.w3.org/2000/svg" xmlns:xlink="http://www.w3.org/1999/xlink">
    <title>_innerpage_bg</title>
    <defs>
        <linearGradient x1="50%" y1="5.55111512e-15%" x2="50%" y2="139.699612%" id="linearGradient-1">
            <stop stop-color="#F2F2F2" offset="0%"></stop>
            <stop stop-color="#FFFFFF" offset="100%"></stop>
        </linearGradient>
    </defs>
    <g id="Page-1" stroke="none" stroke-width="1" fill="none" fill-rule="evenodd">
        <g id="_innerpage_bg" transform="translate(-680.000000, -1246.000000)">
            <path d="M1482.12548,268.883027 L2418.55645,462.114691 C2447.24564,468.03468 2469.35388,490.966499 2474.22107,519.852941 L2624.21063,1410.03089 C2629.71642,1442.70737 2607.69022,1473.66022 2575.01373,1479.16601 C2571.7197,1479.72103 2568.38508,1480 2565.04462,1480 L1470,1480 C1436.86292,1480 1410,1453.13708 1410,1420 L1410,327.645027 C1410,294.507942 1436.86292,267.645027 1470,267.645027 C1474.07337,267.645027 1478.13616,268.059833 1482.12548,268.883027 Z" id="Mask" fill="url(#linearGradient-1)" transform="translate(2023.000000, 867.000000) scale(1, -1) rotate(-45.000000) translate(-2023.000000, -867.000000) "></path>
            <g id="Bitmap" opacity="0.699195499" transform="translate(0.000000, 181.000000)">
                <path d="M426.125484,268.883027 L1362.55645,462.114691 C1391.24564,468.03468 1413.35388,490.966499 1418.22107,519.852941 L1568.21063,1410.03089 C1573.71642,1442.70737 1551.69022,1473.66022 1519.01373,1479.16601 C1515.7197,1479.72103 1512.38508,1480 1509.04462,1480 L414,1480 C380.862915,1480 354,1453.13708 354,1420 L354,327.645027 C354,294.507942 380.862915,267.645027 414,267.645027 C418.073373,267.645027 422.136159,268.059833 426.125484,268.883027 Z" id="Mask" fill="url(#linearGradient-1)" opacity="0.875372024" transform="translate(967.000000, 867.000000) scale(1, -1) rotate(-45.000000) translate(-967.000000, -867.000000) "></path>
                <path d="M326.125484,279.883027 L1262.55645,473.114691 C1291.24564,479.03468 1313.35388,501.966499 1318.22107,530.852941 L1468.21063,1421.03089 C1473.71642,1453.70737 1451.69022,1484.66022 1419.01373,1490.16601 C1415.7197,1490.72103 1412.38508,1491 1409.04462,1491 L314,1491 C280.862915,1491 254,1464.13708 254,1431 L254,338.645027 C254,305.507942 280.862915,278.645027 314,278.645027 C318.073373,278.645027 322.136159,279.059833 326.125484,279.883027 Z" id="Mask" fill="#F0F0F0" transform="translate(867.000000, 878.000000) scale(1, -1) rotate(-45.000000) translate(-867.000000, -878.000000) "></path>
            </g>
        </g>
    </g>
</svg>