<?xml version="1.0" encoding="UTF-8"?>
<svg width="35px" height="33px" viewBox="0 0 35 33" version="1.1" xmlns="http://www.w3.org/2000/svg" xmlns:xlink="http://www.w3.org/1999/xlink">
    <title>1_h</title>
    <g id="UI-Screens" stroke="none" stroke-width="1" fill="none" fill-rule="evenodd">
        <g id="Artboard" transform="translate(-625.000000, -745.000000)" fill="#80A177" fill-rule="nonzero">
            <g id="1_h" transform="translate(625.000000, 745.000000)">
                <path d="M34.139,0 L34.139,27.23 L31.8677047,31.7671045 C31.694645,32.1128058 31.2741061,32.2527595 30.9284048,32.0796998 C30.7929684,32.0118997 30.6831757,31.9020008 30.6155067,31.7664988 L28.35,27.23 L28.35,0 L34.139,0 Z M16.345,0 L23.1,6.762 L23.1,30.639 C23.1,31.4121986 22.4731986,32.039 21.7,32.039 L1.4,32.039 C0.62680135,32.039 5.38778735e-16,31.4121986 0,30.639 L0,1.4 C-9.46895252e-17,0.62680135 0.62680135,-1.19023334e-15 1.4,0 L16.345,0 Z M15.687,1.589 L1.589,1.589 L1.589,30.45 L21.525,30.45 L21.525,7.42 L15.687,1.589 Z M32.55,1.589 L29.939,1.589 L29.932,26.859 L31.241,29.47 L32.55,26.859 L32.55,1.589 Z M17.8465,23.1 C18.2852902,23.1 18.641,23.4557098 18.641,23.8945 C18.641,24.3332902 18.2852902,24.689 17.8465,24.689 L8.4355,24.689 C7.99670977,24.689 7.641,24.3332902 7.641,23.8945 C7.641,23.4557098 7.99670977,23.1 8.4355,23.1 L17.8465,23.1 Z M17.8465,18.9 C18.2852902,18.9 18.641,19.2557098 18.641,19.6945 C18.641,20.1332902 18.2852902,20.489 17.8465,20.489 L5.2605,20.489 C4.82170977,20.489 4.466,20.1332902 4.466,19.6945 C4.466,19.2557098 4.82170977,18.9 5.2605,18.9 L17.8465,18.9 Z M17.8465,14.7 C18.2852902,14.7 18.641,15.0557098 18.641,15.4945 C18.641,15.9332902 18.2852902,16.289 17.8465,16.289 L5.2605,16.289 C4.82170977,16.289 4.466,15.9332902 4.466,15.4945 C4.466,15.0557098 4.82170977,14.7 5.2605,14.7 L17.8465,14.7 Z M17.8465,10.5 C18.2852902,10.5 18.641,10.8557098 18.641,11.2945 C18.641,11.7332902 18.2852902,12.089 17.8465,12.089 L5.2605,12.089 C4.82170977,12.089 4.466,11.7332902 4.466,11.2945 C4.466,10.8557098 4.82170977,10.5 5.2605,10.5 L17.8465,10.5 Z M29.141,2.1 L29.141,3.689 L27.839,3.689 L27.839,8.141 L26.25,8.141 L26.25,2.1 L29.141,2.1 Z M16.814,0.791 L16.814,6.3 L22.316,6.3 L22.316,7.889 L15.225,7.889 L15.225,0.791 L16.814,0.791 Z M10.766,5.25 L10.766,6.839 L4.466,6.839 L4.466,5.25 L10.766,5.25 Z"></path>
            </g>
        </g>
    </g>
</svg>