<?xml version="1.0" encoding="UTF-8"?>
<svg width="43px" height="32px" viewBox="0 0 43 32" version="1.1" xmlns="http://www.w3.org/2000/svg" xmlns:xlink="http://www.w3.org/1999/xlink">
    <title>2_h</title>
    <g id="UI-Screens" stroke="none" stroke-width="1" fill="none" fill-rule="evenodd">
        <g id="Artboard" transform="translate(-550.000000, -746.000000)" fill="#80A177" fill-rule="nonzero">
            <g id="2_h" transform="translate(550.909999, 746.000000)">
                <path d="M7.11392968,3.71899068e-07 C6.71667688,0.00900074398 6.44213008,0.307566744 6.44273848,0.731754744 C6.44273848,0.731754744 6.45101848,12.2924167 6.47830648,12.3965647 C4.25409166,14.7048667 4.08787606,18.2607487 5.97035386,20.7620647 L0.321782679,26.3716747 C-0.634933521,27.2444947 0.762467679,28.6322767 1.64136268,27.6821467 L6.44274046,22.9138927 L6.44274046,25.7703307 C6.44226886,26.2908187 6.85196128,26.8225027 7.35833008,26.9585287 L24.1672512,31.4315467 C24.454371,31.5082267 41.2205718,26.9087227 41.2205718,26.9087227 C41.6267184,26.7994627 41.9090196,26.4336667 41.9099988,26.0157607 L41.9099988,0.976284744 C41.9099988,0.454410744 41.4768558,0.035190744 40.9515492,0.048888744 C40.8782352,0.050652744 24.1417146,4.49656274 24.1417146,4.49656274 C24.1417146,4.49656274 7.19352748,-0.00149325602 7.11392968,3.71899068e-07 Z M8.27659648,2.16088274 L23.2352454,6.14122274 L23.2352454,29.2942267 L8.27659648,25.3138867 L8.27659648,22.6811347 C10.7234103,23.8921207 13.7843535,23.4921247 15.81933,21.4711927 C18.3642924,18.9437947 18.366096,14.8179967 15.821094,12.2905987 C13.7865315,10.2700807 10.7243589,9.86965274 8.27659648,11.0797387 L8.27659648,2.16088274 Z M40.0450764,2.18176274 L40.0450764,25.3030507 L25.1038146,29.2806727 L25.1038146,6.15933074 L40.0450764,2.18176274 Z M10.8647499,8.89716674 L20.1784152,11.3759287 C21.3827862,11.6953387 21.8652042,9.90124274 20.6608332,9.58183274 L11.3508129,7.10397074 C10.3307691,6.88804274 9.77981608,8.56935074 10.8647499,8.89716674 Z M37.2362952,7.06957274 C37.1521272,7.06984274 37.0683912,7.08217274 36.9873354,7.10395274 L27.67458,9.58181474 C26.4368334,9.88144274 26.9337072,11.7283507 28.156998,11.3750107 L37.4706642,8.89714874 C38.545941,8.63211674 38.344134,7.05844874 37.2362952,7.06953674 L37.2362952,7.06957274 Z M17.8647499,21.8971667 C16.7798161,21.5693507 17.3307691,19.8880427 18.3508129,20.1039707 L18.3508129,20.1039707 L20.6608332,20.5818327 C21.8652042,20.9012427 21.3827862,22.6953387 20.1784152,22.3759287 L20.1784152,22.3759287 Z M11.1983745,12.2371747 C12.3919077,12.2371747 13.5850449,12.6918007 14.5006635,13.6011067 L14.5006635,13.6020427 C16.3318962,15.4206367 16.329162,18.3403447 14.4977835,20.1589747 C12.6665481,21.9775687 9.72655408,21.9800347 7.89532048,20.1607207 C6.06408688,18.3421267 6.06408688,15.4196647 7.89532048,13.6010707 C8.81093728,12.6917827 10.0049853,12.2371747 11.1983745,12.2371747 Z M27.67458,16.0753147 C26.3937666,16.3477627 26.9104368,18.2644027 28.156998,17.8648927 L37.4706642,15.3870127 C38.524854,15.1095067 38.326881,13.5687787 37.2362952,13.5630367 M27.67458,22.5652327 C26.503905,22.9033807 26.97249,24.6451507 28.156998,24.3584107 L37.4706642,21.8805487 C38.545941,21.6155167 38.344134,20.0418667 37.2362952,20.0529367 C34.0443282,20.8716847 30.8600886,21.7214107 27.67458,22.5652327 Z"></path>
            </g>
        </g>
    </g>
</svg>