<?xml version="1.0" encoding="UTF-8"?>
<svg width="29px" height="34px" viewBox="0 0 29 34" version="1.1" xmlns="http://www.w3.org/2000/svg" xmlns:xlink="http://www.w3.org/1999/xlink">
    <title>3_h</title>
    <g id="UI-Screens" stroke="none" stroke-width="1" fill="none" fill-rule="evenodd">
        <g id="Artboard" transform="translate(-483.000000, -743.000000)" fill="#80A177" fill-rule="nonzero" stroke="#80A177" stroke-width="0.4">
            <g id="3_h" transform="translate(484.000000, 744.000000)">
                <path d="M21.0526316,0 C24.2947368,0 26.9473684,2.65263158 26.9473684,5.89473684 C26.9473684,8.70359312 24.9563203,11.0699943 22.3158756,11.6522889 L22.3157895,30.7368421 C22.3157895,31.4526316 21.7684211,32 21.0526316,32 L21.0526316,32 L1.26315789,32 C0.547368421,32 0,31.4526316 0,30.7368421 L0,30.7368421 L0,3.36842105 C0,2.65263158 0.547368421,2.10526316 1.26315789,2.10526316 L1.26315789,2.10526316 L15.4526316,2.10526316 C15.743068,2.10526316 16.0735723,2.18539883 16.3750488,2.31803191 C17.4536881,0.911772094 19.1518519,0 21.0526316,0 Z M15.4526316,2.94736842 L1.26315789,2.94736842 C1.01052632,2.94736842 0.842105263,3.11578947 0.842105263,3.36842105 L0.842105263,3.36842105 L0.842105263,30.7368421 C0.842105263,30.9894737 1.01052632,31.1578947 1.26315789,31.1578947 L1.26315789,31.1578947 L21.0526316,31.1578947 C21.3052632,31.1578947 21.4736842,30.9894737 21.4736842,30.7368421 L21.4736842,30.7368421 L21.4739524,11.7744609 C21.3347516,11.7844121 21.194254,11.7894737 21.0526316,11.7894737 C17.8105263,11.7894737 15.1578947,9.13684211 15.1578947,5.89473684 C15.1578947,4.86151132 15.4273043,3.88815458 15.8993449,3.04144511 C15.7437657,2.98278073 15.5863946,2.94736842 15.4526316,2.94736842 L15.4526316,2.94736842 Z M18.1052632,27.3684211 C18.3578947,27.3684211 18.5263158,27.5368421 18.5263158,27.7894737 C18.5263158,28.0421053 18.3578947,28.2105263 18.1052632,28.2105263 L13.4736842,28.2105263 C13.2210526,28.2105263 13.0526316,28.0421053 13.0526316,27.7894737 C13.0526316,27.5368421 13.2210526,27.3684211 13.4736842,27.3684211 L18.1052632,27.3684211 Z M18.1052632,23 C18.3578947,23 18.5263158,23.1684211 18.5263158,23.4210526 C18.5263158,23.6736842 18.3578947,23.8421053 18.1052632,23.8421053 L3.36842105,23.8421053 C3.11578947,23.8421053 2.94736842,23.6736842 2.94736842,23.4210526 C2.94736842,23.1684211 3.11578947,23 3.36842105,23 L18.1052632,23 Z M18.1052632,19 C18.3578947,19 18.5263158,19.1684211 18.5263158,19.4210526 C18.5263158,19.6736842 18.3578947,19.8421053 18.1052632,19.8421053 L3.36842105,19.8421053 C3.11578947,19.8421053 2.94736842,19.6736842 2.94736842,19.4210526 C2.94736842,19.1684211 3.11578947,19 3.36842105,19 L18.1052632,19 Z M18.1052632,14.7368421 C18.3578947,14.7368421 18.5263158,14.9052632 18.5263158,15.1578947 C18.5263158,15.4105263 18.3578947,15.5789474 18.1052632,15.5789474 L3.36842105,15.5789474 C3.11578947,15.5789474 2.94736842,15.4105263 2.94736842,15.1578947 C2.94736842,14.9052632 3.11578947,14.7368421 3.36842105,14.7368421 L18.1052632,14.7368421 Z M21.0526316,0.842105263 C18.2736842,0.842105263 16,3.11578947 16,5.89473684 C16,8.67368421 18.2736842,10.9473684 21.0526316,10.9473684 C23.8315789,10.9473684 26.1052632,8.67368421 26.1052632,5.89473684 C26.1052632,3.11578947 23.8315789,0.842105263 21.0526316,0.842105263 Z M23.8922156,4.11111111 C24.0359281,4.25925926 24.0359281,4.48148148 23.8922156,4.62962963 L20.9461078,7.66666667 C20.7305389,7.88888889 20.4431138,8 20.1916168,8 C19.9760479,8 19.7245509,7.92592593 19.5808383,7.74074074 L18.1077844,6.22222222 C17.9640719,6.07407407 17.9640719,5.85185185 18.1077844,5.7037037 C18.251497,5.55555556 18.4670659,5.55555556 18.6107784,5.7037037 L20.0838323,7.22222222 C20.1556886,7.2962963 20.2994012,7.25925926 20.4431138,7.14814815 L23.3892216,4.11111111 C23.5329341,3.96296296 23.748503,3.96296296 23.8922156,4.11111111 Z M8,6.31578947 C8.25263158,6.31578947 8.42105263,6.48421053 8.42105263,6.73684211 C8.42105263,6.98947368 8.25263158,7.15789474 8,7.15789474 L3.36842105,7.15789474 C3.11578947,7.15789474 2.94736842,6.98947368 2.94736842,6.73684211 C2.94736842,6.48421053 3.11578947,6.31578947 3.36842105,6.31578947 L8,6.31578947 Z"></path>
            </g>
        </g>
    </g>
</svg>