<?xml version="1.0" encoding="UTF-8"?>
<svg width="138px" height="54px" viewBox="0 0 138 54" version="1.1" xmlns="http://www.w3.org/2000/svg" xmlns:xlink="http://www.w3.org/1999/xlink">
    <title>dorar_logo</title>
    <g id="UI-Screens" stroke="none" stroke-width="1" fill="none" fill-rule="evenodd">
        <g id="Artboard" transform="translate(-204.000000, -36.000000)">
            <g id="Group" transform="translate(37.000000, 36.000000)">
                <g id="_logo" transform="translate(11.000000, 0.000000)">
                    <g id="dorar_logo" transform="translate(156.000000, 0.000000)">
                        <g id="Group-77" transform="translate(1.000000, 44.000000)">
                            <g id="DORAR_LOGO" transform="translate(132.897433, 5.245307)"></g>
                            <path d="M1.82864254,7.34658312 C1.62183067,7.41133543 1.40672903,7.4450224 1.19022857,7.44656485 C0.486762441,7.44656485 0,7.11591986 0,6.17397577 C0,5.22331958 0.558586579,4.84268372 1.2394794,4.84268372 C1.56890917,4.8410878 1.89671566,4.88940259 2.21197823,4.98601853 L2.21197823,7.56168905 L3.03857145,7.56168905 L3.07489394,7.92220409 L1.82864254,7.92220409 L1.82864254,7.34658312 Z M1.82864254,5.30276564 C1.63709335,5.25058182 1.43865679,5.22895587 1.24050546,5.23866947 C0.776931958,5.23866947 0.407345466,5.46165778 0.407345466,6.17397577 C0.407345466,6.87198103 0.726449849,7.05161626 1.19741098,7.05161626 C1.41103691,7.04921932 1.62336493,7.01768158 1.82864254,6.95785745 L1.82864254,5.30276564 Z M0.653804864,3.59851269 L1.00266496,3.59851269 L1.00266496,4.28158292 L0.653804864,4.28158292 L0.653804864,3.59851269 Z M1.43689318,3.59851269 L1.78575327,3.59851269 L1.78575327,4.28158292 L1.43689318,4.28158292 L1.43689318,3.59851269 Z" id="Path_33" fill="#375D1B" fill-rule="nonzero"></path>
                            <polygon id="Path_34" fill="#375D1B" fill-rule="nonzero" points="3.00101768 7.56210391 4.11100843 7.56210391 4.1469205 7.92137437 3.03734018 7.92137437"></polygon>
                            <path d="M4.07345466,7.56210391 L4.95832804,7.56210391 C4.69688818,7.3036449 4.54482622,6.9006065 4.54482622,6.31751801 C4.54482622,5.2094217 5.15410012,4.70557184 5.95955652,4.70557184 C6.41567223,4.66531153 6.84880232,4.91470027 7.04717918,5.33180598 L6.80092499,5.54774163 C6.60474249,5.15880854 6.33673585,5.07272468 5.95955652,5.07272468 C5.34248457,5.07272468 4.96571567,5.45439769 4.96571567,6.31731058 C4.96571567,7.10160713 5.27763764,7.56189648 5.9956738,7.56189648 L7.12618573,7.56189648 L7.16271343,7.92116694 L4.11100843,7.92116694 L4.07345466,7.56210391 Z" id="Path_35" fill="#375D1B" fill-rule="nonzero"></path>
                            <path d="M8.89388036,7.92220409 C8.5821636,7.92220409 8.14711454,7.8070799 8.14711454,7.02195363 L8.14711454,3.36764201 L8.53147628,3.30997619 L8.53147628,6.97963771 C8.53147628,7.49821516 8.76336564,7.56210391 8.97329734,7.56210391 L9.61191652,7.56210391 L9.64803381,7.92220409 L8.89388036,7.92220409 Z" id="Path_36" fill="#375D1B" fill-rule="nonzero"></path>
                            <path d="M10.3716107,6.81369292 C10.4664186,6.0656968 10.973497,5.72737686 11.6482334,5.72737686 C12.525514,5.72737686 12.9390158,6.28744052 12.9390158,7.05866891 C12.9397086,7.15735656 12.9324336,7.2559368 12.9172633,7.35342834 C13.182341,7.48991654 13.4755098,7.56133642 13.7729966,7.56189648 L13.8093191,7.56189648 L13.8454364,7.92199666 L13.8021367,7.92199666 C13.4679683,7.92177144 13.1373016,7.85318714 12.8300483,7.72037375 C12.6560287,8.18813061 12.2577125,8.41133511 11.6482334,8.41133511 C11.3052163,8.41255749 10.9741695,8.28394596 10.7202656,8.0508113 C10.602228,7.93295572 10.5107417,7.79073998 10.4520537,7.63387503 C10.2214252,7.84054208 9.91810324,7.94448766 9.61068525,7.92220409 L9.57477319,7.56210391 C10.0750796,7.56210391 10.306969,7.30986783 10.3718159,6.81390035 M12.5402892,7.07298165 C12.5402892,6.38845941 12.1709079,6.07357918 11.6484386,6.07357918 C11.1842495,6.07357918 10.8294383,6.31025793 10.7711581,6.82779823 L10.7565881,6.93628463 C10.7502772,6.98155525 10.7477373,7.02728149 10.7489952,7.07298165 C10.7489952,7.75605188 11.0978553,8.05101873 11.6123214,8.05101873 L11.6484386,8.05101873 C12.294035,8.05101873 12.5402892,7.76393425 12.5402892,7.07298165" id="Path_37" fill="#375D1B" fill-rule="nonzero"></path>
                            <path d="M14.0365277,7.6122279 L14,7.25171285 L16.9878841,7.25171285 L16.9076463,6.61158084 C16.7701544,5.66237666 16.2187502,4.86293766 15.3480365,4.86293766 L15.3334664,4.86293766 C15.0022803,4.84145823 14.671557,4.91151633 14.3767689,5.06559773 L14.5867006,4.64036421 C14.8315245,4.54227645 15.0922801,4.49113705 15.3556293,4.48956189 C16.3847666,4.48956189 17.1034184,5.33069452 17.2768224,6.56200484 L17.3642426,7.25171285 L18.1694938,7.25171285 C18.7420348,7.25171285 18.9519665,6.89223496 18.9519665,6.20937217 L18.9519665,3.05766581 L19.3367386,3 L19.3367386,6.32366664 C19.3367386,7.16625129 18.9595593,7.6122279 18.1694938,7.6122279 L14.0365277,7.6122279 Z M15.4935316,8.38158942 L15.8780986,8.38158942 L15.8780986,9.07295688 L15.4935316,9.07295688 L15.4935316,8.38158942 Z" id="Path_38" fill="#375D1B" fill-rule="nonzero"></path>
                            <polygon id="Path_39" fill="#375D1B" fill-rule="nonzero" points="20.0475533 7.92220409 20.0475533 3.36764201 20.4390975 3.30997619 20.4390975 7.92220409"></polygon>
                            <path d="M21.7867235,9.0303004 C21.8735281,9.03693819 21.9535607,9.03693819 22.0329777,9.03693819 C22.8802973,9.03693819 23.2217698,8.60485946 23.2217698,7.82097777 C23.0317108,7.88317381 22.8337544,7.91726857 22.6340431,7.92220409 C21.9744923,7.92220409 21.4380686,7.50485296 21.4380686,6.61310716 C21.4380686,5.69895882 22.0255901,5.29654271 22.6851408,5.29654271 C22.997326,5.29437975 23.3080182,5.34026351 23.6065419,5.43261744 L23.6065419,7.85748563 C23.6065419,8.86414819 23.1208055,9.38293307 22.069095,9.38293307 L21.9527399,9.38293307 L21.7867235,9.0303004 Z M23.2232062,5.7275843 C23.0557248,5.66660888 22.8791594,5.63503904 22.7011474,5.63424035 C22.2660983,5.63424035 21.8164792,5.92153226 21.8164792,6.60501735 C21.8164792,7.29596996 22.2223882,7.56210391 22.6646197,7.56210391 C22.8563703,7.554232 23.0453388,7.51297004 23.2232062,7.44013449 L23.2232062,5.7275843 Z" id="Path_40" fill="#375D1B" fill-rule="nonzero"></path>
                            <path d="M27.9701661,7.34658312 C27.7633542,7.41133543 27.5482526,7.4450224 27.3317521,7.44656485 C26.6286964,7.44656485 26.1425496,7.11591986 26.1425496,6.17397577 C26.1425496,5.22331958 26.7011362,4.84268372 27.3824395,4.84268372 C27.7118649,4.84115021 28.0396622,4.88946365 28.3549383,4.98601853 L28.3549383,7.56168905 L29.1813263,7.56168905 L29.2168279,7.92220409 L27.9701661,7.92220409 L27.9701661,7.34658312 Z M27.9701661,5.30276564 C27.7787545,5.25059473 27.5804551,5.22896863 27.3824395,5.23866947 C26.9186607,5.23866947 26.5492795,5.46165778 26.5492795,6.17397577 C26.5492795,6.87198103 26.8679734,7.05161626 27.3389345,7.05161626 C27.5525628,7.04924972 27.7648949,7.01771137 27.9701661,6.95785745 L27.9701661,5.30276564 Z M26.7955336,3.5978904 L27.1443937,3.5978904 L27.1443937,4.28096062 L26.7955336,4.28096062 L26.7955336,3.5978904 Z M27.5784167,3.5978904 L27.9272768,3.5978904 L27.9272768,4.28096062 L27.5784167,4.28096062 L27.5784167,3.5978904 Z" id="Path_41" fill="#375D1B" fill-rule="nonzero"></path>
                            <polygon id="Path_42" fill="#375D1B" fill-rule="nonzero" points="29.1427465 7.56210391 30.2523268 7.56210391 30.2888545 7.92137437 29.179069 7.92137437"></polygon>
                            <path d="M32.3042398,7.92220409 C31.8837553,7.92425273 31.4703888,7.81252406 31.107034,7.59861176 C30.8848318,7.82680117 30.5748433,7.94507156 30.2588936,7.92220409 L30.2517111,7.92220409 L30.2151834,7.56168905 L30.2227763,7.56168905 C30.8096821,7.56168905 31.027617,7.20905637 31.027617,6.51934836 L31.027617,4.85678903 L31.4115684,4.79953808 L31.4115684,6.63364283 C31.4155378,6.8550867 31.3762778,7.07514914 31.2960341,7.28124236 C31.5878941,7.46408209 31.924345,7.56118889 32.2677121,7.56168905 L32.3042398,7.56168905 L32.3403571,7.92220409 L32.3042398,7.92220409 Z M31.027617,3.34669148 L31.4115684,3.34669148 L31.4115684,4.03702179 L31.027617,4.03702179 L31.027617,3.34669148 Z" id="Path_43" fill="#375D1B" fill-rule="nonzero"></path>
                            <path d="M35.9124793,1.94362831 L35.8541991,2.00170898 C35.8176714,2.03800941 35.7528245,2.11662575 35.6362641,2.224075 C35.4926159,2.36927669 35.40458,2.41843783 35.2960229,2.41843783 C35.2468136,2.41821352 35.1978887,2.41087924 35.150733,2.39665757 L35.1302118,2.38960492 C35.2760785,2.31658087 35.4105003,2.22222289 35.5291436,2.10957309 C35.6087658,2.03033446 35.6957756,1.95109582 35.7825802,1.87164976 C35.7684533,1.86921919 35.7556078,1.86188337 35.7462577,1.85090666 C35.7063031,1.8189803 35.6697799,1.78289642 35.6372902,1.74324998 C35.5898403,1.69574545 35.5636688,1.63069587 35.5648504,1.56319989 C35.5671359,1.43394442 35.6482524,1.31958266 35.7686258,1.27590797 C35.8189954,1.24527176 35.8761236,1.22780539 35.9348473,1.22508738 C35.989149,1.22386933 36.0414274,1.24592217 36.0787638,1.28579636 C36.1161003,1.32567055 36.1350116,1.37964622 36.1308246,1.43438525 C36.127918,1.46114218 36.1229784,1.48763329 36.1160494,1.51362388 C36.101202,1.5723231 36.0819943,1.62980634 36.0585901,1.68558417 L36.0364272,1.75030263 C36.0651568,1.80755358 36.1817172,1.86604912 36.1817172,1.87227205 C36.1743295,1.98013616 36.1597595,2.05294444 36.1597595,2.08862257 C36.1308246,2.06787947 36.0729549,2.0386317 36.0146747,2.00233128 C35.9857399,1.98801854 35.9496226,1.96644572 35.9135053,1.9442506 M36.1669419,2.58521234 L36.1669419,2.90797495 C36.1669419,3.03035923 36.1232318,3.13884563 36.0074923,3.13884563 C35.9338002,3.13833615 35.8643336,3.10399048 35.8186974,3.04550169 C35.8270852,3.00514606 35.8319605,2.96412546 35.8332675,2.92290998 L35.8332675,2.62835798 L35.6738179,2.67191849 L35.6738179,2.91606476 C35.6738179,3.08885476 35.6307234,3.18966622 35.4930263,3.18966622 C35.3475311,3.18966622 35.297049,3.0743346 35.297049,2.90154459 L35.297049,2.63499577 L35.137189,2.66362125 L35.137189,2.96605562 C35.137189,3.2029418 35.2397949,3.37573181 35.4930263,3.37573181 C35.608042,3.37667445 35.7151601,3.31671323 35.7753978,3.2176694 C35.836201,3.28065963 35.9204827,3.31478208 36.0074923,3.31163564 C36.2465641,3.31163564 36.3270071,3.12494776 36.3270071,2.91606476 L36.3270071,2.53480661 L36.1669419,2.58521234 Z M35.9280754,1.68558417 C35.9348473,1.67147886 35.9348473,1.65675126 35.9424402,1.63455614 C35.9509308,1.59919317 35.9558808,1.56305656 35.9572154,1.52669203 C35.9616964,1.49141278 35.9506122,1.45592554 35.9269027,1.42964291 C35.9031932,1.40336029 35.8692544,1.38893838 35.8340883,1.39020245 C35.7694466,1.39020245 35.7331241,1.4267103 35.7331241,1.46197357 C35.7349228,1.4808233 35.7420463,1.49875256 35.7536453,1.51362388 C35.7822655,1.5604572 35.8192919,1.60147191 35.862818,1.63455614 C35.8860318,1.64947352 35.9078111,1.66655759 35.9278701,1.68558417" id="Path_44" fill="#375D1B" fill-rule="nonzero"></path>
                            <path d="M32.2517056,7.56210391 L32.8611847,7.56210391 C33.4485009,7.56210391 33.6668463,7.20947124 33.6668463,6.5189335 L33.6668463,5.34570386 L34.0505924,5.28886777 L34.0505924,6.63426512 C34.0600814,6.85596029 34.0204691,7.07699916 33.9346477,7.28124236 C33.931807,7.29420287 33.9268851,7.30660551 33.9200777,7.31795764 C33.91269,7.34658312 33.8837552,7.38184638 33.8761623,7.41130158 C33.9510074,7.44155918 34.0290084,7.46313179 34.1086673,7.47560519 L34.1954719,7.49759287 C34.4586664,7.54513707 34.7258054,7.56674208 34.9931303,7.56210391 C35.5806517,7.56210391 35.7983815,7.20947124 35.7983815,6.5189335 L35.7983815,5.04368435 L36.1895152,4.9797956 L36.1895152,6.63426512 C36.1985628,6.85665011 36.1564141,7.07812219 36.0663881,7.28124236 C36.360794,7.46382835 36.699232,7.56099648 37.0446329,7.56210391 C37.6465191,7.56210391 37.8568613,7.21756105 37.8568613,6.5189335 L37.8568613,4.85720389 L38.2488158,4.79891579 L38.2488158,6.63426512 C38.2483202,6.85698408 38.2115041,7.07809697 38.1398484,7.28870987 C38.4362085,7.46672797 38.774381,7.56113938 39.1191192,7.56210391 L39.154826,7.56210391 L39.1911485,7.92137437 L39.1478488,7.92137437 C38.7273295,7.92403594 38.3138095,7.81257148 37.9504379,7.59861176 C37.7199707,7.82777969 37.4029581,7.94540313 37.0805449,7.92137437 C36.6581204,7.92320545 36.2427619,7.81183708 35.8767724,7.59861176 C35.6560435,7.8290044 35.3448729,7.94742139 35.0286319,7.92137437 C34.6536485,7.91745171 34.2797916,7.87912714 33.911664,7.80687247 C33.8615923,7.79919752 33.8104946,7.79255973 33.7739669,7.78446992 C33.7237902,7.77421796 33.6751067,7.75755905 33.6290873,7.73489392 C33.4107165,7.86791049 33.1583759,7.93285038 32.9036635,7.9215818 L32.2880281,7.9215818 L32.2517056,7.56210391 Z" id="Path_45" fill="#375D1B" fill-rule="nonzero"></path>
                            <polygon id="Path_46" fill="#375D1B" fill-rule="nonzero" points="39.1148097 7.56210391 40.2243901 7.56210391 40.2609178 7.92137437 39.1513374 7.92137437"></polygon>
                            <path d="M40.1872467,7.56210391 C40.789133,7.56210391 40.9996803,7.21756105 40.9996803,6.5189335 L40.9996803,3.36598256 L41.3912245,3.30893904 L41.3912245,6.63322797 C41.3912245,7.47456803 41.0142504,7.91930006 40.2237744,7.91930006 L40.1872467,7.56210391 Z" id="Path_47" fill="#375D1B" fill-rule="nonzero"></path>
                            <polygon id="Path_48" fill="#375D1B" fill-rule="nonzero" points="42.3337624 7.92220409 42.3337624 3.36764201 42.7248961 3.30997619 42.7248961 7.92220409"></polygon>
                            <path d="M48.4162408,8.69115075 C47.8731145,8.80941141 47.3188338,8.86735168 46.7632595,8.86394076 C45.7113437,8.86394076 45.218425,8.35386797 45.218425,7.32397314 L45.218425,5.21647435 L45.6027867,4.79808606 L45.6027867,7.27315255 C45.6027867,8.10868455 45.9516468,8.51773845 46.7930153,8.51773845 C47.2056279,8.51503093 47.6173649,8.47896117 48.0242862,8.40987433 L48.0242862,3.36701971 L48.4162408,3.30997619 L48.4162408,7.28124236 C48.7080244,7.46447754 49.0446154,7.56174796 49.388124,7.56210391 L49.4246517,7.56210391 L49.4601533,7.92220409 L49.4170588,7.92220409 C49.0720746,7.92219373 48.7309973,7.84839111 48.4162408,7.70564615 L48.4162408,8.69115075 Z" id="Path_49" fill="#375D1B" fill-rule="nonzero"></path>
                            <path d="M50.3567238,7.22419884 C50.3567238,6.36128595 50.7989552,6.1152728 51.2337991,6.1152728 C51.6686429,6.1152728 52.1034868,6.36128595 52.1034868,7.22419884 L52.1034868,7.56210391 L53.0474612,7.56210391 L53.0474612,6.66330546 C53.0474612,5.73422209 52.430184,5.10923254 51.6397081,5.10923254 C51.3238813,5.09654207 51.0092524,5.15551289 50.7189226,5.28181511 L50.6325284,4.9362351 C50.9559144,4.80837323 51.3000559,4.74259931 51.6473009,4.74228713 C52.5894284,4.74228713 53.4385949,5.37557392 53.4385949,6.61310716 L53.4385949,7.92220409 L49.4207526,7.92220409 L49.3848406,7.56210391 L50.3567238,7.56210391 L50.3567238,7.22419884 Z M51.2337991,6.48221821 C50.7696099,6.48221821 50.7263102,6.87198103 50.7263102,7.22419884 L50.7263102,7.56210391 L51.7195355,7.56210391 L51.7195355,7.22419884 C51.7195355,6.89230926 51.6688481,6.48221821 51.2337991,6.48221821" id="Path_50" fill="#375D1B" fill-rule="nonzero"></path>
                            <path d="M53.9072987,2.58998325 L54.1621718,2.58998325 C54.1016671,2.47277902 54.0717208,2.34191807 54.075162,2.20976226 C54.0595737,2.05221801 54.1118448,1.8955166 54.2186255,1.77967868 C54.3254061,1.66384076 54.4763576,1.60008202 54.6329277,1.60468608 C54.8320834,1.60386565 55.020126,1.69736838 55.1410322,1.85733702 L54.9746054,2.0506627 C54.8850942,1.94967789 54.7648895,1.88166449 54.6329277,1.85733702 C54.4669113,1.85733702 54.3433738,1.97163149 54.3433738,2.20996969 C54.3433738,2.4617909 54.4379765,2.59019068 54.6329277,2.59019068 L55.1847423,2.59019068 L55.0529963,2.84221933 L53.784582,2.84221933 L53.9072987,2.58998325 Z M54.3567126,7.92220409 L54.3567126,3.36764201 L54.7480515,3.30997619 L54.7480515,7.92220409 L54.3567126,7.92220409 Z" id="Path_51" fill="#375D1B" fill-rule="nonzero"></path>
                            <path d="M61.6212111,7.56168905 L61.6573284,7.92220409 L61.3240644,7.92220409 C60.6497383,7.92220409 60.1857544,7.56957142 60.1053114,6.99415788 L58.2641509,6.99415788 C58.1475906,6.99415788 57.6405122,7.03688866 57.6405122,7.78446992 L57.6405122,7.8070799 C57.6405122,8.63452209 57.9811638,9.0222106 58.8149394,9.0222106 C59.2256833,9.02245125 59.6356691,8.98656868 60.0402592,8.91496878 L60.4389858,9.20993563 C59.8941752,9.31715597 59.3409904,9.3750511 58.7860046,9.38293307 C57.7562516,9.38293307 57.2417856,8.87887579 57.2417856,7.87864359 L57.2417856,7.84296546 C57.2417856,6.84895619 57.9085188,6.66994325 58.1549782,6.63364283 L60.0041419,6.63364283 C59.8157575,5.85722866 59.2653794,5.22311215 58.5177927,5.22311215 L58.5028122,5.22311215 C58.1711112,5.20400526 57.8405065,5.27634758 57.5463199,5.43241001 L57.7562516,5.00779879 C58.0116192,4.91188872 58.2813106,4.86074844 58.5537048,4.8565816 C59.5549333,4.8565816 60.2655818,5.64876052 60.4389858,6.87841139 C60.4572969,7.08195379 60.5562619,7.26936041 60.7133742,7.39801129 C60.8704866,7.52666217 61.0723915,7.5856218 61.2731718,7.56148161 L61.6212111,7.56168905 Z M59.1847311,7.58409159 L58.800985,7.58409159 L58.800985,8.28209685 L59.1847311,8.28209685 L59.1847311,7.58409159 Z" id="Path_52" fill="#375D1B" fill-rule="nonzero"></path>
                            <polygon id="Path_53" fill="#375D1B" fill-rule="nonzero" points="61.5824261 7.56210391 62.6920064 7.56210391 62.7277132 7.92137437 61.6195694 7.92137437"></polygon>
                            <path d="M63.6269514,7.22419884 C63.6269514,6.36128595 64.0691829,6.1152728 64.5040268,6.1152728 C64.9388706,6.1152728 65.3737145,6.36128595 65.3737145,7.22419884 L65.3737145,7.56210391 L66.3176888,7.56210391 L66.3176888,6.66330546 C66.3176888,5.73422209 65.7004117,5.10923254 64.9099357,5.10923254 C64.5941115,5.09657732 64.2794903,5.1555467 63.9891503,5.28181511 L63.9027561,4.9362351 C64.2261474,4.80839196 64.5702854,4.74261872 64.9175286,4.74228713 C65.8598613,4.74228713 66.7088226,5.37557392 66.7088226,6.61310716 L66.7088226,7.56210391 L67.6802953,7.56210391 L67.7162074,7.92220409 L62.6907751,7.92220409 L62.6550682,7.56210391 L63.6269514,7.56210391 L63.6269514,7.22419884 Z M64.5048476,6.48180335 C64.0406585,6.48180335 63.9973588,6.87156617 63.9973588,7.22378397 L63.9973588,7.56168905 L64.990584,7.56168905 L64.990584,7.22378397 C64.990584,6.8918944 64.9398967,6.48180335 64.5048476,6.48180335" id="Path_54" fill="#375D1B" fill-rule="nonzero"></path>
                            <polygon id="Path_55" fill="#375D1B" fill-rule="nonzero" points="67.6415103 7.56210391 68.7506802 7.56210391 68.7867975 7.92137437 67.6774224 7.92137437"></polygon>
                            <path d="M70.8025932,7.92220409 C70.3822387,7.92424931 69.9690054,7.81251832 69.6057979,7.59861176 C69.3835647,7.82675308 69.073599,7.94501478 68.7576574,7.92220409 L68.7498594,7.92220409 L68.7141525,7.56168905 L68.7211297,7.56168905 C69.3084459,7.56168905 69.5265861,7.20905637 69.5265861,6.51934836 L69.5265861,4.85678903 L69.9105374,4.79953808 L69.9105374,6.63364283 C69.9143699,6.85515226 69.8748262,7.07524096 69.7941823,7.28124236 C70.0860424,7.46408209 70.4224932,7.56118889 70.7658603,7.56168905 L70.8025932,7.56168905 L70.8383001,7.92220409 L70.8025932,7.92220409 Z M69.5265861,3.34669148 L69.9105374,3.34669148 L69.9105374,4.03702179 L69.5265861,4.03702179 L69.5265861,3.34669148 Z" id="Path_56" fill="#375D1B" fill-rule="nonzero"></path>
                            <path d="M70.7638082,7.56210391 L71.8799553,7.56210391 C71.6232532,7.29945386 71.4912243,6.93757103 71.5177564,6.56933922 C71.5177564,5.66328069 72.0687501,5.24530726 72.8083336,5.24530726 C73.6860245,5.24530726 74.0919335,5.80682293 74.0919335,6.56933922 C74.0919335,7.51211304 73.6494968,7.92220409 72.8083336,7.92220409 L70.7999255,7.92220409 L70.7638082,7.56210391 Z M73.6930017,6.59091205 C73.6930017,5.90742696 73.3308029,5.58321233 72.8083336,5.58321233 C72.2790923,5.58321233 71.9093006,5.90742696 71.9093006,6.59091205 C71.9093006,7.26029183 72.2581607,7.56210391 72.7711902,7.56210391 L72.8073075,7.56210391 C73.4455163,7.56210391 73.6919757,7.28124236 73.6919757,6.59091205" id="Path_57" fill="#375D1B" fill-rule="nonzero"></path>
                            <path d="M79.3845516,7.74256886 C78.8215389,7.85994597 78.24794,7.91757854 77.673085,7.91452915 C76.6213744,7.91452915 76.1286608,7.40362664 76.1286608,6.37456153 L76.1286608,5.3888495 L76.5273874,4.97917331 L76.5273874,6.31772544 C76.5273874,7.15263515 76.8678338,7.55525869 77.7016094,7.55525869 C78.1102544,7.55584081 78.5181315,7.51946452 78.9203625,7.44656485 C78.2532188,4.73502704 78.4128736,5.50501085 78.3252482,5.1303905 L78.2378279,4.79269286 L78.7816393,4.79269286 C79.55734,4.79269286 79.9345193,5.10923254 80.1089493,5.85660637 L80.3845488,7.05161626 C80.4789462,7.51895826 80.8048226,7.56168905 81.0949921,7.56168905 L81.1097674,7.56168905 L81.1458847,7.92220409 L81.1380866,7.92220409 C80.7391548,7.92220409 80.1813891,7.901461 80.0069591,7.14516763 L79.7824573,6.12357004 C79.6082325,5.36769154 79.4559653,5.13806544 78.9706394,5.13806544 L78.7449063,5.13806544 L79.3845516,7.74256886 Z" id="Path_58" fill="#375D1B" fill-rule="nonzero"></path>
                            <polygon id="Path_59" fill="#375D1B" fill-rule="nonzero" points="81.0707771 7.56210391 82.1807679 7.56210391 82.2162695 7.92137437 81.1081257 7.92137437"></polygon>
                            <path d="M84.23186,7.92220409 C83.8115056,7.92424931 83.3982723,7.81251832 83.0350647,7.59861176 C82.8127852,7.82668102 82.5028535,7.94492971 82.1869242,7.92220409 L82.1793314,7.92220409 L82.1430089,7.56210391 L82.1499861,7.56210391 C82.7377128,7.56210391 82.9556477,7.20947124 82.9556477,6.51934836 L82.9556477,3.36764201 L83.3393938,3.30997619 L83.3393938,6.63364283 C83.3433136,6.85512098 83.3039111,7.07520022 83.2234492,7.28124236 C83.5153602,7.46453149 83.8520978,7.56180319 84.1957428,7.56210391 L84.23186,7.56210391 L84.2683877,7.92220409 L84.23186,7.92220409 Z" id="Path_60" fill="#375D1B" fill-rule="nonzero"></path>
                            <path d="M84.1945115,7.56210391 L85.0789744,7.56210391 C84.817945,7.3036449 84.6654726,6.9006065 84.6654726,6.31751801 C84.6654726,5.2094217 85.2747465,4.70557184 86.0797925,4.70557184 C86.5359743,4.66500586 86.9692647,4.9144869 87.1674152,5.33180598 L86.921161,5.54774163 C86.7255941,5.15880854 86.4573823,5.07272468 86.0797925,5.07272468 C85.464157,5.07272468 85.0861569,5.45439769 85.0861569,6.31731058 C85.0861569,7.10160713 85.398284,7.56189648 86.116115,7.56189648 L87.2474478,7.56189648 L87.2833598,7.92116694 L84.230834,7.92116694 L84.1945115,7.56210391 Z" id="Path_61" fill="#375D1B" fill-rule="nonzero"></path>
                            <path d="M93.3869751,7.56168905 L93.9086235,7.56168905 L93.9451512,7.92220409 L93.3869751,7.92220409 L93.3869751,8.69156561 C93.2488675,8.69861826 93.1037827,8.73491868 92.951926,8.74217877 C92.4855312,8.81144296 92.015696,8.85451642 91.5445833,8.87120084 C90.5585405,8.87120084 89.7032176,8.57644141 89.7032176,7.32501029 L89.7032176,5.94248279 L90.0873742,5.53363633 L90.0873742,7.26672219 C90.0873742,8.28126712 90.7475406,8.52541339 91.5162641,8.52541339 C92.014125,8.5172797 92.5108312,8.47430785 93.0028185,8.39680618 L93.0028185,7.92199666 C92.1905901,7.92199666 91.4360263,7.59840433 91.1823844,6.75602711 C90.6964429,5.00779879 93.3793822,4.54004192 93.3869751,6.36190824 L93.3869751,7.56168905 Z M93.0028185,6.33162332 C92.7992484,5.04555122 91.2330718,5.51185607 91.5523814,6.65500822 C91.733173,7.28124236 92.1612448,7.56168905 93.0028185,7.56168905 L93.0028185,6.33162332 Z M91.6679156,3.73458741 L92.0237529,3.73458741 L92.0237529,4.41765764 L91.6681208,4.41765764 L91.6679156,3.73458741 Z M92.4510039,3.73458741 L92.799864,3.73458741 L92.799864,4.41765764 L92.4510039,4.41765764 L92.4510039,3.73458741 Z" id="Path_62" fill="#375D1B" fill-rule="nonzero"></path>
                            <polygon id="Path_63" fill="#375D1B" fill-rule="nonzero" points="93.8696333 7.56210391 94.9800344 7.56210391 95.0153309 7.92137437 93.907187 7.92137437"></polygon>
                            <path d="M95.1234775,0.381673008 L95.1306599,0.186687884 L96.4869048,0 L96.479312,0.186687884 L95.1234775,0.381673008 Z M96.3996898,0.504057288 L96.3996898,0.891745795 C96.3996898,1.10062879 96.3202728,1.28752411 96.0803802,1.28752411 C95.9934681,1.29057181 95.9092752,1.25663581 95.8482856,1.19397274 C95.7850942,1.28908898 95.6790561,1.34598957 95.565709,1.34560672 C95.3118619,1.34560672 95.2108977,1.18671265 95.2108977,0.935306301 L95.2108977,0.639717151 L95.3699369,0.611299106 L95.3699369,0.877018195 C95.3699369,1.05001563 95.4210346,1.16576212 95.565709,1.16576212 C95.7032009,1.16576212 95.7467058,1.05727572 95.7467058,0.891745795 L95.7467058,0.64801439 L95.906771,0.604453884 L95.906771,0.891745795 C95.9059715,0.932930139 95.9010904,0.973929799 95.892201,1.01413007 C95.9366838,1.07469215 96.0058258,1.11173293 96.0803802,1.11494153 C96.1965301,1.11494153 96.240035,1.0002322 96.240035,0.885315434 L96.240035,0.561308239 L96.3996898,0.504057288 Z" id="Path_64" fill="#375D1B" fill-rule="nonzero"></path>
                            <path d="M94.9426859,7.56168905 C95.5445721,7.56168905 95.7547091,7.21652389 95.7547091,6.51934836 L95.7547091,4.85678903 L96.1464584,4.79953808 L96.1464584,6.63364283 C96.1464584,7.47622748 95.7690739,7.92220409 94.9788032,7.92220409 L94.9426859,7.56168905 Z M95.01451,3.36058935 L95.3633701,3.36058935 L95.3633701,4.03702179 L95.01451,4.03702179 L95.01451,3.36058935 Z M95.399077,2.42507562 L95.7479371,2.42507562 L95.7479371,2.98659129 L95.399077,2.98659129 L95.399077,2.42507562 Z M95.798214,3.36058935 L96.1470741,3.36058935 L96.1470741,4.03702179 L95.798214,4.03702179 L95.798214,3.36058935 Z" id="Path_65" fill="#375D1B" fill-rule="nonzero"></path>
                            <path d="M97.3194492,9.0303004 C97.4070746,9.03652333 97.4864916,9.03652333 97.5657034,9.03652333 C98.3777266,9.03652333 98.7111958,8.64053759 98.7477235,7.92220409 L98.1675897,7.92220409 C97.5074232,7.92220409 96.9709995,7.50485296 96.9709995,6.61310716 C96.9709995,5.69895882 97.5583158,5.29654271 98.2184822,5.29654271 C98.5304954,5.29394173 98.8410502,5.33983587 99.1392676,5.43261744 L99.1392676,7.56210391 L99.6034568,7.56210391 L99.6393688,7.92220409 L99.1392676,7.92220409 C99.1101276,8.87887579 98.624186,9.38189592 97.6018207,9.38189592 L97.4856708,9.38189592 L97.3194492,9.0303004 Z M97.3487945,6.60543221 C97.3487945,7.29596996 97.7553191,7.56210391 98.1975506,7.56210391 L98.7547007,7.56210391 L98.7547007,5.7275843 C98.5872128,5.66685368 98.41078,5.63515489 98.232847,5.63382549 C97.7980032,5.63382549 97.3481788,5.92215456 97.3481788,6.60543221" id="Path_66" fill="#375D1B" fill-rule="nonzero"></path>
                            <polygon id="Path_67" fill="#375D1B" fill-rule="nonzero" points="99.5663134 7.56210391 100.676304 7.56210391 100.711806 7.92137437 99.603662 7.92137437"></polygon>
                            <path d="M100.639366,7.56210391 L101.755513,7.56210391 C101.498759,7.29947511 101.366658,6.93759868 101.393109,6.56933922 C101.393109,5.66328069 101.943898,5.24530726 102.683481,5.24530726 C103.561582,5.24530726 103.967697,5.80682293 103.967697,6.56933922 C103.967697,7.51211304 103.52526,7.92220409 102.683481,7.92220409 L100.675278,7.92220409 L100.639366,7.56210391 Z M103.568354,6.59091205 C103.568354,5.90742696 103.20595,5.58321233 102.683481,5.58321233 C102.15465,5.58321233 101.784653,5.90742696 101.784653,6.59091205 C101.784653,7.26029183 102.133513,7.56210391 102.647774,7.56210391 L102.683481,7.56210391 C103.3221,7.56210391 103.568354,7.28124236 103.568354,6.59091205" id="Path_68" fill="#375D1B" fill-rule="nonzero"></path>
                            <path d="M109.258057,7.74256886 C108.695232,7.86026631 108.121735,7.91790239 107.547001,7.91452915 C106.495496,7.91452915 106.002372,7.40362664 106.002372,6.37559869 L106.002372,5.38926436 L106.401098,4.97917331 L106.401098,6.31731058 C106.401098,7.15263515 106.74175,7.55525869 107.575936,7.55525869 C107.984394,7.55623537 108.392101,7.5198558 108.794073,7.44656485 C108.12693,4.73502704 108.286585,5.50418113 108.198959,5.1303905 L108.111539,4.79186313 L108.655555,4.79186313 C109.431256,4.79186313 109.808025,5.10861024 109.98266,5.85722866 L110.258055,7.05161626 C110.352657,7.51895826 110.679149,7.56168905 110.968703,7.56168905 L110.983478,7.56168905 L111.019801,7.92220409 L111.012208,7.92220409 C110.613071,7.92220409 110.055305,7.901461 109.88108,7.14433791 L109.655347,6.12336261 C109.481123,5.36789897 109.328855,5.13723572 108.843119,5.13723572 L108.617386,5.13723572 L109.258057,7.74256886 Z M107.597073,8.70629321 L107.243288,8.70629321 L107.243288,9.38894857 L107.597073,9.38894857 L107.597073,8.70629321 Z M108.373389,8.70629321 L108.024529,8.70629321 L108.024529,9.38894857 L108.373389,9.38894857 L108.373389,8.70629321 Z" id="Path_69" fill="#375D1B" fill-rule="nonzero"></path>
                            <path d="M111.742146,6.81369292 C111.836544,6.0656968 112.344033,5.72737686 113.018359,5.72737686 C113.895639,5.72737686 114.309757,6.28744052 114.309757,7.05866891 C114.310532,7.15731268 114.303671,7.25586658 114.289236,7.35342834 C114.554025,7.49010197 114.847039,7.56153558 115.144353,7.56189648 L115.180265,7.56189648 L115.216588,7.92199666 L115.171646,7.92199666 C114.837551,7.92170915 114.506963,7.85312681 114.199763,7.72037375 C114.026154,8.18813061 113.627017,8.41133471 113.017948,8.41133471 C112.674875,8.41252882 112.343774,8.28392462 112.089775,8.0508113 C111.972276,7.93271723 111.881292,7.79044951 111.823,7.6336676 C111.592348,7.84029319 111.289043,7.94423267 110.981631,7.92199666 L110.945925,7.56189648 C111.445615,7.56189648 111.67771,7.3096604 111.742967,6.81369292 M113.911441,7.07277422 C113.911441,6.38825198 113.542059,6.07337174 113.01918,6.07337174 C112.55499,6.07337174 112.200384,6.3100505 112.14272,6.8275908 L112.127534,6.9360772 C112.121224,6.98134791 112.118685,7.02707407 112.119941,7.07277422 C112.119941,7.75584445 112.468802,8.0508113 112.983268,8.0508113 L113.01918,8.0508113 C113.664571,8.0508113 113.911441,7.76372682 113.911441,7.07277422" id="Path_70" fill="#375D1B" fill-rule="nonzero"></path>
                            <path d="M117.229716,7.92220409 C116.809361,7.92424931 116.396128,7.81251832 116.03292,7.59861176 C115.810656,7.82670503 115.500713,7.94495805 115.18478,7.92220409 L115.177187,7.92220409 L115.141275,7.56210391 L115.148047,7.56210391 C115.735569,7.56210391 115.953503,7.20947124 115.953503,6.51934836 L115.953503,3.36764201 L116.337455,3.30997619 L116.337455,6.63364283 C116.34117,6.85510426 116.301775,7.07514352 116.22151,7.28124236 C116.513243,7.46442013 116.849752,7.56168739 117.193188,7.56210391 L117.229716,7.56210391 L117.265628,7.92220409 L117.229716,7.92220409 Z" id="Path_71" fill="#375D1B" fill-rule="nonzero"></path>
                            <path d="M117.192572,7.56210391 L118.07683,7.56210391 C117.816416,7.3036449 117.663739,6.9006065 117.663739,6.31751801 C117.663739,5.2094217 118.272807,4.70557184 119.077443,4.70557184 C119.533612,4.66506706 119.96687,4.91452962 120.165066,5.33180598 L119.918812,5.54774163 C119.723655,5.15880854 119.454828,5.07272468 119.077443,5.07272468 C118.461808,5.07272468 118.084013,5.45439769 118.084013,6.31731058 C118.084013,7.10160713 118.39614,7.56189648 119.113971,7.56189648 L120.245098,7.56189648 L120.281421,7.92116694 L117.22869,7.92116694 L117.192572,7.56210391 Z" id="Path_72" fill="#375D1B" fill-rule="nonzero"></path>
                            <path d="M123.723028,6.99415788 C123.606878,6.99415788 123.099184,7.03564407 123.099184,7.78446992 L123.099184,7.80687247 C123.099184,8.6338998 123.439836,9.02262546 124.274022,9.02262546 C124.684845,9.02270239 125.094896,8.98668124 125.499547,8.91496878 L125.898479,9.20931334 C125.353522,9.31703292 124.800107,9.37513885 124.244882,9.38293307 C123.215539,9.38293307 122.700458,8.87887579 122.700458,7.87802129 L122.700458,7.84296546 C122.700458,6.84999334 123.367601,6.66994325 123.613856,6.63426512 C123.353442,6.52619358 123.1431,6.23848681 123.1431,5.69169874 C123.1431,4.59086251 123.751553,4.3390413 124.549416,4.3390413 C125.01971,4.31306808 125.456404,4.58539589 125.644427,5.02190409 L125.398172,5.23804718 C125.261185,4.89446896 124.922669,4.67747904 124.556804,4.69872662 C123.941168,4.69872662 123.563373,4.84392831 123.563373,5.6921136 C123.563373,6.46832034 123.853338,6.63467998 124.534846,6.63467998 L125.534843,6.63467998 L125.637449,6.99457274 L125.08584,6.99457274 C125.08584,7.51999542 125.470202,7.56251877 125.934186,7.56251877 L126.253085,7.56251877 L126.288997,7.92178923 L126.245902,7.92178923 C125.455221,7.92178923 124.694296,7.87843616 124.672133,6.99457274 L123.723028,6.99415788 Z" id="Path_73" fill="#375D1B" fill-rule="nonzero"></path>
                            <path d="M129.630461,7.92220409 L126.251443,7.92220409 L126.215531,7.56168905 L129.2028,7.56168905 L129.123177,6.92155703 C128.98548,5.97235286 128.434076,5.17291385 127.563568,5.17291385 L127.549408,5.17291385 C127.218027,5.15147784 126.887117,5.2215304 126.592095,5.37557392 L126.802232,4.9503404 C127.052473,4.85346422 127.317779,4.80239987 127.58573,4.79953808 C128.607685,4.79953808 129.318949,5.64067071 129.492764,6.87198103 L129.630461,7.92220409 Z M128.093424,8.69156561 L127.710089,8.69156561 L127.710089,9.38293307 L128.094245,9.38293307 L128.093424,8.69156561 Z" id="Path_74" fill="#375D1B" fill-rule="nonzero"></path>
                            <path d="M130.106963,9.0303004 C130.194178,9.03693819 130.25923,9.03693819 130.34624,9.03693819 C131.187608,9.03693819 131.536468,8.62643228 131.536468,7.7923523 L131.536468,5.65581318 L131.920625,5.59835479 L131.920625,7.28186465 C132.21491,7.46594254 132.554233,7.56322196 132.900306,7.5627262 L132.936423,7.5627262 L132.97213,7.92282639 L132.928831,7.92282639 C132.581603,7.92191733 132.238324,7.84832397 131.920625,7.7066833 L131.920625,7.84358775 C131.920625,8.87182313 131.428117,9.38355537 130.376201,9.38355537 L130.266412,9.38355537 L130.106963,9.0303004 Z" id="Path_75" fill="#375D1B" fill-rule="nonzero"></path>
                            <path d="M132.897433,7.56210391 L134.013991,7.56210391 C133.757092,7.29955602 133.624903,6.9376419 133.651381,6.56933922 C133.651381,5.66328069 134.202375,5.24530726 134.941959,5.24530726 C135.82006,5.24530726 136.225764,5.80682293 136.225764,6.56933922 C136.225764,7.51211304 135.783532,7.92220409 134.941959,7.92220409 L132.933756,7.92220409 L132.897433,7.56210391 Z M135.826832,6.59091205 C135.826832,5.90742696 135.464223,5.58321233 134.941959,5.58321233 C134.412717,5.58321233 134.042926,5.90742696 134.042926,6.59091205 C134.042926,7.26029183 134.391786,7.56210391 134.906046,7.56210391 L134.941959,7.56210391 C135.580578,7.56210391 135.826832,7.28124236 135.826832,6.59091205" id="Path_76" fill="#375D1B" fill-rule="nonzero"></path>
                        </g>
                        <rect id="Rectangle_1" fill="#D8BE9B" fill-rule="nonzero" x="0.0710032904" y="41.3702426" width="137.469553" height="1"></rect>
                        <path d="M95.369116,13.6416986 L100.127363,13.6502033 L100.126336,13.8368911 C99.8895221,13.8109623 99.3011798,13.8159406 99.0011601,14.1293688 C98.6861599,14.4606361 98.7337691,15.1443286 98.7325378,15.8566466 L98.7325378,15.8566466 L98.7627039,25.3262858 C98.7581893,25.5082299 98.7554583,26.1900218 98.7538375,26.852996 L98.7530595,27.2096347 C98.7529468,27.2677243 98.7528423,27.324879 98.7527455,27.3807092 L98.752067,27.836896 C98.7520115,27.8812716 98.7519622,27.9231537 98.7519185,27.9621524 L98.7516225,28.2821773 C98.7516225,31.6066737 97.7046318,33.8176806 95.6986862,35.7123551 C94.1017278,37.2205858 92.1987986,38.0355822 89.7717584,38.3882148 L89.7717584,38.3882148 L89.7717584,37.9032412 C90.641966,37.7597584 91.478356,37.4545973 92.2386097,37.0031982 C93.4027757,36.2624965 94.4030723,35.2867626 95.1768326,34.1371243 C97.1690289,31.6199493 96.7569636,27.60533 96.7569636,27.60533 L96.7569636,27.60533 L96.7661981,15.8939842 C96.7703024,15.0242261 96.7559375,14.5826055 96.4468885,14.1853752 C96.253579,13.9362506 95.9443248,13.7964421 95.3711682,13.8256899 L95.3711682,13.8256899 L95.369116,13.6416986 Z M85.616219,13.640454 L90.3744655,13.6499958 L90.3746707,13.8362688 C90.1380615,13.8115846 89.5474619,13.8151109 89.2480578,14.1291614 C88.9330577,14.4600138 88.9812824,15.1439138 88.9812824,15.8566466 L88.9812824,15.8566466 L89.0096017,25.3267007 C89.0029903,25.5417255 89.0001158,26.4548849 88.998866,27.2100496 L88.9980248,27.9625673 C88.9980007,28.0015661 88.9979815,28.0376815 88.9979661,28.0705241 L88.9979046,28.2825922 C88.9979046,31.6070886 87.9507087,33.8174731 85.9453788,35.71277 C84.3478047,37.2207933 82.4459016,38.035997 80.016604,38.3886297 L80.016604,38.3886297 L80.016604,37.9040709 C80.8868711,37.7601839 81.7233793,37.4551261 82.484071,37.0042353 C83.6483058,36.2634629 84.6486692,35.2876613 85.422499,34.137954 C87.4146954,31.619327 87.0042718,27.603878 87.0042718,27.603878 L87.0042718,27.603878 L87.012275,15.8939842 C87.016174,15.0233964 87.0005779,14.5817758 86.6927602,14.184338 C86.5015028,13.935006 86.1908121,13.7954049 85.616219,13.8250676 L85.616219,13.8250676 L85.616219,13.640454 Z M69.9175146,0.124873452 L69.9175146,0.311561336 C69.2618628,0.330230125 68.8692926,0.455518438 68.7383675,0.691989758 C68.5816535,1.05352487 68.5136471,1.44797239 68.5401329,1.8417797 L68.5401329,1.8417797 L68.5401329,24.5930173 C68.5401329,25.1134617 68.6250906,25.4835185 68.7939799,25.7004913 C68.9602015,25.9137304 69.3273254,26.0238762 69.8930944,26.0238762 L69.8930944,26.0238762 L69.8930944,26.7237484 L37.1698121,26.7237484 C36.6259116,29.0035147 34.6078555,30.6099404 32.2878228,30.6099404 C29.9677902,30.6099404 27.9497341,29.0035147 27.4058336,26.7237484 L27.4058336,26.7237484 L0,26.7237484 L0,25.5720916 C0.00410423644,24.4619209 0.0160065221,22.1262481 0.0861889652,21.7889653 C0.765440096,18.4385401 2.89471796,16.7683058 4.59120409,15.7004511 C6.7664494,14.3274654 9.4674474,13.8680058 11.9094681,13.8680058 C14.3387656,13.8680058 16.0752681,14.5797015 17.2289689,15.0362571 C17.2176823,14.6315592 17.1780764,14.3397038 17.0512555,14.1945022 C16.7770925,13.8781699 16.4315158,13.808888 15.8569227,13.8381357 L15.8569227,13.8381357 L15.8554862,13.680903 L20.6164005,13.6879557 L20.6133223,13.8539005 C20.4356089,13.8368911 19.8384425,13.8368911 19.4949179,14.23101 C19.2223966,14.5431936 19.2178819,15.04248 19.2150089,15.7558352 L19.2150089,15.7558352 L19.2355301,25.5706395 L27.2605436,25.5706395 L27.2605436,15.915557 C27.2652635,15.0433097 27.288042,14.4338775 27.0805729,14.1951244 C26.809488,13.8787922 26.4620644,13.8095102 25.8884974,13.838758 L25.8884974,13.838758 L25.8870609,13.6815253 L30.6459231,13.688578 L30.644897,13.8545228 C30.467594,13.8375134 29.8714536,13.8375134 29.5277238,14.2316323 C29.2537661,14.5438159 29.249867,15.0431023 29.2484305,15.7564575 L29.2484305,15.7564575 L29.2689517,26.7229186 C29.2689517,28.5398066 30.4877047,30.0125666 32.2855655,30.0125666 C34.0834263,30.0125666 35.3146972,28.5391843 35.3146972,26.7229186 L35.3146972,26.7229186 L35.3124399,15.9157644 C35.3196223,15.0435172 35.3401435,14.4340849 35.1349317,14.1953319 C34.8613843,13.8789996 34.5158076,13.8097177 33.9412145,13.8389654 L33.9412145,13.8389654 L33.939778,13.6817328 L38.6974089,13.6887854 L38.6974089,13.8547302 C38.5199007,13.8377209 37.9239655,13.8377209 37.581467,14.2318397 C37.3066884,14.5440234 37.3023789,15.0433097 37.3011477,15.7566649 L37.3011477,15.7566649 L37.3202324,25.5714693 L44.0361996,25.5714693 L44.0361996,15.9163867 C44.0433821,15.0441395 44.0639032,14.4347072 43.8586914,14.1959542 C43.5859649,13.8796219 43.2387465,13.81034 42.6641534,13.8395877 L42.6641534,13.8395877 L42.6641534,13.6823551 L47.4223999,13.6894077 L47.4211686,13.8553525 C47.2434552,13.8383432 46.6489566,13.8383432 46.305432,14.232462 C46.0314742,14.5446456 46.0263439,15.043932 46.0242918,15.7572872 L46.0242918,15.7572872 L46.0437869,25.5720916 L50.2631472,25.5720916 L50.2631472,15.917009 C50.2674566,15.0447617 50.2896195,14.4353295 50.0844077,14.1965765 C49.8104499,13.8802442 49.4632315,13.8109623 48.8886384,13.84021 L48.8886384,13.84021 L48.8886384,13.6829773 L53.6491422,13.6887854 L53.6454484,13.8547302 C53.4691715,13.8377209 52.8732363,13.8377209 52.5288909,14.2318397 C52.2563696,14.5440234 52.2506237,15.0433097 52.2506237,15.7566649 L52.2506237,15.7566649 L52.2684771,25.5714693 L56.2085441,25.5714693 L56.207518,15.9163867 C56.2126483,15.0441395 56.2350164,14.4347072 56.0279577,14.1959542 C55.7556416,13.8796219 55.4098597,13.81034 54.8352666,13.8395877 L54.8352666,13.8395877 L54.8342405,13.6823551 L59.5951548,13.6894077 L59.591461,13.8553525 C59.4143632,13.8383432 58.8192489,13.8383432 58.4740826,14.232462 C58.2009456,14.5446456 58.1970466,15.043932 58.1947893,15.7572872 L58.1947893,15.7572872 L58.2134636,25.5720916 L60.1075687,25.5720916 C60.1099224,25.5669019 60.1109119,25.5611863 60.1104417,25.5554971 C60.1635915,25.563172 60.2169466,25.5654538 60.2711225,25.5720916 L60.2711225,25.5720916 L63.6571176,25.5720916 C64.5662059,25.5017725 65.2356069,25.2862517 65.6562911,24.9226251 C66.1847116,24.4698033 66.4459462,23.6931817 66.4459462,22.587782 L66.4459462,22.587782 L66.4459462,1.9676903 C66.4664033,1.60901851 66.4374655,1.24921291 66.3599625,0.898591017 C66.2893508,0.724247356 66.1629873,0.578844073 66.001047,0.485595931 C65.7063517,0.346744685 65.3812875,0.286814664 65.0570726,0.311561336 L65.0570726,0.311561336 L65.0570726,0.124873452 L69.9175146,0.124873452 Z M137.53994,0.36507853 L137.529269,0.551766414 C137.259043,0.530111981 136.987414,0.56885016 136.733663,0.665231162 C136.499254,0.711370922 136.304643,0.875822634 136.218171,1.10083623 C136.146081,1.54820264 136.118577,2.00192806 136.136907,2.45494568 L136.136907,2.45494568 L136.136907,24.736767 C136.136907,25.5017725 136.167073,25.967455 136.230278,26.1377558 C136.296663,26.3166252 136.422926,26.4663445 136.587142,26.560915 C136.881749,26.6975687 137.20623,26.7551511 137.529269,26.7281044 L137.529269,26.7281044 L137.529269,26.9160369 L132.690374,26.9160369 L132.690374,26.7281044 C133.295613,26.7290724 133.672655,26.6111825 133.821502,26.3744346 C133.970349,26.1376867 134.044772,25.6005787 134.044772,24.7631107 L134.044772,24.7631107 L134.044772,2.61591212 C134.045183,1.74580829 133.962483,1.1763411 133.796671,0.90751055 C133.634554,0.637850272 133.265788,0.519268894 132.690374,0.551766414 L132.690374,0.551766414 L132.700635,0.36507853 L137.53994,0.36507853 Z M129.60522,0.124873452 L129.60522,0.311561336 C128.949773,0.330230125 128.556177,0.455518438 128.428535,0.691989758 C128.27147,1.0534331 128.203178,1.44790101 128.22948,1.8417797 L128.22948,1.8417797 L128.22948,24.5930173 C128.22948,25.1134617 128.314848,25.483726 128.48189,25.7009062 C128.650164,25.9137304 129.018109,26.0238762 129.584083,26.0238762 L129.584083,26.0238762 L129.584083,26.7237484 L102.841905,26.7237484 L102.841905,25.5720916 L118.815593,25.5720916 C118.842681,24.5544352 118.758339,22.5670389 118.722221,22.1158765 C118.342579,19.2282298 116.864439,17.3159236 115.808213,16.3992861 C114.137174,14.9503807 111.867941,14.4247505 109.174126,14.4015183 C107.1926,14.4166607 105.868779,14.6236769 103.243504,16.3648525 L103.243504,16.3648525 L103.243504,13.423896 C103.603651,14.0186007 104.104983,14.3623138 104.368065,14.3112858 C107.147659,13.7721727 112.664779,13.2650039 116.522761,15.6989991 C118.219247,16.7676835 120.34832,18.4379178 121.028802,21.7875133 C121.097959,22.1252109 121.109861,24.4604689 121.112323,25.5710544 L121.112323,25.5710544 L123.345028,25.5710544 C124.255348,25.5007353 124.924954,25.2852145 125.346459,24.921588 C125.873443,24.4687662 126.134883,23.6921446 126.134883,22.58633 L126.134883,22.58633 L126.134883,1.9676903 C126.154596,1.60903808 126.125737,1.24934488 126.049104,0.898591017 C125.978524,0.724097887 125.851974,0.578645944 125.689778,0.485595931 C125.395038,0.346887386 125.070011,0.286964213 124.745804,0.311561336 L124.745804,0.311561336 L124.745804,0.124873452 L129.60522,0.124873452 Z M11.942302,14.4015183 C9.24540821,14.4015183 6.97761237,14.9503807 5.30534123,16.3992861 C4.24911598,17.3159236 2.77179608,19.2282298 2.39133336,22.1158765 C2.35685777,22.5670389 2.2704636,24.5544352 2.29857762,25.5720916 L2.29857762,25.5720916 L17.2297898,25.5720916 L17.2297898,15.917009 C17.2304054,15.8456528 17.2314315,15.7790674 17.2314315,15.7110301 C15.9254634,15.1482698 13.8403061,14.4015183 11.942302,14.4015183 Z" id="Combined-Shape" fill="#45773A" fill-rule="nonzero"></path>
                        <path d="M73.0010275,0.187517608 C73.5756206,0.155158375 73.9464383,0.272979173 74.1081452,0.543884037 C74.2751877,0.813544314 74.3543994,1.38149035 74.3543994,2.25207818 L74.3543994,24.3980322 C74.3543994,25.2352236 74.2790867,25.7724699 74.1331811,26.0089412 C73.9835817,26.2452051 73.607018,26.364063 73.0000014,26.364063 L73.0000014,26.5507509 L77.8382805,26.5507509 L77.8382805,26.364063 C77.5153076,26.3908502 77.1909702,26.3327557 76.8967687,26.1954217 C76.7330854,26.1000701 76.6068018,25.9507432 76.5390845,25.7724699 C76.4775209,25.602169 76.4471496,25.1369014 76.4471496,24.371481 L76.4471496,2.08986715 C76.4287091,1.63676463 76.4557298,1.18293931 76.5277978,0.735342834 C76.6149733,0.510512561 76.8096835,0.346238639 77.0441108,0.29973777 C77.29755,0.204121528 77.5685739,0.165541338 77.8382805,0.186687884 L77.8491567,0 L73.0123141,0 L73.0010275,0.187517608 Z" id="Path_5" fill="#45773A" fill-rule="nonzero"></path>
                        <path d="M32.4649206,11.2649544 C33.2161801,11.2648392 33.8252098,10.6493463 33.8254738,9.88996272 C33.8257376,9.13057916 33.2171358,8.51465393 32.4658766,8.51400469 C31.7146174,8.51335648 31.1049755,9.12822975 31.1039558,9.88761266 C31.1038422,10.6476972 31.7129681,11.264153 32.4649206,11.2649544" id="Path_7" fill="#45773A" fill-rule="nonzero"></path>
                        <path d="M12.3675009,11.2649544 C13.1187871,11.2649544 13.7279196,10.6495115 13.7282592,9.89010098 C13.7285985,9.13069045 13.1200164,8.51469216 12.3687305,8.51400468 C11.6174446,8.51331834 11.007761,9.12820275 11.0067403,9.88761266 C11.0063056,10.2527178 11.149472,10.603023 11.4047052,10.8613665 C11.6599385,11.11971 12.0063015,11.2648996 12.3675009,11.2649544" id="Path_8" fill="#45773A" fill-rule="nonzero"></path>
                        <path d="M8.79927771,11.2649548 C9.5506972,11.2655264 10.1603442,10.6503382 10.1610621,9.89079294 C10.1617788,9.13124773 9.55329485,8.51488408 8.80187565,8.51400506 C8.05045644,8.51312791 7.44056426,9.1280678 7.43954342,9.88761266 C7.439163,10.2525214 7.58220613,10.6026374 7.83720568,10.8609391 C8.09220522,11.1192408 8.43827292,11.2645695 8.79927771,11.2649548" id="Path_9" fill="#45773A" fill-rule="nonzero"></path>
                        <path d="M24.6250082,28.2301122 C24.0743629,28.230365 23.5781269,28.5659913 23.3678267,29.0803995 C23.1575265,29.5948077 23.2746066,30.1866219 23.6644414,30.5797222 C24.0542763,30.9728224 24.64004,31.0897394 25.1484357,30.8759237 C25.6568313,30.662108 25.987668,30.1596968 25.9865913,29.6030978 C25.9847784,28.8442822 25.3757079,28.2301122 24.6250082,28.2301122" id="Path_10" fill="#45773A" fill-rule="nonzero"></path>
                        <path d="M21.0565798,28.2301119 C20.505972,28.2305328 20.0098621,28.5662654 19.7996912,29.0806868 C19.5895204,29.5951081 19.7067017,30.1868541 20.0965687,30.5798683 C20.4864357,30.9728825 21.0721671,31.0897235 21.5805123,30.8758837 C22.0888575,30.6620438 22.4196498,30.1596591 22.4185733,29.6030978 C22.4169858,28.8440253 21.8075331,28.2296527 21.0565798,28.2301119" id="Path_11" fill="#45773A" fill-rule="nonzero"></path>
                        <path d="M109.241025,6.03333756 L109.241025,7.26692962 C109.241025,7.94315462 108.986357,8.54864566 108.227073,8.54864566 C107.949756,8.5579411 107.681455,8.44840543 107.488311,8.24704101 C107.29932,8.56555388 106.958559,8.76015132 106.591125,8.75939773 C105.78259,8.75939773 105.462459,8.1980873 105.462459,7.43059266 L105.462459,7.43059266 L105.462459,6.45172586 L105.967281,6.35921164 L105.967281,7.22212453 C105.967281,7.78115103 106.129603,8.15224505 106.590304,8.15224505 C107.028226,8.15224505 107.164897,7.82699327 107.164897,7.26692962 L107.164897,7.26692962 L107.164897,6.47516556 L107.672796,6.33556451 L107.672796,7.29036932 C107.666988,7.42339095 107.65204,7.55584365 107.62806,7.68676993 C107.769942,7.87601468 107.990735,7.98791162 108.225637,7.98961916 C108.594608,7.98961916 108.733126,7.64051282 108.733126,7.24494193 L108.733126,7.24494193 L108.733126,6.19575602 L109.241025,6.03333756 Z M25.3385297,4.62508862 L25.3385297,5.85909554 C25.3385297,6.53552797 25.0852983,7.14039672 24.3247833,7.14039672 C24.047635,7.15044774 23.7793575,7.04076936 23.5870468,6.83879207 C23.3971693,7.15686962 23.0563582,7.35119499 22.6888347,7.35093942 C21.8825574,7.35093942 21.5589384,6.79087551 21.5589384,6.02192886 L21.5589384,6.02192886 L21.5589384,5.04409921 L22.0651959,4.9509627 L22.0651959,5.81283843 C22.0651959,6.37186493 22.2271081,6.74316639 22.6888347,6.74316639 C23.1257306,6.74316639 23.2634278,6.4185369 23.2634278,5.85847325 L23.2634278,5.85847325 L23.2634278,5.06753891 L23.7715322,4.92814529 L23.7715322,5.88232781 C23.766447,6.01520621 23.7510083,6.14747276 23.7253596,6.27789869 C23.8676549,6.4675012 24.089141,6.57936513 24.3245781,6.5805405 C24.6929333,6.5805405 24.8314513,6.23226388 24.8314513,5.83669299 L24.8314513,5.83669299 L24.8316565,4.78792194 L25.3385297,4.62508862 Z M52.8190604,4.64064595 L52.8190604,5.81117898 C52.8190604,6.45317787 52.579373,7.02693197 51.8582587,7.02693197 C51.5953392,7.0366989 51.3407812,6.93264274 51.1584863,6.74088465 C50.9781724,7.04247974 50.654863,7.22669648 50.3062417,7.22648077 C49.5410068,7.22648077 49.2342151,6.6950424 49.2342151,5.96550763 L49.2342151,5.96550763 L49.2342151,5.03746142 L49.7148212,4.94992554 L49.7148212,5.76824077 C49.7148212,6.29884922 49.8683196,6.65044474 50.3062417,6.65044474 C50.7203591,6.65044474 50.8514895,6.34178744 50.8514895,5.81117898 L50.8514895,5.81117898 L50.8514895,5.05965653 L51.3333268,4.92814529 L51.3333268,5.83295924 C51.328507,5.9592791 51.3138922,6.08502221 51.2896167,6.20903161 C51.4248068,6.38881295 51.6350607,6.49477008 51.8584639,6.49570123 C52.2077344,6.49570123 52.3388647,6.16588596 52.3388647,5.79043588 L52.3388647,5.79043588 L52.3386595,4.79518203 L52.8190604,4.64064595 Z M107.995389,1.79407057 C108.169159,1.79208618 108.335717,1.86418483 108.454208,1.99268087 C108.572698,2.1211769 108.632158,2.29418201 108.618002,2.46925842 C108.610036,2.55579662 108.594516,2.64145343 108.571624,2.72522825 C108.524637,2.91650869 108.462884,3.10377049 108.386933,3.2852919 L108.386933,3.2852919 L108.318598,3.49438234 C108.411353,3.67920334 108.779709,3.86651352 108.779709,3.89078294 C108.75693,4.23988929 108.709731,4.47304171 108.709731,4.58941049 C108.617796,4.51805424 108.433106,4.42554002 108.248415,4.31062325 C108.156686,4.26415871 108.041767,4.19383961 107.927669,4.12393537 L107.927669,4.12393537 L107.742978,4.31062325 C107.62806,4.42554002 107.420385,4.68130242 107.051004,5.03103106 C106.589483,5.49754334 106.313473,5.6599618 105.96687,5.6599618 C105.811902,5.65860005 105.65728,5.63528513 105.508017,5.59088728 L105.508017,5.59088728 L105.437834,5.56724015 C105.78218,5.45024907 106.267711,5.03123849 106.705633,4.65952217 C106.957633,4.40293004 107.235284,4.14654535 107.511705,3.89099037 C107.467055,3.88083441 107.426872,3.85630401 107.397197,3.82108613 C107.270045,3.71701358 107.154202,3.59956974 107.05162,3.4707352 C106.900148,3.31586611 106.816846,3.10580698 106.820551,2.88806157 C106.824361,2.47214738 107.081288,2.1015982 107.466763,1.95607417 C107.627057,1.85883067 107.808659,1.8031766 107.995389,1.79407057 Z M87.2326725,1.79403298 C87.4064068,1.79214499 87.57291,1.86426929 87.6913548,1.99275828 C87.8097997,2.12124727 87.8692324,2.29421839 87.85508,2.46925842 C87.8468938,2.55576573 87.8313775,2.64140325 87.8087021,2.72522825 C87.7611516,2.91634285 87.6994131,3.1035614 87.6240115,3.2852919 L87.6240115,3.2852919 L87.5554707,3.49376004 C87.647816,3.68003307 88.0155556,3.86672095 88.0155556,3.89099037 C87.9923667,4.23947443 87.9472201,4.47324914 87.9472201,4.58920306 C87.85508,4.5184691 87.6703893,4.42574745 87.48693,4.31103811 C87.3927377,4.26415871 87.2772035,4.19383961 87.1629005,4.12435023 L87.1629005,4.12435023 L86.9796463,4.31103811 C86.8624704,4.42574745 86.6560273,4.68192471 86.2878773,5.03123849 C85.8261507,5.49775077 85.5499356,5.66016923 85.2043589,5.66016923 C85.0479665,5.65811966 84.8925459,5.63495908 84.7422218,5.59130214 L84.7422218,5.59130214 L84.6747072,5.56765501 C85.0196682,5.44983421 85.504789,5.03123849 85.9416849,4.65952217 C86.1959424,4.40210032 86.4725679,4.14571562 86.7479622,3.89099037 C86.7033592,3.88057243 86.6631871,3.85609228 86.6332488,3.82108613 C86.5061997,3.71712199 86.3904273,3.59981946 86.2878773,3.47115007 C86.137236,3.31560987 86.0542759,3.10570549 86.0574244,2.88806157 C86.0606845,2.47244489 86.3172166,2.10192489 86.7024052,1.95648903 C86.8631347,1.85881434 87.0453409,1.8030054 87.2326725,1.79403298 Z M54.8235695,1.83120072 L54.7796542,2.40578454 L46.704569,3.58980059 L46.7047742,2.99281422 L54.8235695,1.83120072 Z M107.673412,2.32965737 C107.466763,2.32965737 107.350819,2.44664844 107.350819,2.56260236 C107.357463,2.6226055 107.381688,2.67923476 107.420385,2.72522825 L107.420385,2.72522825 L107.490906,2.83562787 C107.567769,2.94312342 107.659668,3.03907375 107.76391,3.12038427 C107.839586,3.16759021 107.909975,3.22295219 107.973842,3.28549934 C107.995389,3.23779021 107.995389,3.19194796 108.019194,3.121214 C108.045662,3.00661817 108.061125,2.88970716 108.065366,2.77210765 C108.080915,2.65878519 108.046341,2.54428812 107.970838,2.45905751 C107.895334,2.37382689 107.786552,2.32649921 107.673412,2.32965737 Z M86.9092587,2.32903507 C86.7024052,2.32903507 86.5876918,2.44602615 86.5876918,2.56239493 C86.5946688,2.62195466 86.6183832,2.67824646 86.6560273,2.72460596 C86.7457146,2.87746802 86.863173,3.01182067 87.0022196,3.1205917 C87.0772778,3.16791846 87.1472863,3.2229738 87.2111253,3.28487704 C87.2282708,3.23091603 87.2425871,3.17607799 87.2540145,3.1205917 C87.2813987,3.0061136 87.2974839,2.88917258 87.3020341,2.77148536 C87.3176099,2.65801542 87.2829319,2.54337278 87.2072418,2.45811002 C87.1315516,2.37284726 87.02254,2.32562755 86.9092587,2.32903507 Z M25.5601585,1.96727544 L25.5135754,2.5735962 L21.2513258,3.20335667 L21.2507102,2.5735962 L25.5601585,1.96727544 Z M97.9250293,1.79386314 L97.8800879,2.40039133 L93.6161967,3.02973693 L93.615581,2.40039133 L97.9250293,1.79386314 Z" id="Combined-Shape" fill="#7F5B2A" fill-rule="nonzero"></path>
                        <path d="M25.9722238,37.4051994 L26.5673381,38.0023932 L25.9800219,38.6445995 L25.3849076,38.0482354 L25.9722238,37.4051994 Z M58.5524735,37.4051994 L59.1475878,38.0023932 L58.5604768,38.6445995 L57.9653625,38.0482354 L58.5524735,37.4051994 Z M5.91995064,34.1487404 L6.26881073,34.3233973 L4.53661775,38.4979458 L4.35192711,38.3882148 L3.16169854,35.1767683 L1.90108232,38.5081099 L1.71639168,38.4075059 L0.0707980785,34.3233973 L0.429713555,34.1487404 L1.82207577,37.6823272 L3.07386788,34.286682 L3.23167577,34.1586971 L4.48346788,37.6823272 L5.91995064,34.1487404 Z M22.6090073,34.1493627 L22.9595091,34.3240196 L21.2250587,38.4979458 L21.0415994,38.3882148 L19.8501395,35.1767683 L18.5895233,38.5081099 L18.4058587,38.4075059 L16.7598547,34.3240196 L17.1183598,34.1493627 L18.510722,37.6829495 L19.7625141,34.2873043 L19.9207324,34.1593194 L21.1725245,37.6829495 L22.6090073,34.1493627 Z M14.2640685,34.1493627 L14.6129286,34.3240196 L12.8807356,38.4979458 L12.6970711,38.3882148 L11.5056112,35.1767683 L10.2452002,38.5081099 L10.0615356,38.4075059 L8.41512118,34.3240196 L8.77403666,34.1493627 L10.1661937,37.6829495 L11.4179858,34.2873043 L11.5757937,34.1593194 L12.8275858,37.6829495 L14.2640685,34.1493627 Z M48.8947947,34.1864928 C49.0288982,34.1876896 49.1625189,34.2029132 49.2935213,34.2319202 C49.4349227,34.262686 49.5697012,34.3188948 49.691427,34.397865 C49.8183278,34.4814037 49.9235385,34.5945101 49.9982187,34.7276803 C50.0852494,34.8910694 50.1277431,35.0749089 50.1213458,35.260363 L50.1213458,38.4805216 L49.6994303,38.3241187 C49.6158511,38.3461299 49.531005,38.3628947 49.4453781,38.3743169 C49.3409252,38.389252 49.2266223,38.4048093 49.1039056,38.4205741 C48.9811889,38.4363388 48.8562149,38.4475401 48.7273419,38.4568745 C48.5984689,38.4662089 48.482319,38.4705649 48.3784818,38.4705649 C48.2318682,38.4718096 48.0873144,38.4356371 47.958208,38.3653974 C47.8285786,38.293675 47.7128286,38.198879 47.6165303,38.085573 C47.5189705,37.9708911 47.4406386,37.8408413 47.3846409,37.7005811 C47.3297186,37.5634317 47.3014318,37.4168767 47.3013249,37.2689172 C47.2906913,37.014525 47.3579846,36.7630139 47.4940188,36.5487169 C47.6260903,36.359083 47.8060022,36.2086692 48.0150517,36.1131118 C48.2562344,36.0031451 48.513511,35.9335765 48.7767979,35.9071328 C49.083371,35.8726979 49.3918647,35.8588388 49.7002511,35.8656466 L49.7002511,35.3945709 C49.7002511,34.8275929 49.4084399,34.5441039 48.8248175,34.5441039 C48.6241018,34.5463521 48.4243495,34.5725311 48.2297032,34.6220979 C48.0166953,34.6754025 47.8148141,34.7667222 47.6335629,34.8917582 L47.4675465,34.5434816 C47.6911113,34.3972305 47.9410552,34.29706 48.2030257,34.2487221 C48.431492,34.2084915 48.6628906,34.1876756 48.8947947,34.1864928 Z M32.7300543,31.9935325 L32.7300543,38.3890445 L32.3099857,38.2135579 C32.0998488,38.2757872 31.9085914,38.3326233 31.7368291,38.3882148 C31.5450045,38.4460853 31.3455743,38.4740641 31.1454086,38.4711872 C30.8753621,38.4732755 30.6080246,38.4166831 30.3614995,38.3052424 C30.1233563,38.1983518 29.908955,38.0440659 29.7310888,37.8515909 C29.5504017,37.653864 29.4079875,37.4236498 29.3112254,37.1728767 C29.2071062,36.9021645 29.1549424,36.6138859 29.1575217,36.3234468 C29.1552314,36.0322126 29.2058692,35.743029 29.3069159,35.4702832 C29.399455,35.2182648 29.5407204,34.9873984 29.7224699,34.7911542 C30.0927486,34.3979723 30.60842,34.1786182 31.1454086,34.1858705 C31.3610952,34.1827254 31.5762257,34.2088174 31.7850539,34.2634497 C31.9723605,34.3187099 32.1496168,34.4041638 32.3099857,34.5165155 L32.3099857,32.1310592 L32.7300543,31.9935325 Z M75.4414064,32.9014579 L75.4414064,34.2684281 L76.5442148,34.2684281 L76.5442148,34.6260391 L75.4414064,34.6260391 L75.4414064,37.0768362 C75.4414064,37.2543971 75.4444846,37.4060291 75.450641,37.5317323 C75.4515715,37.6358534 75.4737159,37.738664 75.5156931,37.8337518 C75.5528069,37.9091694 75.6148882,37.9690597 75.6911492,38.0030155 C75.7982391,38.0448962 75.9127883,38.0637585 76.0274914,38.0583996 C76.116438,38.0603132 76.2052082,38.0495596 76.2911886,38.0264552 C76.3901591,37.9954475 76.4867335,37.9571071 76.5801268,37.9117459 L76.7463484,38.2600225 C76.6214912,38.3251609 76.4892505,38.3746866 76.3525469,38.4075059 C76.2156388,38.4452065 76.0743393,38.4664565 75.9320679,38.4699477 C75.8207874,38.4702817 75.7100939,38.453638 75.603729,38.4205741 C75.4969416,38.3876257 75.3973465,38.3344033 75.3102761,38.2637562 C75.220373,38.1916757 75.1484081,38.099326 75.1001392,37.994096 C75.044199,37.8673101 75.0172638,37.7294052 75.0213378,37.5906427 L75.0213378,34.6260391 L74.2768294,34.6260391 L74.2768294,34.2684281 L75.0213378,34.2684281 L75.0213378,33.1400035 L75.4414064,32.9014579 Z M70.0305863,34.1858705 C70.2448441,34.1869693 70.4571243,34.2273824 70.657098,34.3051434 C70.8665236,34.3856633 71.0572357,34.5091661 71.2173263,34.6677327 C71.3928084,34.8433034 71.52984,35.054183 71.6195415,35.2867068 C71.7279294,35.5704475 71.780219,35.8729193 71.7734503,36.1770005 L68.6733153,36.1770005 C68.6144802,36.6593822 68.7611425,37.1443186 69.0767618,37.5109892 C69.2221767,37.6798158 69.4009106,37.8160402 69.6014884,37.9109161 C69.800923,38.0078333 70.0194383,38.0579652 70.2407232,38.0575698 C70.4589955,38.0595153 70.6757341,38.0205517 70.8799581,37.9426531 C71.0997336,37.8545647 71.3062573,37.7358734 71.4935414,37.5900204 L71.7028575,37.920458 C71.2769607,38.2765681 70.7413226,38.4710106 70.1885994,38.4701501 C69.9171735,38.4734597 69.6482621,38.41727 69.4003808,38.3054499 C69.1648647,38.1983646 68.9533762,38.0439437 68.7787942,37.8515909 C68.598703,37.6504273 68.4602702,37.4148598 68.371654,37.1587714 C68.2727346,36.87595 68.2236973,36.5777722 68.2267744,36.277812 C68.2243859,35.9936784 68.2704099,35.7112501 68.3628299,35.4429023 C68.4461476,35.1993138 68.5737942,34.9736221 68.7391883,34.7774637 C68.8967266,34.5937189 69.0905662,34.4453362 69.3082407,34.3418586 C69.5346043,34.2363745 69.7813414,34.1830925 70.0305863,34.1858705 Z M38.522158,34.3455924 C38.7653993,34.4491287 38.9847941,34.602459 39.1665231,34.7959251 C39.3504556,34.9936512 39.4947141,35.2255519 39.5913116,35.4787879 C39.6947271,35.7512639 39.7465872,36.0409513 39.7441944,36.3327812 C39.7468968,36.6226157 39.6950131,36.9103228 39.5913116,37.1805516 C39.4938896,37.4323793 39.3497014,37.6630405 39.1665231,37.8600955 C38.9847123,38.0533099 38.7653278,38.2064211 38.522158,38.3098059 C38.0097816,38.5246849 37.4338822,38.5246849 36.9215058,38.3098059 C36.6784836,38.2062596 36.459197,38.053168 36.2773459,37.8600955 C36.0936424,37.6627313 35.9482898,37.4322119 35.8488636,37.1805516 C35.7417382,36.9111721 35.6881836,36.6230932 35.6912609,36.3327812 C35.6885028,36.0404788 35.7420314,35.7504259 35.8488636,35.4787879 C35.9474628,35.2257115 36.0928858,34.9939541 36.2773459,34.7959251 C36.4591155,34.6026011 36.6784122,34.4492906 36.9215058,34.3455924 C37.4341499,34.132076 38.0095139,34.132076 38.522158,34.3455924 Z M63.6905671,34.1949975 C64.0985922,34.1764646 64.49608,34.3290578 64.789066,34.6167047 C65.0665124,34.8979811 65.2050303,35.3180288 65.2050303,35.8737365 L65.2050303,38.3882148 L64.7857826,38.3882148 L64.7857826,36.0396812 C64.811163,35.6566766 64.6991091,35.2772588 64.4701668,34.9709968 C64.2609954,34.7230888 63.9508894,34.5858547 63.6287983,34.5986582 C63.3780211,34.5948215 63.1278364,34.6243928 62.8847003,34.6866089 C62.6918148,34.7366432 62.5084694,34.818653 62.3421202,34.9293032 L62.3421202,38.3888371 L61.9216412,38.3888371 L61.9216412,34.2684281 L62.3421202,34.4978467 L62.3421202,34.4789705 C62.5409693,34.3814451 62.7515974,34.3106624 62.9686319,34.2684281 C63.2061644,34.2190928 63.4480726,34.1944875 63.6905671,34.1949975 Z M44.2968187,34.1479107 C44.452851,34.1427257 44.6088882,34.1580658 44.7610078,34.1935455 C44.8663069,34.2249112 44.9665898,34.2714382 45.0587702,34.3316945 L44.8225713,34.7726928 C44.6585962,34.6571754 44.4616181,34.5993087 44.2619326,34.6079926 C44.0517591,34.6122219 43.8451888,34.6639622 43.6573786,34.7594172 C43.4232831,34.8867553 43.2405766,35.0927894 43.1408605,35.3418834 L43.1408605,38.3882148 L42.7209971,38.3882148 L42.7209971,34.3594903 L43.1408605,34.615875 L43.1583035,34.615875 C43.3061586,34.4808259 43.4747055,34.3709123 43.6573786,34.2904158 C43.857688,34.1963294 44.0759394,34.14769 44.2968187,34.1479107 Z M54.8303415,34.1479107 C54.9863065,34.1427108 55.1422777,34.1580512 55.2943254,34.1935455 C55.3996557,34.2248268 55.4999503,34.2713592 55.5920878,34.3316945 L55.355889,34.7726928 C55.1919537,34.657091 54.9949468,34.5992158 54.7952503,34.6079926 C54.5852048,34.6121995 54.3787633,34.6639427 54.1911067,34.7594172 C53.9568582,34.8866198 53.7740468,35.0926902 53.6743833,35.3418834 L53.6743833,38.3882148 L53.2543147,38.3882148 L53.2543147,34.3594903 L53.6743833,34.615875 L53.6922367,34.615875 C53.8399453,34.4807335 54.0084405,34.3708084 54.1911067,34.2904158 C54.3913361,34.1963078 54.6095257,34.1476666 54.8303415,34.1479107 Z M48.9532801,36.2413042 C48.7368117,36.2607619 48.5242305,36.3115479 48.3220485,36.3921065 C48.150148,36.4600048 47.9990672,36.5726443 47.8841265,36.7186028 C47.7690043,36.8777923 47.711088,37.0719344 47.7199571,37.2689172 C47.7132156,37.4900453 47.7945356,37.7046604 47.9456901,37.864659 C48.0902405,38.0214772 48.294128,38.1084872 48.5061235,38.1038269 C48.600521,38.1038269 48.7066839,38.0991943 48.8246123,38.0899291 C48.9421987,38.0805947 49.0571173,38.0675265 49.1697786,38.0484429 C49.2740417,38.0322707 49.3771938,38.0094773 49.4786224,37.9801981 C49.555186,37.9599079 49.6291504,37.9306705 49.6990199,37.8930771 L49.6994303,36.2226354 C49.4505998,36.2101345 49.201194,36.2163796 48.9532801,36.2413042 Z M31.162236,34.6075777 C30.9474505,34.605417 30.7345058,34.6477747 30.5365452,34.7320363 C30.34931,34.8127265 30.1805876,34.9316503 30.0409586,35.0813501 C29.8979011,35.2360817 29.7878206,35.4188739 29.7175448,35.6183889 C29.639439,35.8359327 29.6006529,36.0658961 29.6030366,36.2973105 C29.6012016,36.5350363 29.6412977,36.7711898 29.7214438,36.9946935 C29.7962319,37.2020107 29.9108146,37.3923447 30.0586068,37.5547571 C30.2037025,37.7129636 30.377976,37.8409953 30.5716364,37.9316592 C30.7764848,38.0247646 30.9990107,38.071422 31.2235943,38.0683562 C31.4198165,38.0732226 31.615065,38.0389666 31.7981874,37.9675448 C31.9742222,37.8923744 32.1455509,37.8064071 32.311217,37.7101229 L32.3099857,35.001904 C32.1398375,34.8617781 31.945517,34.7546709 31.7368291,34.6859866 C31.5498986,34.6326689 31.3564617,34.6062725 31.162236,34.6075777 Z M37.7212162,34.5980359 C37.5068186,34.5964351 37.2946448,34.6420184 37.0994244,34.7316215 C36.9105363,34.8172354 36.7408165,34.9407326 36.6005545,35.0946257 C36.4556546,35.2549024 36.3427697,35.4419793 36.2681113,35.6455624 C36.1851863,35.8653462 36.1434336,36.0988055 36.1449842,36.3340258 C36.1432044,36.5675132 36.1849759,36.7992479 36.2681113,37.017096 C36.3439033,37.2188947 36.456926,37.404305 36.6011701,37.5634692 C36.7416262,37.7169829 36.9113084,37.840241 37.1000401,37.9258512 C37.2953909,38.0149395 37.5075266,38.0601608 37.7218319,38.0583996 C37.9345837,38.0604909 38.1451848,38.0152383 38.3386986,37.9258512 C38.5255897,37.8388538 38.693655,37.7154244 38.8332591,37.5626395 C38.9768803,37.4030393 39.089765,37.2177411 39.1661127,37.0162663 C39.3283595,36.5752952 39.3283595,36.0900598 39.1661127,35.6490887 C39.088976,35.4463344 38.9760948,35.2597244 38.8332591,35.0977371 C38.6942175,34.9433027 38.5258045,34.8187841 38.338083,34.7316215 C38.1447051,34.6417082 37.9340627,34.5960926 37.7212162,34.5980359 Z M70.0305863,34.5982433 C69.7191509,34.5924823 69.4177637,34.7096826 69.1904491,34.9249471 C68.9446559,35.1649593 68.781644,35.4784385 68.7254391,35.8191821 L71.2745804,35.8191821 C71.1220396,35.0054995 70.7073749,34.5985199 70.0305863,34.5982433 Z" id="Combined-Shape" fill="#7F5B2A" fill-rule="nonzero"></path>
                    </g>
                </g>
            </g>
        </g>
    </g>
</svg>