<?xml version="1.0" encoding="UTF-8"?>
<svg width="74px" height="60px" viewBox="0 0 74 60" version="1.1" xmlns="http://www.w3.org/2000/svg" xmlns:xlink="http://www.w3.org/1999/xlink">
    <title>encyclopedia-icon</title>
    <g id="UI-Screens" stroke="none" stroke-width="1" fill="none" fill-rule="evenodd">
        <g id="Artboard" transform="translate(-260.000000, -230.000000)">
            <g id="Group-66" transform="translate(260.200000, 230.000000)">
                <rect id="Rectangle" fill-opacity="0.5" fill="#F3EDDA" x="36" y="3" width="37" height="37" rx="18.4"></rect>
                <rect id="Rectangle-Copy-6" fill-opacity="0.5" fill="#D9E9D5" x="0" y="0" width="14" height="14" rx="6.9"></rect>
                <g id="Group" transform="translate(9.000000, 16.000000)">
                    <path d="M58.5731995,26.4543406 C57.9335541,26.2537555 57.2960907,26.089105 56.6665619,25.9454459 L56.6665619,24.7044197 C56.6665619,24.4507432 56.5082275,24.2234345 56.2691589,24.1351597 C55.3038391,23.7782653 54.2913085,23.5008696 53.2560058,23.2980312 L53.2560058,8.90939275 C53.2560058,7.85649899 52.3964538,7 51.3398071,7 L12.8821747,7 C11.8255676,7 10.965976,7.85649905 10.965976,8.90939275 L10.965976,34.1967108 C10.965976,34.4424809 11.0167176,34.6757985 11.1019745,34.891801 L8.9161987,34.891801 C7.85959166,34.8918011 7,35.7483397 7,36.8011939 L7,39.4057163 C7,40.8176787 8.15249634,41.9660816 9.5694916,41.9660816 L26.9280701,41.9660816 L26.9280701,43.3899035 C26.9280701,43.5836101 27.0203095,43.765457 27.1770172,43.8794275 C27.333368,43.9940702 27.5347077,44.0276723 27.7205353,43.9690464 C32.5758179,42.4457226 37.9250672,42.4457226 42.7803894,43.9690464 C42.7961792,43.974067 42.8124847,43.972802 42.8284332,43.9764784 C42.8550141,43.9826059 42.8798493,43.9860847 42.9070251,43.9886148 C42.9259491,43.9903937 42.9445557,43.9973513 42.9635193,43.9973513 C43.0128326,43.9973513 43.0609955,43.9861638 43.1088012,43.9743833 C43.1215759,43.9712603 43.1347076,43.9756088 43.1473633,43.9716556 C48.0026458,42.4444181 53.3518951,42.4444181 58.2072174,43.9716556 C58.2673614,43.9907891 58.3292114,44 58.3907043,44 C58.5186493,44 58.6452453,43.959796 58.7510528,43.8820762 C58.9074433,43.7680661 59,43.5862192 59,43.3925126 L59,27.0335231 C59,26.767987 58.8274231,26.5334045 58.5731995,26.4543406 Z" id="Path" fill-opacity="0.15" fill="#FAC931"></path>
                    <path d="M5.14227597,30.82179 L3.75372615,30.82179 C3.41718137,30.82179 3.14443051,31.0939279 3.14443051,31.4292773 C3.14443051,31.7646268 3.41718137,32.0367646 3.75372615,32.0367646 L5.14227597,32.0367646 C5.47882075,32.0367646 5.75157161,31.7646268 5.75157161,31.4292773 C5.75157161,31.0939279 5.47882082,30.82179 5.14227597,30.82179 Z" id="Path" fill="#49783C" fill-rule="nonzero"></path>
                    <path d="M9.38925475,30.82179 L8.00070492,30.82179 C7.66416014,30.82179 7.39140929,31.0939279 7.39140929,31.4292773 C7.39140929,31.7646268 7.66416014,32.0367646 8.00070492,32.0367646 L9.38925475,32.0367646 C9.72583924,32.0367646 9.9985901,31.7646268 9.9985901,31.4292773 C9.9985901,31.0939279 9.72583924,30.82179 9.38925475,30.82179 Z" id="Path" fill="#49783C" fill-rule="nonzero"></path>
                    <path d="M25.0045288,3.52095197 L25.217453,3.52095197 C25.5539978,3.52095197 25.8267487,3.2488536 25.8267487,2.91350416 C25.8267487,2.57811514 25.5539978,2.30601684 25.217453,2.30601684 L25.0045288,2.30601684 C24.6679841,2.30601684 24.3952332,2.57811521 24.3952332,2.91350416 C24.3952332,3.24885367 24.667984,3.52095197 25.0045288,3.52095197 Z" id="Path" fill="#49783C" fill-rule="nonzero"></path>
                    <path d="M51.5731995,19.4543406 C50.9335541,19.2537555 50.2960907,19.089105 49.6665619,18.9454459 L49.6665619,17.7044197 C49.6665619,17.4507432 49.5082275,17.2234345 49.2691589,17.1351597 C48.3038391,16.7782653 47.2913085,16.5008696 46.2560058,16.2980312 L46.2560058,1.90939275 C46.2560058,0.856498987 45.3964538,0 44.3398071,0 L5.88217467,0 C4.82556763,0 3.96597597,0.856499052 3.96597597,1.90939275 L3.96597597,27.1967108 C3.96597597,27.4424809 4.01671757,27.6757985 4.1019745,27.891801 L1.9161987,27.891801 C0.859591655,27.8918011 0,28.7483397 0,29.8011939 L0,32.4057163 C0,33.8176787 1.15249634,34.9660816 2.5694916,34.9660816 L19.9280701,34.9660816 L19.9280701,36.3899035 C19.9280701,36.5836101 20.0203095,36.765457 20.1770172,36.8794275 C20.333368,36.9940702 20.5347077,37.0276723 20.7205353,36.9690464 C25.5758179,35.4457226 30.9250672,35.4457226 35.7803894,36.9690464 C35.7961792,36.974067 35.8124847,36.972802 35.8284332,36.9764784 C35.8550141,36.9826059 35.8798493,36.9860847 35.9070251,36.9886148 C35.9259491,36.9903937 35.9445557,36.9973513 35.9635193,36.9973513 C36.0128326,36.9973513 36.0609955,36.9861638 36.1088012,36.9743833 C36.1215759,36.9712603 36.1347076,36.9756088 36.1473633,36.9716556 C41.0026458,35.4444181 46.3518951,35.4444181 51.2072174,36.9716556 C51.2673614,36.9907891 51.3292114,37 51.3907043,37 C51.5186493,37 51.6452453,36.959796 51.7510528,36.8820762 C51.9074433,36.7680661 52,36.5862192 52,36.3925126 L52,20.0335231 C52,19.767987 51.8274231,19.5334045 51.5731995,19.4543406 Z M21.464798,19.1351993 C21.0979431,19.2330803 20.7278748,19.3382354 20.3535614,19.4563173 C20.0999726,19.5367252 19.92807,19.7705962 19.92807,20.0354998 L19.92807,23.2692126 L8.84343564,23.2692126 L8.84343564,5.8309615 L41.3785461,5.8309615 L41.3785461,15.9623657 C41.1762146,15.9737904 40.9756287,16.000514 40.7739716,16.0182638 C40.5864777,16.0347091 40.3989044,16.0482686 40.2120453,16.0702088 C39.8779999,16.1095035 39.5461761,16.1630693 39.2146698,16.2197581 C39.053479,16.2473119 38.8914154,16.2681452 38.730899,16.2997708 C38.2451843,16.3955567 37.7622467,16.5071949 37.2837524,16.640378 C37.2311462,16.6550048 37.1798096,16.6748499 37.1272827,16.6899511 C36.7368225,16.8021823 36.3478698,16.9216478 35.9632018,17.058705 C35.930194,17.0470036 35.8961944,17.0395716 35.8631469,17.0280282 C35.3765593,16.8585152 34.8859649,16.7067521 34.3912047,16.5766525 C34.3357817,16.5620652 34.280081,16.5496522 34.2245787,16.5355393 C33.7293425,16.4099463 33.2311705,16.3017869 32.7301024,16.2155677 C32.676544,16.2063172 32.622827,16.1993596 32.569229,16.1905835 C32.0640746,16.1079618 31.5569365,16.0430898 31.0481322,16.000514 C30.9997709,15.9964817 30.9514098,15.9945842 30.9030485,15.9909077 C30.3875792,15.9516525 29.8711973,15.9305424 29.3544188,15.9323214 C29.3144286,15.93244 29.2745573,15.9345352 29.2345671,15.9349305 C28.7089811,15.9399511 28.1833952,15.9640655 27.6589201,16.0116225 C27.6292845,16.0143106 27.5998076,16.0185801 27.570172,16.0213869 C27.0359374,16.072304 26.5029326,16.1434615 25.9724273,16.2385358 C25.9528289,16.2420541 25.9333892,16.2466398 25.9137908,16.2502373 C25.373883,16.3486718 24.8364745,16.4685722 24.3030333,16.6129033 C24.2935118,16.6154729 24.284149,16.6185959 24.2746672,16.621205 C23.7319823,16.7688963 23.1931456,16.939279 22.6598631,17.1344877 C22.4198424,17.22213 22.2604766,17.4500713 22.2604766,17.7044197 L22.2604766,18.9344956 C22.105316,18.970272 21.9458708,19.0138757 21.7884886,19.0535658 C21.6803803,19.0808429 21.5738587,19.1060642 21.464798,19.1351993 Z M5.18460696,27.196711 L5.18460696,1.90939288 C5.18460696,1.52000325 5.49107975,1.21493526 5.88217474,1.21493526 L44.3398072,1.21493526 C44.7309418,1.21493526 45.0374146,1.52000325 45.0374146,1.90939288 L45.0374146,16.0928211 C44.8282197,16.0651092 44.6191834,16.0506405 44.4099488,16.0297676 C44.2726808,16.01605 44.1361268,15.9992094 43.9990175,15.9884567 C43.529886,15.9517711 43.0617067,15.9273799 42.5971773,15.9254824 L42.5971773,5.22347412 C42.5971773,4.88812468 42.3244264,4.61602631 41.9878816,4.61602631 L8.2341402,4.61602631 C7.8975557,4.61602631 7.62480485,4.88812468 7.62480485,5.22347412 L7.62480485,23.8766603 C7.62480485,24.2120494 7.8975557,24.4841477 8.2341402,24.4841477 L19.9280702,24.4841477 L19.9280702,27.8918011 L5.88217467,27.8918011 C5.49766542,27.8918011 5.18460696,27.5801708 5.18460696,27.196711 Z M2.5694916,33.7511069 C1.82463379,33.7511069 1.21863099,33.1476123 1.21863099,32.4057163 L1.21863099,29.8011939 C1.21863099,29.4184061 1.53168945,29.1067758 1.91619877,29.1067758 L5.88217474,29.1067758 L19.9280701,29.1067758 L19.9280701,33.7511069 L2.5694916,33.7511069 Z M28.2504425,34.6122707 C25.8515442,34.6122707 23.4523284,34.9337839 21.1466614,35.5761781 L21.1466614,34.3585942 L21.1466614,28.4992884 L21.1466614,23.8766603 L21.1466614,20.4841871 C21.4958618,20.3809297 21.8398651,20.2890179 22.1794647,20.204973 C22.206839,20.1982131 22.2331818,20.1930344 22.2604767,20.186393 L22.2604767,33.2128399 C22.2604767,33.4118041 22.3583496,33.5982763 22.5223175,33.7115749 C22.6041626,33.7685799 22.6975128,33.8031704 22.7937195,33.8150299 C22.8900055,33.8268895 22.9891479,33.8160183 23.0826965,33.7820998 C23.0837677,33.7817045 23.0849182,33.7813883 23.0859894,33.7809929 C23.4945404,33.6292693 23.9131287,33.5013045 24.3402862,33.3929474 C24.3606384,33.3878082 24.3803558,33.3812459 24.4007477,33.3761858 C24.815329,33.2732447 25.2400665,33.1933901 25.672818,33.1311669 C25.7085236,33.1260673 25.743396,33.1190306 25.7792206,33.1141681 C26.2028077,33.0567678 26.6365113,33.0215053 27.0781098,33.0028462 C27.1258759,33.0008301 27.1726898,32.9968374 27.2206543,32.9952956 C27.656897,32.9811036 28.1032959,32.9881403 28.5576294,33.0114642 C28.6143616,33.01435 28.6702606,33.0154964 28.7273102,33.0189753 C29.1787476,33.0466476 29.6403413,33.0949161 30.1101075,33.1592741 C30.1745362,33.1680897 30.2382905,33.1754822 30.3030762,33.1850094 C30.7724457,33.2539927 31.2520508,33.3428605 31.7402253,33.4480945 C31.8096131,33.4630376 31.8784058,33.4769133 31.9481904,33.492568 C32.4373169,33.6025854 32.9367188,33.7318944 33.4452058,33.8779254 C33.5196717,33.8993121 33.5937409,33.9200269 33.6686433,33.9421648 C34.1788758,34.0931373 34.699463,34.262927 35.2296113,34.449834 C35.2710694,34.4644608 35.3126466,34.4791272 35.3542237,34.4939912 L35.3542237,35.5761781 C33.0485565,34.933784 30.6493408,34.6122707 28.2504425,34.6122707 Z M50.7813692,35.5781546 C48.4753845,34.9344561 46.0761688,34.6129032 43.6772705,34.6129032 C41.2783722,34.6129032 38.8791565,34.9344561 36.573172,35.5781546 L36.573172,34.4937539 C36.6197876,34.477111 36.6663238,34.4606261 36.7128205,34.4442599 C37.2298371,34.2620177 37.7376099,34.0962602 38.2357026,33.9482922 C38.3277833,33.9209361 38.4188325,33.8955171 38.5102387,33.8693469 C38.999762,33.7291666 39.4810334,33.6043247 39.9526642,33.4977071 C40.0426422,33.4773877 40.1313111,33.4594797 40.2206544,33.4403858 C40.6884767,33.3402513 41.1487214,33.2545857 41.599286,33.1878953 C41.6835908,33.1754427 41.7664277,33.1657969 41.8501374,33.1544908 C42.300821,33.0935721 42.7443635,33.0467663 43.1781862,33.0197265 C43.2529298,33.0150617 43.3260866,33.01352 43.4003144,33.009883 C43.837668,32.988338 44.2681184,32.9809851 44.6887696,32.9942678 C44.7519685,32.9962445 44.8136598,33.0015022 44.8765016,33.0042694 C45.3025483,33.0231262 45.7217714,33.0565702 46.1311555,33.1115591 C46.1828096,33.1184772 46.2330751,33.1285578 46.2844911,33.1360689 C46.7002626,33.1968295 47.109012,33.272968 47.5080416,33.371284 C47.5482301,33.3812065 47.5872286,33.3939753 47.6272188,33.4042536 C48.0159334,33.5041508 48.3971101,33.6213235 48.7704714,33.7570762 C48.7948701,33.7659709 48.8200227,33.7730866 48.8443422,33.7821 C49.0321138,33.8506088 49.2407534,33.8255851 49.4047213,33.711575 C49.5687288,33.5982764 49.6665621,33.4118043 49.6665621,33.21284 L49.6665621,20.1854839 C50.0355989,20.2743912 50.408008,20.3736559 50.7813692,20.4835152 L50.7813692,35.5781546 L50.7813692,35.5781546 Z" id="Shape" fill-opacity="0.9" fill="#AE8422" fill-rule="nonzero"></path>
                    <path d="M41.7909157,16.6653802 C43.3207088,16.6450424 44.1576256,16.6974588 45.0057926,16.8107289 L45.0057926,16.8107289 L45.6277118,16.9050111 C46.7718691,17.0979933 47.8884373,17.3926035 48.9479309,17.7782454 L48.9479309,17.7782454 L48.9479309,19.4752877 L48.946,19.479 L48.9463043,33.0378355 L48.3028791,32.8451721 C48.22042,32.820481 48.1355773,32.8018368 48.0508479,32.7827958 C47.9788847,32.7666237 47.9069465,32.7503617 47.8349612,32.731644 L47.8349612,32.731644 L47.6878272,32.6930764 C47.4707043,32.6359289 47.2536338,32.5784356 47.0308553,32.5350566 C46.9008005,32.5097302 46.7674467,32.4923301 46.6341673,32.4746283 C46.5596409,32.4647299 46.4851233,32.4548134 46.4110996,32.4438444 L46.4110996,32.4438444 L46.2231438,32.4151833 C46.0473291,32.3879841 45.8715276,32.3605149 45.6914579,32.3431634 C45.5397442,32.3285413 45.384492,32.3222094 45.2292849,32.3156324 C45.1590665,32.3126568 45.0888534,32.3096743 45.0189742,32.3060653 L45.0189742,32.3060653 L44.8467593,32.2966692 C44.6637397,32.2864047 44.4806855,32.2759294 44.2935741,32.2749377 C44.1208547,32.2740283 43.9443271,32.2816128 43.76783,32.2890052 C43.7058723,32.2916002 43.6439182,32.2941929 43.5813583,32.2964948 L43.5813583,32.2964948 L43.4429201,32.3013794 C43.241605,32.3083345 43.0402507,32.3151321 42.8346586,32.3313835 C42.6375087,32.3469654 42.4362269,32.3713333 42.2346585,32.3955906 L42.2346585,32.3955906 L42.089173,32.4129925 L42.0062535,32.4227653 C41.7757755,32.4498872 41.5452638,32.4768919 41.310094,32.5138286 C41.0820077,32.549654 40.8494249,32.5947726 40.616812,32.6397873 L40.616812,32.6397873 L40.5373438,32.6551542 C40.2656609,32.7075937 39.9935702,32.7603714 39.7164669,32.8239124 C39.4546684,32.8839786 39.1880202,32.953467 38.9212059,33.0234074 C38.633473,33.0987861 38.3442851,33.1765695 38.0507471,33.2634247 C37.7835621,33.3425329 37.5124432,33.4289891 37.2401881,33.5176793 C37.1631418,33.5427512 37.087208,33.5657447 37.0112627,33.5887042 L37.0112627,33.5887042 L36.8740836,33.6305969 L36.8740836,33.6305969 L36.7351301,33.675891 L36.0728546,33.9031343 L36.0728546,17.7927161 C36.3832977,17.6772812 36.6961819,17.5742338 37.0107967,17.4778318 L37.0107967,17.4778318 L37.1668502,17.4293961 C37.3166554,17.3826118 37.4664579,17.3359629 37.6176085,17.2951905 C37.8690142,17.2273203 38.1226778,17.1711959 38.3763407,17.1152567 L38.3763407,17.1152567 L38.4559003,17.0976966 C38.5181792,17.0839489 38.5803193,17.0695787 38.6424607,17.0552165 C38.7832197,17.0226842 38.9240076,16.9903064 39.0660466,16.9639148 C39.3130824,16.9179749 39.5618652,16.8839965 39.8104693,16.8502435 L39.8104693,16.8502435 L39.9376376,16.832912 C40.004905,16.8236848 40.0719649,16.8134283 40.1390249,16.8031912 C40.2697435,16.7832363 40.4004753,16.7634669 40.5324764,16.749661 C40.9502618,16.7060269 41.3701372,16.6806023 41.7909157,16.6653802 Z" id="Path" stroke="#89BF7A" fill="#FFFFFF"></path>
                    <path d="M29.5288831,16.6482983 C30.6536979,16.6947027 30.8766843,16.7042708 31.0991922,16.724302 C31.7841754,16.8098884 32.1324542,16.8537338 32.3541849,16.8845511 L32.4737188,16.9017078 C32.5455259,16.9124096 32.6038103,16.9219457 32.662022,16.9321538 C32.8367784,16.9627714 33.010428,17.0009093 33.1817673,17.0387066 C33.7133605,17.1532913 33.9613572,17.206605 34.2074974,17.2714151 C34.3866309,17.3185719 34.5642819,17.3732034 34.7406636,17.4275978 C35.2956899,17.5971413 35.4811281,17.6579832 35.8542237,17.7935094 L35.8542237,17.7935094 L35.8542237,33.9131731 C35.3087944,33.708944 34.7785432,33.5333772 34.2556049,33.3712966 C33.6706005,33.190201 33.1563358,33.0514131 32.6515084,32.9264283 C31.9187769,32.7495708 31.4433858,32.6525488 30.9806915,32.5719823 C30.2476139,32.4523467 29.7863954,32.3907552 29.3405118,32.3496505 C28.7038048,32.298739 28.2574546,32.2759372 27.8207942,32.2732389 C27.2913691,32.2706435 26.8729142,32.2927559 26.4599092,32.3263372 C25.7872262,32.3971884 25.4755519,32.4402739 25.17629,32.4922365 C24.0172679,32.7135121 23.697427,32.8114649 22.9791077,33.0575097 L22.9791077,33.0575097 L22.9791077,17.7794238 C23.5944183,17.5556618 24.2175479,17.3673934 24.8453901,17.210183 C25.8745227,16.9905529 26.1336825,16.9340215 26.3944711,16.8914837 C27.5158615,16.7498348 27.7364375,16.7214985 27.9577307,16.7042008 C28.8815464,16.6652744 29.1980421,16.6519192 29.4007021,16.6489131 Z" id="Path" stroke="#89BF7A" fill="#FFFFFF"></path>
                </g>
            </g>
        </g>
    </g>
</svg>