<!-- Generated by IcoMoon.io -->
<svg version="1.1" xmlns="http://www.w3.org/2000/svg" width="41" height="32" viewBox="0 0 41 32">
<title>filter</title>
<path fill="#66925a" d="M24.578 26.7c1.271 0 2.302 1.031 2.302 2.302s-1.031 2.302-2.302 2.302h-7.784c-1.271 0-2.302-1.031-2.302-2.302s1.031-2.302 2.302-2.302h7.784zM30.772 14.424c1.271 0 2.302 1.031 2.302 2.302s-1.031 2.302-2.302 2.302h-20.171c-1.271 0-2.302-1.031-2.302-2.302s1.031-2.302 2.302-2.302h20.171zM37.998 2.148c1.271 0 2.302 1.031 2.302 2.302s-1.031 2.302-2.302 2.302h-34.622c-1.271 0-2.302-1.031-2.302-2.302s1.031-2.302 2.302-2.302h34.622z"></path>
</svg>
