<!-- Generated by IcoMoon.io -->
<svg version="1.1" xmlns="http://www.w3.org/2000/svg" width="26" height="32" viewBox="0 0 26 32">
<title>font-size</title>
<path fill="#66925a" d="M18.29 6.128c2.389-0.085 4.427-0.235 6.112-0.448v0l-0.16-1.632c-1.024 0.107-1.995 0.192-2.912 0.256-0.405-0.405-0.608-0.853-0.608-1.344 0-0.341 0.101-0.624 0.304-0.848s0.496-0.336 0.88-0.336c0.32 0 0.821 0.107 1.504 0.32v0l0.448-1.664c-0.789-0.299-1.536-0.448-2.24-0.448-0.832 0-1.477 0.229-1.936 0.688s-0.688 1.072-0.688 1.84c0 0.64 0.192 1.259 0.576 1.856-0.341 0.021-0.821 0.032-1.44 0.032v0l0.16 1.728zM20.434 30.16l2.272-0.48 0.032-21.408-0.16-0.128-2.336 0.608v21.312l0.192 0.096zM1.746 12.096c1.792-0.064 3.32-0.176 4.584-0.336v0l-0.12-1.224c-0.768 0.080-1.496 0.144-2.184 0.192-0.304-0.304-0.456-0.64-0.456-1.008 0-0.256 0.076-0.468 0.228-0.636s0.372-0.252 0.66-0.252c0.24 0 0.616 0.080 1.128 0.24v0l0.336-1.248c-0.592-0.224-1.152-0.336-1.68-0.336-0.624 0-1.108 0.172-1.452 0.516s-0.516 0.804-0.516 1.38c0 0.48 0.144 0.944 0.432 1.392-0.256 0.016-0.616 0.024-1.080 0.024v0l0.12 1.296zM3.354 30.12l1.704-0.36 0.024-16.056-0.12-0.096-1.752 0.456v15.984l0.144 0.072z"></path>
</svg>
