<?xml version="1.0" encoding="UTF-8"?>
<svg width="213px" height="63px" viewBox="0 0 213 63" version="1.1" xmlns="http://www.w3.org/2000/svg" xmlns:xlink="http://www.w3.org/1999/xlink">
    <title>Google_Play_Dark</title>
    <defs>
        <linearGradient x1="60.9784724%" y1="4.94958549%" x2="26.5728895%" y2="71.9258683%" id="linearGradient-1">
            <stop stop-color="#00A0FF" offset="0%"></stop>
            <stop stop-color="#00A1FF" offset="0.6569999%"></stop>
            <stop stop-color="#00BEFF" offset="26.01%"></stop>
            <stop stop-color="#00D2FF" offset="51.22%"></stop>
            <stop stop-color="#00DFFF" offset="76.04%"></stop>
            <stop stop-color="#00E3FF" offset="100%"></stop>
        </linearGradient>
        <linearGradient x1="107.630451%" y1="50.0004315%" x2="-130.551706%" y2="50.0004315%" id="linearGradient-2">
            <stop stop-color="#FFE000" offset="0%"></stop>
            <stop stop-color="#FFBD00" offset="40.87%"></stop>
            <stop stop-color="#FFA500" offset="77.54%"></stop>
            <stop stop-color="#FF9C00" offset="100%"></stop>
        </linearGradient>
        <linearGradient x1="86.243474%" y1="30.8143365%" x2="-50.1292379%" y2="136.424482%" id="linearGradient-3">
            <stop stop-color="#FF3A44" offset="0%"></stop>
            <stop stop-color="#C31162" offset="100%"></stop>
        </linearGradient>
        <linearGradient x1="-18.8105628%" y1="-12.1161873%" x2="42.0848536%" y2="35.0164276%" id="linearGradient-4">
            <stop stop-color="#32A071" offset="0%"></stop>
            <stop stop-color="#2DA771" offset="6.85%"></stop>
            <stop stop-color="#15CF74" offset="47.62%"></stop>
            <stop stop-color="#06E775" offset="80.09%"></stop>
            <stop stop-color="#00F076" offset="100%"></stop>
        </linearGradient>
    </defs>
    <g id="Page-1" stroke="none" stroke-width="1" fill="none" fill-rule="evenodd">
        <g id="Google_Play_Dark">
            <path d="M205.108209,63 L7.89179146,63 C3.54229368,63 0,59.4493766 0,55.125 L0,7.875 C0,3.53491272 3.54229368,0 7.89179146,0 L205.108209,0 C209.453788,0 213,3.53491272 213,7.875 L213,55.125 C213,59.4493766 209.453788,63 205.108209,63 Z" id="Path" fill="#000000" fill-rule="nonzero"></path>
            <path d="M112.209206,20.8402743 C110.786802,20.8402743 109.587752,20.3414589 108.639483,19.3595387 C107.699051,18.4051122 107.173976,17.0893392 107.197487,15.7460723 C107.197487,14.3124688 107.683377,13.0988155 108.639483,12.1365337 C109.583833,11.1546135 110.782884,10.655798 112.205287,10.655798 C113.612017,10.655798 114.811067,11.1546135 115.77501,12.1365337 C116.731116,13.1302369 117.217006,14.3438903 117.217006,15.7460723 C117.201332,17.1836035 116.715442,18.3972569 115.77501,19.355611 C114.83066,20.3453865 113.631609,20.8402743 112.209206,20.8402743 Z M69.8858494,20.8402743 C68.4947938,20.8402743 67.2879061,20.3493142 66.3004526,19.3791771 C65.3208359,18.4129676 64.8231907,17.1914589 64.8231907,15.75 C64.8231907,14.3085411 65.3208359,13.0870324 66.3004526,12.1208229 C67.2683138,11.1506858 68.4752014,10.6597257 69.8858494,10.6597257 C70.5754995,10.6597257 71.2455572,10.7971945 71.8881857,11.0760599 C72.5190588,11.3470698 73.0323779,11.7162718 73.4124692,12.1679551 L73.5065124,12.2818579 L72.444608,13.3266209 L72.3348909,13.1970075 C71.7353655,12.4821696 70.9320799,12.132606 69.8701755,12.132606 C68.9219066,12.132606 68.0951102,12.4703865 67.413297,13.1380923 C66.7275654,13.8097257 66.3788219,14.6895262 66.3788219,15.7539277 C66.3788219,16.8183292 66.7275654,17.6981297 67.413297,18.3697631 C68.0951102,19.0374688 68.9219066,19.3752494 69.8701755,19.3752494 C70.8811399,19.3752494 71.7314471,19.0374688 72.3936679,18.3697631 C72.7855146,17.976995 73.0284595,17.4271197 73.1146657,16.7319202 L69.7095184,16.7319202 L69.7095184,15.2629676 L74.5762537,15.2629676 L74.5958461,15.3965087 C74.6311123,15.6439526 74.6663785,15.8992519 74.6663785,16.1349127 C74.6663785,17.4899626 74.2588579,18.5857855 73.4516539,19.3948878 C72.5347327,20.3532419 71.335682,20.8402743 69.8858494,20.8402743 Z M126.158946,20.6321072 L124.658174,20.6321072 L120.061812,13.2598504 L120.100997,14.5874065 L120.100997,20.6281796 L118.600224,20.6281796 L118.600224,10.8678928 L120.312594,10.8678928 L120.359616,10.9425187 L124.681684,17.8866584 L124.6425,16.5630299 L124.6425,10.8678928 L126.158946,10.8678928 L126.158946,20.6321072 L126.158946,20.6321072 Z M100.931859,20.6321072 L99.4114942,20.6321072 L99.4114942,12.3368454 L96.7743662,12.3368454 L96.7743662,10.8678928 L103.565069,10.8678928 L103.565069,12.3368454 L100.927941,12.3368454 L100.927941,20.6321072 L100.931859,20.6321072 Z M95.5361308,20.6321072 L94.0196843,20.6321072 L94.0196843,10.8678928 L95.5361308,10.8678928 L95.5361308,20.6321072 Z M87.0134663,20.6321072 L85.4970198,20.6321072 L85.4970198,12.3368454 L82.8598918,12.3368454 L82.8598918,10.8678928 L89.6505942,10.8678928 L89.6505942,12.3368454 L87.0134663,12.3368454 L87.0134663,20.6321072 Z M81.8998675,20.6163965 L76.0848633,20.6163965 L76.0848633,10.8678928 L81.8998675,10.8678928 L81.8998675,12.3368454 L77.6052283,12.3368454 L77.6052283,15.0155237 L81.4805916,15.0155237 L81.4805916,16.4687656 L77.6052283,16.4687656 L77.6052283,19.1474439 L81.8998675,19.1474439 L81.8998675,20.6163965 Z M109.752327,18.3501247 C110.430222,19.0296135 111.2531,19.3713217 112.209206,19.3713217 C113.192741,19.3713217 113.996026,19.0374688 114.666084,18.3501247 C115.332223,17.682419 115.669212,16.8065461 115.669212,15.75 C115.669212,14.6934539 115.332223,13.8136534 114.670003,13.1498753 C113.992108,12.4703865 113.165311,12.1286783 112.213124,12.1286783 C111.229589,12.1286783 110.426303,12.4625312 109.760164,13.1498753 C109.094025,13.817581 108.757037,14.6934539 108.757037,15.75 C108.757037,16.8065461 109.090106,17.6863466 109.752327,18.3501247 L109.752327,18.3501247 Z" id="Shape" fill="#FFFFFF" fill-rule="nonzero"></path>
            <path d="M107.056422,34.2650873 C103.353471,34.2650873 100.351926,37.0812344 100.351926,40.9657107 C100.351926,44.8148379 103.373064,47.6663342 107.056422,47.6663342 C110.759373,47.6663342 113.760918,44.8305486 113.760918,40.9657107 C113.760918,37.0812344 110.759373,34.2650873 107.056422,34.2650873 Z M107.056422,45.0112219 C105.030575,45.0112219 103.286858,43.3301746 103.286858,40.95 C103.286858,38.5344763 105.034494,36.8887781 107.056422,36.8887781 C109.082269,36.8887781 110.825994,38.5344763 110.825994,40.95 C110.829905,43.3458853 109.082269,45.0112219 107.056422,45.0112219 Z M92.4287869,34.2650873 C88.7258361,34.2650873 85.7242908,37.0812344 85.7242908,40.9657107 C85.7242908,44.8148379 88.7454285,47.6663342 92.4287869,47.6663342 C96.1317377,47.6663342 99.133283,44.8305486 99.133283,40.9657107 C99.133283,37.0812344 96.1278193,34.2650873 92.4287869,34.2650873 Z M92.4287869,45.0112219 C90.4029398,45.0112219 88.6592222,43.3301746 88.6592222,40.95 C88.6592222,38.5344763 90.4068582,36.8887781 92.4287869,36.8887781 C94.4546341,36.8887781 96.1983517,38.5344763 96.1983517,40.95 C96.1983517,43.3458853 94.4546341,45.0112219 92.4287869,45.0112219 Z M75.0229589,36.311409 L75.0229589,39.1471945 L81.8136613,39.1471945 C81.6059826,40.7379052 81.0809081,41.9122818 80.2776224,42.7174564 C79.2823319,43.7150873 77.7462931,44.7991272 75.0386328,44.7991272 C70.865466,44.7991272 67.6013834,41.4213217 67.6013834,37.2383416 C67.6013834,33.0553616 70.865466,29.6775561 75.0386328,29.6775561 C77.291751,29.6775561 78.9335884,30.5691397 80.1522315,31.7081671 L82.1584863,29.6971945 C80.4657088,28.0711347 78.2125906,26.8260599 75.0543066,26.8260599 C69.3294271,26.8260599 64.5253872,31.5 64.5253872,37.2226309 C64.5253872,42.9609726 69.3255087,47.619202 75.0543066,47.619202 C78.1459767,47.619202 80.4657088,46.6058603 82.2995511,44.6970075 C84.1686596,42.8235037 84.7603481,40.1801746 84.7603481,38.0474439 C84.7603481,37.3836658 84.709408,36.7866584 84.6036094,36.2799875 L75.0190404,36.2799875 C75.0229589,36.2760599 75.0229589,36.311409 75.0229589,36.311409 Z M146.217576,38.5187656 C145.657235,37.0144638 143.964458,34.2493766 140.492697,34.2493766 C137.052283,34.2493766 134.191802,36.963404 134.191802,40.95 C134.191802,44.7127182 137.020935,47.6506234 140.825766,47.6506234 C143.88217,47.6506234 145.661154,45.7771197 146.393907,44.6773691 L144.125115,43.1534289 C143.372769,44.272818 142.326539,45.0072943 140.84144,45.0072943 C139.340667,45.0072943 138.290518,44.3238778 137.593031,42.9766833 L146.531053,39.2650249 C146.531053,39.2689526 146.217576,38.5187656 146.217576,38.5187656 Z M137.103223,40.7575436 C137.032691,38.169202 139.109478,36.8534289 140.594577,36.8534289 C141.766198,36.8534289 142.741896,37.430798 143.074966,38.2713217 L137.103223,40.7575436 Z M129.842305,47.25 L132.777236,47.25 L132.777236,27.5644638 L129.842305,27.5644638 L129.842305,47.25 Z M125.022591,35.7536783 L124.916792,35.7536783 C124.254572,34.9642145 122.996744,34.2493766 121.390173,34.2493766 C118.055558,34.2493766 114.98348,37.1912095 114.98348,40.9696384 C114.98348,44.7323566 118.039884,47.6388404 121.390173,47.6388404 C122.977151,47.6388404 124.254572,46.9200748 124.916792,46.1149002 L125.022591,46.1149002 L125.022591,47.077182 C125.022591,49.6341022 123.658965,51.0127182 121.460705,51.0127182 C119.662129,51.0127182 118.545366,49.7165835 118.090824,48.6325436 L115.539902,49.7008728 C116.272655,51.4683292 118.22797,53.6560474 121.456786,53.6560474 C124.8972,53.6560474 127.812539,51.6254364 127.812539,46.6726309 L127.812539,34.65 L125.038265,34.65 L125.038265,35.7536783 C125.042183,35.7536783 125.022591,35.7536783 125.022591,35.7536783 Z M121.65271,45.0112219 C119.626863,45.0112219 117.934085,43.3144638 117.934085,40.9696384 C117.934085,38.6051746 119.626863,36.8927057 121.65271,36.8927057 C123.658965,36.8927057 125.214596,38.624813 125.214596,40.9696384 C125.234188,43.3144638 123.662883,45.0112219 121.65271,45.0112219 Z M159.959638,27.5644638 L152.941665,27.5644638 L152.941665,47.25 L155.876596,47.25 L155.876596,39.7952618 L159.963556,39.7952618 C163.211965,39.7952618 166.405515,37.4347257 166.405515,33.6877182 C166.405515,29.9407107 163.223721,27.5644638 159.959638,27.5644638 Z M160.045844,37.0458853 L155.872677,37.0458853 L155.872677,30.2902743 L160.045844,30.2902743 C162.244104,30.2902743 163.486258,32.1087905 163.486258,33.6680798 C163.486258,35.2116584 162.22843,37.0458853 160.045844,37.0458853 Z M178.168752,34.2297382 C176.037106,34.2297382 173.838846,35.1763092 172.929762,37.2383416 L175.531624,38.3223815 C176.091964,37.2383416 177.118603,36.8691397 178.204018,36.8691397 C179.724383,36.8691397 181.260422,37.7803616 181.295688,39.4064214 L181.295688,39.6145885 C180.770613,39.3160848 179.618584,38.8604738 178.239284,38.8604738 C175.429744,38.8604738 172.581018,40.4001247 172.581018,43.2869701 C172.581018,45.9302993 174.885077,47.6270574 177.451672,47.6270574 C179.422661,47.6270574 180.508076,46.7354738 181.185971,45.7024938 L181.291769,45.7024938 L181.291769,47.2264339 L184.120902,47.2264339 L184.120902,39.6852868 C184.120902,36.1739401 181.51904,34.2297382 178.168752,34.2297382 Z M177.800416,45.0112219 C176.840391,45.0112219 175.496357,44.5399002 175.496357,43.3301746 C175.496357,41.8062344 177.173461,41.2288653 178.603701,41.2288653 C179.896795,41.2288653 180.508076,41.5077307 181.276096,41.8926434 C181.064498,43.6600998 179.575481,44.9955112 177.800416,45.0112219 Z M194.442143,34.65 L191.072262,43.1887781 L190.966463,43.1887781 L187.475109,34.65 L184.316825,34.65 L189.555815,46.5862219 L186.569944,53.2200748 L189.626348,53.2200748 L197.686633,34.65 C197.686633,34.65 194.442143,34.65 194.442143,34.65 Z M168.023842,47.25 L170.958773,47.25 L170.958773,27.5644638 L168.023842,27.5644638 L168.023842,47.25 Z" id="Shape" fill="#FFFFFF"></path>
            <path d="M16.3948637,11.8655237 C15.9403216,12.3564838 15.6777843,13.1066708 15.6777843,14.088591 L15.6777843,48.9153367 C15.6777843,49.8972569 15.9403216,50.6474439 16.4105375,51.1187656 L16.53201,51.224813 L35.9989514,31.7120948 L35.9989514,31.2761222 L16.5163361,11.7594763 C16.5163361,11.7594763 16.3948637,11.8655237 16.3948637,11.8655237 Z" id="Path" fill="url(#linearGradient-1)"></path>
            <path d="M42.4761765,38.2359726 L35.9832775,31.7278055 L35.9832775,31.2721945 L42.4761765,24.7640274 L42.6172413,24.8504364 L50.2974355,29.2258728 C52.4956952,30.46702 52.4956952,32.5172693 50.2974355,33.7741272 L42.6172413,38.1495636 C42.6172413,38.1495636 42.4761765,38.2359726 42.4761765,38.2359726 Z" id="Path" fill="url(#linearGradient-2)"></path>
            <path d="M42.6172413,38.1495636 L35.9832775,31.5 L16.3948637,51.1344763 C17.111943,51.9043017 18.3149122,51.9907107 19.6589462,51.2405237 L42.6172413,38.1495636" id="Path" fill="url(#linearGradient-3)"></path>
            <path d="M42.6172413,24.8504364 L19.6589462,11.7791147 C18.3149122,11.0092893 17.1080246,11.1153367 16.3948637,11.8851621 L35.9832775,31.5 L42.6172413,24.8504364 Z" id="Path" fill="url(#linearGradient-4)"></path>
            <path d="M42.4761765,38.0081671 L19.6746201,50.9930798 C18.4011185,51.7275561 17.2647632,51.6764963 16.53201,51.0087905 L16.4105375,51.1305486 L16.53201,51.236596 C17.2647632,51.9003741 18.4011185,51.9553616 19.6746201,51.2208853 L42.6329151,38.1495636 C42.6329151,38.1495636 42.4761765,38.0081671 42.4761765,38.0081671 Z" id="Path" fill="#000000" fill-rule="nonzero" opacity="0.2"></path>
            <path d="M50.2974355,33.5463217 L42.4565841,38.0081671 L42.5976489,38.1495636 L50.2778432,33.7741272 C51.3789323,33.1456983 51.9196806,32.3208853 51.9196806,31.5 C51.8530667,32.2541147 51.292726,32.9689526 50.2974355,33.5463217 Z" id="Path" fill="#000000" fill-rule="nonzero" opacity="0.12"></path>
            <path d="M19.6589462,12.0069202 L50.2974355,29.4536783 C51.292726,30.0153367 51.8530667,30.749813 51.939273,31.5 C51.939273,30.6791147 51.3985246,29.8543017 50.2974355,29.2258728 L19.6589462,11.7791147 C17.4606866,10.5183292 15.6777843,11.5709476 15.6777843,14.088591 L15.6777843,14.3163965 C15.6777843,11.7948254 17.4606866,10.7618454 19.6589462,12.0069202 Z" id="Path" fill="#FFFFFF" opacity="0.25"></path>
        </g>
    </g>
</svg>