<!-- Generated by IcoMoon.io -->
<svg version="1.1" xmlns="http://www.w3.org/2000/svg" width="32" height="32" viewBox="0 0 32 32">
<title>lang</title>
<path fill="#6a965d" d="M15.597 0.48l0.43 0.006c8.146 0.237 14.677 6.909 14.686 15.11 0 8.349-6.768 15.117-15.117 15.117s-15.117-6.768-15.117-15.117c0-8.349 6.768-15.117 15.117-15.117v0zM22.921 22.907l-1.247 0.216c-1.842 0.315-3.705 0.486-5.573 0.511v0 6.046l0.308-0.039c2.759-0.428 5.141-3.021 6.512-6.734v0zM8.273 22.908l0.156 0.408c1.445 3.627 3.878 6.096 6.664 6.364v0-6.047c-1.868-0.025-3.732-0.195-5.573-0.511v0l-1.247-0.215zM3.033 22.003l0.238 0.445c1.72 3.082 4.532 5.418 7.892 6.539v0l-0.396-0.369c-1.681-1.63-2.925-3.66-3.613-5.905v0l-4.121-0.711zM28.16 22.003l-4.121 0.711c-0.741 2.417-2.127 4.586-4.009 6.273v0l0.476-0.168c3.306-1.236 6.039-3.664 7.654-6.816v0zM15.093 16.1h-8.055c0.034 1.938 0.328 3.863 0.874 5.722v0l1.779 0.307c1.785 0.305 3.591 0.47 5.402 0.493v0-6.522zM24.155 16.1h-8.055v6.522l0.905-0.023c1.507-0.059 3.009-0.215 4.496-0.47v0l1.779-0.307c0.546-1.86 0.84-3.784 0.874-5.722v0zM29.693 16.1h-4.531c-0.033 1.87-0.299 3.729-0.791 5.534v0l4.299-0.742c0.62-1.525 0.966-3.147 1.023-4.792v0zM6.031 16.1h-4.531c0.057 1.645 0.403 3.267 1.023 4.792v0l4.299 0.742-0.197-0.777c-0.366-1.559-0.566-3.154-0.594-4.757v0zM6.822 9.559l-4.299 0.742c-0.62 1.525-0.966 3.147-1.023 4.792v0h4.531c0.033-1.87 0.299-3.729 0.791-5.534v0zM16.1 8.57v6.522h8.055c-0.034-1.938-0.328-3.863-0.874-5.722v0l-1.779-0.307c-1.785-0.305-3.591-0.47-5.402-0.493v0zM15.093 8.57l-0.905 0.023c-1.507 0.059-3.009 0.216-4.496 0.47v0l-1.779 0.307c-0.546 1.86-0.84 3.784-0.874 5.722v0h8.055v-6.522zM24.371 9.559l0.197 0.777c0.366 1.559 0.566 3.154 0.594 4.757v0h4.531c-0.057-1.645-0.403-3.267-1.023-4.792v0l-4.299-0.742zM20.031 2.206l0.396 0.369c1.681 1.63 2.925 3.66 3.613 5.905v0l4.121 0.711-0.238-0.445c-1.72-3.082-4.532-5.418-7.892-6.539v0zM11.162 2.206l-0.476 0.168c-3.306 1.236-6.039 3.664-7.654 6.816v0l4.121-0.711c0.741-2.417 2.127-4.586 4.009-6.273v0zM16.1 1.516v6.047c1.868 0.023 3.732 0.193 5.573 0.508v0l1.247 0.217-0.157-0.408c-1.445-3.627-3.878-6.096-6.664-6.364v0zM15.093 1.514l-0.308 0.039c-2.759 0.428-5.141 3.021-6.512 6.734v0l1.247-0.216c1.842-0.315 3.705-0.485 5.573-0.508v0-6.049z"></path>
</svg>
