<?xml version="1.0" encoding="UTF-8"?>
<svg width="80px" height="80px" viewBox="0 0 80 80" version="1.1" xmlns="http://www.w3.org/2000/svg" xmlns:xlink="http://www.w3.org/1999/xlink">
    <title>con-icon</title>
    <g id="Page-1" stroke="none" stroke-width="1" fill="none" fill-rule="evenodd">
        <g id="Desktop-HD-Copy-12" transform="translate(-1015.000000, -703.000000)">
            <g id="Group-11" transform="translate(-680.000000, -905.000000)">
                <g id="Group-29" transform="translate(920.000000, 1609.000000)">
                    <g id="parties" transform="translate(670.000000, 0.000000)">
                        <g id="con-icon" transform="translate(106.000000, 0.000000)">
                            <circle id="Oval" stroke-opacity="0.313838505" stroke="#A37F21" stroke-width="0.76949995" fill="#FFFFFF" cx="39.2444974" cy="39.2444974" r="39.2444974"></circle>
                            <circle id="Oval" fill="#F5F5F5" cx="39.2349981" cy="39.2349981" r="35.2349981"></circle>
                            <g id="notepad" transform="translate(24.000000, 19.000000)" fill="#C4AE76" fill-rule="nonzero">
                                <path d="M25.5846869,2.71593746 L19.1562496,2.71593746 C18.4278121,1.06531246 16.7934371,0 14.9890621,0 C13.1843747,0 11.5499997,1.06531246 10.8215622,2.71593746 L4.39281238,2.71593746 C1.96781244,2.71874994 0.00281247994,4.68406238 1.77635684e-15,7.10906232 L1.77635684e-15,35.6068742 C0.00281247994,38.0318742 1.96781244,39.9971866 4.39281238,40 L25.5846869,40 C28.0096869,39.9971866 29.9749993,38.0318742 29.9778118,35.6068742 L29.9778118,7.10906232 C29.9749993,4.68406238 28.0096869,2.71874994 25.5846869,2.71593746 Z M11.5449997,4.71593741 C12.0143748,4.71593741 12.4206247,4.38937494 12.5215622,3.93031239 C12.7671872,2.81218746 13.8049997,1.99999996 14.9890621,1.99999996 C16.1731246,1.99999996 17.2106246,2.81218746 17.4562496,3.93031239 C17.5568746,4.38937494 17.9631246,4.71593741 18.4331245,4.71593741 L20.4159371,4.71593741 L20.4159371,5.59343739 C20.4143746,6.91437489 19.344062,7.98468734 18.0231246,7.98624982 L11.9546873,7.98624982 C10.6334373,7.98468734 9.56312475,6.91437489 9.56156227,5.59343739 L9.56156227,4.71593741 L11.5449997,4.71593741 Z M27.9778119,35.6068742 C27.9765619,36.9281241 26.9059369,37.9987492 25.5846869,37.9999992 L4.39281238,37.9999992 C3.07187497,37.9987492 2.00156244,36.9281241 1.99999996,35.6068742 L1.99999996,7.10906232 C2.00156244,5.78781235 3.07187497,4.71749989 4.39281238,4.71593741 L7.56156231,4.71593741 L7.56156231,5.59343739 C7.56437487,8.01843734 9.52968731,9.9834373 11.9546873,9.98624978 L18.0231246,9.98624978 C20.4481245,9.9834373 22.4131245,8.01843734 22.415937,5.59343739 L22.415937,4.71593741 L25.5846869,4.71593741 C26.9059369,4.71749989 27.9762494,5.78781235 27.9778119,7.10906232 L27.9778119,35.6068742 Z" id="Shape"></path>
                                <path d="M19.9381245,18.4765621 L13.3731247,24.8865619 L10.0393748,21.6324995 C9.6471873,21.2487495 9.01906228,21.253437 8.63187485,21.642187 C8.24499982,22.0312495 8.24343734,22.6593745 8.62874981,23.0499995 L8.64218733,23.0631244 L12.6740622,26.9999994 C13.0628122,27.3793744 13.6831247,27.3793744 14.0715622,26.9999994 L21.3349995,19.9081245 C21.727812,19.5218746 21.734062,18.8909371 21.349687,18.4968746 C20.9646871,18.1028121 20.334062,18.0940621 19.9381245,18.4771871 L19.9381245,18.4765621 Z" id="Path"></path>
                            </g>
                        </g>
                    </g>
                </g>
            </g>
        </g>
    </g>
</svg>