<?xml version="1.0" encoding="UTF-8"?>
<svg width="61px" height="60px" viewBox="0 0 61 60" version="1.1" xmlns="http://www.w3.org/2000/svg" xmlns:xlink="http://www.w3.org/1999/xlink">
    <title>coun-icon</title>
    <g id="Page-1" stroke="none" stroke-width="1" fill="none" fill-rule="evenodd">
        <g id="Desktop-HD-Copy-12" transform="translate(-685.000000, -1828.000000)">
            <g id="Group-11" transform="translate(-680.000000, -905.000000)">
                <g id="Group-26" transform="translate(631.000000, 2650.000000)">
                    <g id="Group-23" transform="translate(451.000000, 0.000000)">
                        <g id="Group-24" transform="translate(0.000000, 83.000000)">
                            <g id="Group-17" transform="translate(244.390007, 0.000000)">
                                <g id="coun-icon" transform="translate(39.000000, 0.000000)">
                                    <circle id="Oval" fill="#FFFFFF" cx="29.9700004" cy="29.9700004" r="29.9700004"></circle>
                                    <path d="M21.0714282,20.6428564 C21.4066217,20.6428564 21.6927737,20.7614872 21.9299284,20.9986419 C22.1670832,21.2357967 22.285714,21.5219487 22.285714,21.8571422 C22.285714,22.3989919 21.9939995,22.7842647 21.4285711,23.0229831 L21.4285711,23.0229831 L21.4285711,39.9253347 L20.7075784,23.0521446 C20.1108451,22.700085 19.8571424,22.3474253 19.8571424,21.8571422 C19.8571424,21.5219487 19.9757732,21.2357967 20.212928,20.9986419 C20.4500827,20.7614872 20.7362347,20.6428564 21.0714282,20.6428564 Z M41.6428576,22.3571422 L42.0000005,32.8260601 C41.8326009,33.1899785 41.7315632,33.2910888 41.5661559,33.3769258 C39.7387342,34.3628836 38.1724346,34.8705356 36.8616074,34.8705356 C36.3714991,34.8705356 35.8756299,34.7809713 35.3736048,34.6042584 C34.846462,34.4187041 34.38851,34.217068 34.000493,33.9977541 C33.5643804,33.7512557 33.017526,33.5221086 32.3584833,33.3134908 C31.6888849,33.1015316 31.0024279,32.9955355 30.2991071,32.9955355 C28.5377571,32.9955355 26.4087117,33.6451102 23.9174531,34.973108 C23.6290607,35.0260394 23.4860067,35.0556858 23.3937317,34.9634107 L23.3937317,34.9634107 L23.285714,24.8096126 C23.670443,24.3299183 24.0019712,24.1517804 24.4855517,23.9099777 C26.5080024,22.8816129 28.3105871,22.3571422 29.8973214,22.3571422 C30.7994749,22.3571422 31.6428326,22.4783261 32.4270477,22.7228663 C33.2392666,22.9761388 34.195222,23.3611126 35.2953129,23.8762895 C35.6966735,24.074879 36.1599843,24.1785708 36.6875002,24.1785708 C37.2174776,24.1785708 37.7946271,24.0782404 38.4181531,23.8720349 C39.0188026,23.6733949 39.5385964,23.4501762 39.9783912,23.2042695 C40.3871414,22.975721 40.7739022,22.7691226 41.1387011,22.5845256 C41.3946337,22.4550175 41.5604556,22.3571422 41.6428576,22.3571422 L41.6428576,22.3571422 Z" id="" stroke="#C4AE76" fill-rule="nonzero"></path>
                                </g>
                            </g>
                        </g>
                    </g>
                </g>
            </g>
        </g>
    </g>
</svg>