<?xml version="1.0" encoding="UTF-8"?>
<svg width="61px" height="60px" viewBox="0 0 61 60" version="1.1" xmlns="http://www.w3.org/2000/svg" xmlns:xlink="http://www.w3.org/1999/xlink">
    <title>users-icon</title>
    <g id="Page-1" stroke="none" stroke-width="1" fill="none" fill-rule="evenodd">
        <g id="Desktop-HD-Copy-12" transform="translate(-954.000000, -1828.000000)">
            <g id="Group-11" transform="translate(-680.000000, -905.000000)">
                <g id="Group-26" transform="translate(631.000000, 2650.000000)">
                    <g id="Group-23" transform="translate(451.000000, 0.000000)">
                        <g id="Group-24" transform="translate(0.000000, 83.000000)">
                            <g id="Group-17" transform="translate(529.680010, 0.000000)">
                                <g id="users-icon" transform="translate(23.000000, 0.000000)">
                                    <circle id="Oval" fill="#FFFFFF" cx="29.9700004" cy="29.9700004" r="29.9700004"></circle>
                                    <path d="M26.0044643,31.0714286 C26.0407738,31.0714286 26.1055429,31.1613253 26.2114348,31.2303155 C26.4560044,31.3896563 26.7265125,31.5675264 27.0229606,31.7639232 C27.3516005,31.9816472 27.7896806,32.1821359 28.340529,32.3589007 C28.8895885,32.5350914 29.4427885,32.6227679 30,32.6227679 C30.5572115,32.6227679 31.1104115,32.5350914 31.659471,32.3589007 C32.2103194,32.1821359 32.6483995,31.9816472 32.9770394,31.7639232 C33.2734875,31.5675264 33.5439956,31.3896563 33.7885652,31.2303155 C34.3819726,31.0714286 34.7356941,31.1327196 35.0558482,31.2595133 C35.3673555,31.3828826 35.6323776,31.5461206 35.848468,31.7529499 C36.0758264,31.9705644 36.2761519,32.2343997 36.4514771,32.5428422 C36.6348999,32.8655304 36.7811599,33.1966307 36.8898594,33.5363164 C37.0026049,33.8886463 37.0957077,34.2709846 37.1696948,34.6831981 C37.2443682,35.099236 37.2943852,35.4868028 37.3192769,35.8459545 C37.3445392,36.2104533 37.3571429,36.5839751 37.3571429,36.9665179 C37.3571429,37.7015308 37.1477995,38.2907736 36.6976451,38.7193453 C36.2409779,39.1541174 35.6299345,39.3571429 34.8772321,39.3571429 L34.8772321,39.3571429 L25.1349051,39.3571429 C24.2718029,39.3144392 23.7208159,39.117743 23.3023549,38.7193453 C22.8522005,38.2907736 22.6428571,37.7015308 22.6428571,36.9665179 C22.6428571,36.5839751 22.6554608,36.2104533 22.6807231,35.8459545 C22.7056148,35.4868028 22.7556318,35.099236 22.8303052,34.6831981 C22.9042923,34.2709846 22.9973951,33.8886463 23.1101406,33.5363164 C23.2188401,33.1966307 23.3651001,32.8655304 23.5485229,32.5428422 C23.7238481,32.2343997 23.9241736,31.9705644 24.151532,31.7529499 C24.3676224,31.5461206 24.6326445,31.3828826 24.9441518,31.2595133 C25.2643059,31.1327196 25.6180274,31.0714286 26.0044643,31.0714286 Z M30,23.2142857 C31.0441475,23.2142857 31.933943,23.5853688 32.672575,24.3305677 C33.4146312,25.066057 33.7857143,25.9558525 33.7857143,27 C33.7857143,28.0450149 33.4159674,28.9371936 32.6765805,29.6765805 C31.9371936,30.4159674 31.0450149,30.7857143 30,30.7857143 C28.9549851,30.7857143 28.0628064,30.4159674 27.3234195,29.6765805 C26.5840326,28.9371936 26.2142857,28.0450149 26.2142857,27 C26.2142857,25.9549851 26.5840326,25.0628064 27.3234195,24.3234195 C28.0628064,23.5840326 28.9549851,23.2142857 30,23.2142857 Z M20.4083438,26.1803562 C20.6940179,26.0714286 20.7722177,26.1644324 20.9108322,26.2420566 C21.209361,26.4092327 21.596908,26.5796404 22.0746385,26.7508271 C22.5777612,26.9311128 23.076821,27.0200893 23.5714286,27.0200893 C23.8824136,27.0200893 24.1921371,26.9902972 24.5005583,26.9305576 C24.5001858,26.9540112 24.5,26.9771587 24.5,27 C24.5,27.8679567 24.6924225,28.6837438 25.0780679,29.4470212 C24.1592703,29.6278603 23.3733818,30.0743568 22.7200133,30.7857143 L22.7200133,30.7857143 L21.4647189,30.7857143 C20.867474,30.7520098 20.5029493,30.6449609 20.2037237,30.4285566 C19.9146988,30.2195297 19.7857143,29.9080328 19.7857143,29.5111607 C19.7857143,28.2728938 19.8857186,27.3418698 20.1034378,26.7220725 C20.1867657,26.4848569 20.2823185,26.2999447 20.4083438,26.1803562 Z M39.0891678,26.2420566 C39.430594,26.0714286 39.5169993,26.1095125 39.5916562,26.1803562 C39.7176815,26.2999447 39.8132343,26.4848569 39.8965622,26.7220725 C40.1142814,27.3418698 40.2142857,28.2728938 40.2142857,29.5111607 C40.2142857,29.9080328 40.0853012,30.2195297 39.7962763,30.4285566 C39.4588779,30.672568 39.0410611,30.7857143 38.5491071,30.7857143 L38.5491071,30.7857143 L37.2681202,30.7857143 C36.533738,30.0377594 35.7728111,29.6194507 34.921342,29.447779 C35.3074544,28.6842656 35.5,27.8682343 35.5,27 C35.5,26.9771444 35.499814,26.9539821 35.4995368,26.9305179 C35.8079302,26.9903037 36.1176202,27.0200893 36.4285714,27.0200893 C36.923179,27.0200893 37.4222388,26.9311128 37.9253615,26.7508271 C38.403092,26.5796404 38.790639,26.4092327 39.0891678,26.2420566 Z M23.5714286,20.3571429 C24.2220982,20.3571429 24.7775954,20.5873808 25.2379645,21.0477498 C25.6983335,21.5081189 25.9285714,22.0636161 25.9285714,22.7142857 C25.9285714,23.3649554 25.6983335,23.9204526 25.2379645,24.3808216 C24.7775954,24.8411906 24.2220982,25.0714286 23.5714286,25.0714286 C22.9207589,25.0714286 22.3652617,24.8411906 21.9048927,24.3808216 C21.4445236,23.9204526 21.2142857,23.3649554 21.2142857,22.7142857 C21.2142857,22.0636161 21.4445236,21.5081189 21.9048927,21.0477498 C22.3652617,20.5873808 22.9207589,20.3571429 23.5714286,20.3571429 Z M36.4285714,20.3571429 C37.0792411,20.3571429 37.6347383,20.5873808 38.0951073,21.0477498 C38.5554764,21.5081189 38.7857143,22.0636161 38.7857143,22.7142857 C38.7857143,23.3649554 38.5554764,23.9204526 38.0951073,24.3808216 C37.6347383,24.8411906 37.0792411,25.0714286 36.4285714,25.0714286 C35.7779018,25.0714286 35.2224046,24.8411906 34.7620355,24.3808216 C34.3016665,23.9204526 34.0714286,23.3649554 34.0714286,22.7142857 C34.0714286,22.0636161 34.3016665,21.5081189 34.7620355,21.0477498 C35.2224046,20.5873808 35.7779018,20.3571429 36.4285714,20.3571429 Z" id="" stroke="#C4AE76" fill-rule="nonzero"></path>
                                </g>
                            </g>
                        </g>
                    </g>
                </g>
            </g>
        </g>
    </g>
</svg>