<?xml version="1.0" encoding="UTF-8"?>
<svg width="80px" height="80px" viewBox="0 0 80 80" version="1.1" xmlns="http://www.w3.org/2000/svg" xmlns:xlink="http://www.w3.org/1999/xlink">
    <title>win-icon</title>
    <g id="Page-1" stroke="none" stroke-width="1" fill="none" fill-rule="evenodd">
        <g id="Desktop-HD-Copy-15" transform="translate(-345.000000, -1077.000000)">
            <g id="Group-29" transform="translate(226.000000, 247.000000)">
                <g id="parties-copy-11" transform="translate(0.000000, 831.000000)">
                    <g id="win-icon" transform="translate(120.000000, 0.000000)">
                        <circle id="Oval" stroke-opacity="0.313838505" stroke="#A37F21" stroke-width="0.76949995" fill="#FFFFFF" cx="39.2444974" cy="39.2444974" r="39.2444974"></circle>
                        <circle id="Oval" fill="#F5F5F5" cx="39.2849979" cy="39.2849979" r="35.2349981"></circle>
                        <g id="medal" transform="translate(25.000000, 21.000000)" fill="#A37F21" fill-opacity="0.6" fill-rule="nonzero" stroke="#F5F5F5" stroke-width="0.728999942">
                            <path d="M28.0151253,14.0008311 C28.0151253,6.28076578 21.7343595,0 14.0142942,0 C6.29422895,0 0.0134631703,6.28076578 0.0134631703,14.0008311 C0.0134631703,18.5647671 2.20890471,22.6252907 5.59878928,25.1828994 L0.44113534,36.1423924 L5.81742802,36.2127788 L9.29832676,40.3107789 L14.0142155,30.28985 L18.7301042,40.3107789 L22.2110817,36.2127788 L27.5874531,36.1423924 L22.4298779,25.1828207 C25.8196838,22.6253695 28.0151253,18.5648458 28.0151253,14.0008311 Z M8.7235045,35.985952 L6.9221953,33.8653058 L4.1401217,33.8289316 L7.61267485,26.4501695 C9.11165321,27.224105 10.767387,27.7348394 12.5187014,27.9216704 L8.7235045,35.985952 Z M2.37518668,14.0008311 C2.37518668,7.58299289 7.59637733,2.36172351 14.0142942,2.36172351 C20.4322111,2.36172351 25.6534018,7.58299289 25.6534018,14.0008311 C25.6534018,20.4186692 20.4321324,25.6400174 14.0142942,25.6400174 C7.59645606,25.6400174 2.37518668,20.418748 2.37518668,14.0008311 Z M23.8884668,33.8289316 L21.1063932,33.8653058 L19.305084,35.9860307 L15.5100446,27.9217492 C17.2612802,27.7348394 18.9170927,27.2241837 20.4160711,26.4502483 L23.8884668,33.8289316 Z" id="Shape"></path>
                            <path d="M14.0142942,4.841545 C8.96387327,4.841545 4.85500817,8.9504101 4.85500817,14.0008311 C4.85500817,19.051252 8.96379454,23.1601171 14.0142942,23.1601171 C19.0647152,23.1601171 23.1735803,19.051252 23.1735803,14.0008311 C23.1735803,8.9504101 19.0647152,4.841545 14.0142942,4.841545 Z M14.0142942,20.7983936 C10.2661004,20.7983936 7.21673168,17.7490249 7.21673168,14.0008311 C7.21673168,10.2526372 10.2661004,7.20326851 14.0142942,7.20326851 C17.7624881,7.20326851 20.8118568,10.2526372 20.8118568,14.0008311 C20.8118568,17.7490249 17.7624881,20.7983936 14.0142942,20.7983936 Z" id="Shape"></path>
                        </g>
                    </g>
                </g>
            </g>
        </g>
    </g>
</svg>