<?xml version="1.0" encoding="UTF-8"?>
<svg width="61px" height="60px" viewBox="0 0 61 60" version="1.1" xmlns="http://www.w3.org/2000/svg" xmlns:xlink="http://www.w3.org/1999/xlink">
    <title>winner-icon</title>
    <g id="Page-1" stroke="none" stroke-width="1" fill="none" fill-rule="evenodd">
        <g id="Desktop-HD-Copy-12" transform="translate(-415.000000, -1828.000000)">
            <g id="Group-11" transform="translate(-680.000000, -905.000000)">
                <g id="Group-26" transform="translate(631.000000, 2650.000000)">
                    <g id="Group-23" transform="translate(451.000000, 0.000000)">
                        <g id="Group-24" transform="translate(0.000000, 83.000000)">
                            <g id="Group-17-Copy" transform="translate(0.290003, 0.000000)">
                                <g id="winner-icon" transform="translate(13.000000, 0.000000)">
                                    <circle id="Oval" fill="#FFFFFF" cx="29.9700004" cy="29.9700004" r="29.9700004"></circle>
                                    <g id="Group-21" transform="translate(20.000000, 15.000000)" fill="#A37F21" fill-opacity="0.6" fill-rule="nonzero" stroke="#FFFFFF" stroke-width="0.524879952">
                                        <path d="M20.1611965,10.0805983 C20.1611965,4.52215131 15.6390452,7.67386146e-15 10.0805983,7.67386146e-15 C4.52215131,7.67386146e-15 7.54596377e-14,4.52215131 7.54596377e-14,10.0805983 C7.54596377e-14,13.3666321 1.58071789,16.2902091 4.02143475,18.1316874 L0.307923959,26.0225223 L4.17885464,26.0732005 L6.68510171,29.0237605 L10.0805416,21.8086917 L13.4759814,29.0237605 L15.9822852,26.0732005 L19.8532725,26.0225223 L16.1398184,18.1316307 C18.5804786,16.2902658 20.1611965,13.3666888 20.1611965,10.0805983 Z M6.27122969,25.9098851 L4.97428708,24.3830199 L2.97119411,24.3568305 L5.47143235,19.0441218 C6.55069676,19.6013554 7.74282504,19.9690841 9.00377139,20.1036025 L6.27122969,25.9098851 Z M1.70044091,10.0805983 C1.70044091,5.45975482 5.45969813,1.70044091 10.0805983,1.70044091 C14.7014984,1.70044091 18.4607556,5.45975482 18.4607556,10.0805983 C18.4607556,14.7014417 14.7014417,18.4608123 10.0805983,18.4608123 C5.45975482,18.4608123 1.70044091,14.7014984 1.70044091,10.0805983 Z M17.1900024,24.3568305 L15.1869094,24.3830199 L13.8899668,25.9099418 L11.1575385,20.1036592 C12.4184281,19.9690841 13.6106131,19.6014121 14.6898775,19.0441785 L17.1900024,24.3568305 Z" id="Shape"></path>
                                        <path d="M10.0805983,3.48591236 C6.4442952,3.48591236 3.48591236,6.4442952 3.48591236,10.0805983 C3.48591236,13.7169013 6.44423851,16.6752841 10.0805983,16.6752841 C13.7169013,16.6752841 16.6752841,13.7169013 16.6752841,10.0805983 C16.6752841,6.4442952 13.7169013,3.48591236 10.0805983,3.48591236 Z M10.0805983,14.9748432 C7.38189871,14.9748432 5.18635326,12.7792978 5.18635326,10.0805983 C5.18635326,7.38189871 7.38189871,5.18635326 10.0805983,5.18635326 C12.7792978,5.18635326 14.9748432,7.38189871 14.9748432,10.0805983 C14.9748432,12.7792978 12.7792978,14.9748432 10.0805983,14.9748432 Z" id="Shape"></path>
                                    </g>
                                </g>
                            </g>
                        </g>
                    </g>
                </g>
            </g>
        </g>
    </g>
</svg>