<?xml version="1.0" encoding="UTF-8"?>
<svg width="36px" height="47px" viewBox="0 0 36 47" version="1.1" xmlns="http://www.w3.org/2000/svg" xmlns:xlink="http://www.w3.org/1999/xlink">
    <!-- Generator: Sketch 61.2 (89653) - https://sketch.com -->
    <title>cat_3</title>
    <desc>Created with Sketch.</desc>
    <g id="Page-2" stroke="none" stroke-width="1" fill="none" fill-rule="evenodd" opacity="0.85">
        <g id="Artboard" transform="translate(-520.000000, -155.000000)">
            <g id="cat_3" transform="translate(538.000000, 178.500000) scale(-1, -1) translate(-538.000000, -178.500000) translate(520.000000, 155.000000)">
                <path d="M0.653412958,4.7868201 C0.653195613,4.78833537 0.652959993,4.78995982 0.652700555,4.79174849 C0.652645199,4.79214976 0.652645199,4.79214976 0.652595737,4.79250813 C0.652917156,4.79161026 0.653108988,4.79107439 0.653412958,4.7868201 Z M0.65628425,4.7623437 L0.65628425,45.389041 C0.65628425,45.4654647 0.718234697,45.5274151 0.794658341,45.5274151 L32.8432846,45.5274151 C32.919779,45.5274151 32.9816587,45.4655436 32.9816587,45.389041 L32.9816587,41.5856943 L35.2084069,41.5856943 C35.2848972,41.5856943 35.3467809,41.5238268 35.3467809,41.4474698 L35.3467809,0.788374091 C35.3467809,0.712017131 35.2847476,0.65 35.2082572,0.65 L3.42222285,0.65 C3.37669234,0.65 3.33415157,0.672365473 3.30831106,0.709930144 L0.680853484,4.52798688 C0.662674684,4.55444262 0.654545509,4.58664012 0.657837339,4.6203053 L0.659863992,4.72064391 C0.658130218,4.74127802 0.657089473,4.7536642 0.65628425,4.7623437 Z M35.0698831,41.3087965 L32.9815091,41.3087965 L32.9815091,4.7299453 C32.9815091,4.65345089 32.9196375,4.59157121 32.843135,4.59157121 L3.33274007,4.59157121 L5.85498971,0.926448932 L35.0698831,0.926448932 L35.0698831,41.3087965 Z" id="Shape" stroke="#888888" stroke-width="1.3" fill-rule="nonzero"></path>
                <g id="Group-2" transform="translate(6.000000, 10.000000)" stroke-width="0.899999976">
                    <path d="M17.1747801,2.24999994 L4.41396459,2.24999994 C4.14894263,3.52178332 3.36323448,4.61182732 2.24434412,5.24904088 L2.24434412,26.2511915 C3.04773334,26.7087931 3.68650126,27.4048015 4.07981378,28.2473843 C4.2291189,28.5671576 4.34123593,28.9032989 4.41373271,29.2499992 L17.1749091,29.2499992 C17.2474586,28.9032618 17.3595824,28.5671287 17.508856,28.2474229 C17.9021494,27.4048809 18.5409795,26.7088417 19.3443441,26.2512069 L19.3443441,5.24891683 C18.2256582,4.61179399 17.4399675,3.52177394 17.1747801,2.24999994 Z" id="Shape" stroke-opacity="0.698016827" stroke="#888888" fill-rule="nonzero"></path>
                    <path d="M21.5999994,27.4662008 C21.5999994,27.6750672 21.4704219,27.8621982 21.2743745,27.9366648 C20.6218316,28.1845008 20.0851583,28.6157381 19.7118148,29.1587396 C19.4367536,29.5589813 19.2509224,30.019928 19.174107,30.5139281 C19.1494071,30.6731502 19.1353113,30.8355877 19.1338888,31.0005973 C19.1315611,31.2769853 18.9053824,31.5 18.6274762,31.5 L2.97252326,31.5 C2.69448771,31.5 2.46843835,31.2771139 2.46611061,31.0005973 C2.4646881,30.8355877 2.45072167,30.6731502 2.42602176,30.5139281 C2.34933568,30.019928 2.16350448,29.5589813 1.88831396,29.1587396 C1.51509973,28.6157381 0.978297156,28.1845008 0.325754202,27.9366648 C0.129577495,27.8621982 0,27.6750672 0,27.4662008 L0,4.03405563 C0,3.82518914 0.129577495,3.63805814 0.325624883,3.56359158 C1.6142873,3.07383567 2.45447191,1.87105278 2.46611061,0.499401837 C2.46843835,0.222885239 2.69448771,0 2.97252326,0 L18.6274762,0 C18.9053824,0 19.1315611,0.222885239 19.1338888,0.499273225 C19.1456568,1.87118139 19.9858415,3.07396428 21.2743745,3.56359158 C21.4705513,3.63805814 21.5999994,3.82518914 21.5999994,4.03405563 L21.5999994,27.4662008 Z" id="Path" stroke="#B8B8B8"></path>
                    <g id="Group-4" transform="translate(6.294344, 3.600000)" stroke="#888888" stroke-opacity="0.698016827">
                        <path d="M3.54228622,20.1911336 C3.63079736,20.1291414 3.72797766,20.0860974 3.83072335,20.0602491 C3.91420423,19.9630988 4.00506995,19.8840205 4.10257133,19.8244379 C4.29992869,19.5799742 4.5103433,19.4397799 4.5103433,19.4397799 C4.5103433,19.4397799 4.72097198,19.5798647 4.9182223,19.8244379 C5.01583071,19.8840205 5.10691049,19.9632084 5.19028434,20.0602491 C5.29324408,20.0860974 5.39042439,20.1291414 5.47882849,20.1911336 C5.8235617,20.4330782 5.95424138,20.9036053 5.86947618,21.4183811 C5.9219193,21.4863972 5.95060247,21.5594516 5.95060247,21.6356822 C5.95060247,21.7120224 5.9219193,21.7847481 5.86947618,21.8527643 C5.95424138,22.3675401 5.82345467,22.8378481 5.47882849,23.0799022 C5.39042439,23.1421135 5.29324408,23.1854861 5.19028434,23.2107867 C5.10691049,23.3078275 5.01583071,23.3873439 4.9182223,23.4465979 C4.72097198,23.6912807 4.51066438,23.8313654 4.51066438,23.8313654 C4.51066438,23.8313654 4.29992869,23.6913902 4.10257133,23.4465979 C4.00506995,23.3873439 3.91420423,23.3077179 3.83072335,23.2107867 C3.72797766,23.1854861 3.63069033,23.1421135 3.54228622,23.0799022 C3.19755301,22.8378481 3.06676631,22.3675401 3.15163853,21.8527643 C3.09919542,21.7847481 3.07061927,21.7120224 3.07061927,21.6356822 C3.07061927,21.5594516 3.09919542,21.4863972 3.15163853,21.4183811 C3.06676631,20.9036053 3.19755301,20.4330782 3.54228622,20.1911336 Z" id="Path"></path>
                        <path d="M1.50533144,7.35407984 C1.7878821,7.15572686 2.09804566,7.01838028 2.42640377,6.93722094 C2.69183015,6.62726017 2.98272889,6.37304853 3.2926784,6.18422437 C3.92402928,5.40275084 4.59519412,4.95631971 4.59519412,4.95631971 C4.59519412,4.95631971 5.26646599,5.40275084 5.89781687,6.18400532 C6.20776638,6.372939 6.49877215,6.62726017 6.76430555,6.93722094 C7.09287772,7.01827075 7.40293426,7.15572686 7.68537789,7.35407984 C8.78539897,8.1262436 9.20248227,9.62785567 8.93202564,11.2707573 C9.09930847,11.4875108 9.1906023,11.7206933 9.1906023,11.9639522 C9.1906023,12.2071017 9.09920144,12.4402842 8.93202564,12.6572567 C9.20248227,14.2999393 8.785506,15.8016609 7.68537789,16.5737151 C7.40282723,16.7720681 7.09287772,16.9095242 6.76430555,16.9906835 C6.49887918,17.3006443 6.20787341,17.5548559 5.89781687,17.7436801 C5.26657301,18.5249346 4.5955152,18.9713657 4.5955152,18.9713657 C4.5955152,18.9713657 3.92413631,18.5251536 3.2926784,17.7437896 C2.98262187,17.5549655 2.69183015,17.3006443 2.42629675,16.9906835 C2.09783161,16.9096337 1.78777507,16.7720681 1.50522441,16.5737151 C0.405310356,15.8016609 -0.0117729441,14.2999393 0.258790716,12.6572567 C0.0915078834,12.4401746 -4.16546775e-13,12.2071017 -4.16546775e-13,11.9639522 C-4.16546775e-13,11.7206933 0.0915078834,11.4875108 0.258790716,11.2707573 C-0.0117729441,9.62774614 0.405417383,8.12613407 1.50533144,7.35407984 Z" id="Path"></path>
                        <path d="M4.9182223,4.00670844 C4.72097198,4.25128173 4.51066438,4.39136647 4.51066438,4.39136647 C4.51066438,4.39136647 4.29992869,4.25128173 4.10257133,4.00670844 C4.01106345,3.95084979 3.92576312,3.87702874 3.84656331,3.78820253 C3.841319,3.78228808 3.83586064,3.77692127 3.83072335,3.77100683 C3.72797766,3.74515851 3.63069033,3.70222401 3.54228622,3.64012233 C3.19755301,3.39817769 3.06676631,2.92754114 3.15163853,2.41287483 C3.09919542,2.3448587 3.07061927,2.27191387 3.07061927,2.19557371 C3.07061927,2.11923355 3.09919542,2.04650777 3.15163853,1.97827259 C3.06676631,1.46382533 3.19755301,0.99340784 3.54228622,0.751244143 C3.63079736,0.689142462 3.72797766,0.645879386 3.83072335,0.620359648 C3.91420423,0.523318926 4.00506995,0.443912015 4.10257133,0.384548503 C4.29992869,0.139975217 4.5103433,-8.30935277e-14 4.5103433,-8.30935277e-14 C4.5103433,-8.30935277e-14 4.72097198,0.13986569 4.9182223,0.384548503 C5.01583071,0.443912015 5.10691049,0.523428453 5.19028434,0.620359648 C5.29324408,0.645879386 5.39042439,0.689142462 5.47882849,0.751244143 C5.8235617,0.99340784 5.95424138,1.46382533 5.86947618,1.97827259 C5.9219193,2.04650777 5.95060247,2.11923355 5.95060247,2.19557371 C5.95060247,2.27191387 5.9219193,2.3448587 5.86947618,2.41287483 C5.95424138,2.92754114 5.82345467,3.39817769 5.47882849,3.64012233 C5.39042439,3.70222401 5.29324408,3.74515851 5.19028434,3.77100683 C5.18514705,3.7770308 5.17968869,3.78239761 5.17444438,3.78820253 C5.09524457,3.87713827 5.00973019,3.95095932 4.9182223,4.00670844 Z" id="Path"></path>
                    </g>
                </g>
            </g>
        </g>
    </g>
</svg>