<?xml version="1.0" encoding="UTF-8"?>
<svg width="45px" height="45px" viewBox="0 0 45 45" version="1.1" xmlns="http://www.w3.org/2000/svg" xmlns:xlink="http://www.w3.org/1999/xlink">
    <!-- Generator: Sketch 61.2 (89653) - https://sketch.com -->
    <title>cat_1</title>
    <desc>Created with Sketch.</desc>
    <g id="Page-2" stroke="none" stroke-width="1" fill="none" fill-rule="evenodd" opacity="0.85">
        <g id="Artboard" transform="translate(-215.000000, -158.000000)" fill="#888888" fill-rule="nonzero" stroke="#FFFFFF" stroke-width="1.1">
            <g id="cat_1" transform="translate(216.000000, 159.000000)">
                <g id="020-quran">
                    <path d="M42.0983834,5.2188399 C41.7616257,4.98542506 41.3317682,4.93204692 40.9482941,5.07594305 L37.6395908,6.31671406 L37.6395908,1.24912214 C37.6395908,0.847995029 37.4469794,0.471266973 37.1217134,0.236436488 C36.7964473,0.00152272857 36.3780816,-0.0627641987 35.997522,0.0634780056 L21.3179983,4.929632 L6.63855792,0.0634780056 C6.2578318,-0.0625976523 5.83963262,0.00160600179 5.5143666,0.236436488 C5.18910058,0.471266973 4.99640586,0.847995029 4.99640586,1.24912214 L4.99640586,6.31671406 L1.68770263,5.07594305 C1.30422848,4.9321302 0.874454299,4.98550833 0.537613271,5.2188399 C0.200938789,5.45217147 0,5.8358112 0,6.24551545 L0,31.3940285 C0,31.9522921 0.370483495,32.4427714 0.907430578,32.5954945 L4.99640586,33.7582385 L4.99640586,41.3868151 C4.99640586,41.7785323 5.18010705,42.147516 5.49263224,42.3835956 C5.71197445,42.549226 5.97686724,42.6359967 6.2455906,42.6359967 C6.35984175,42.6359967 6.47475908,42.6202581 6.58717822,42.5882811 L21.3179983,38.3994715 L36.0488185,42.5883644 C36.1612376,42.6203413 36.2760717,42.6359967 36.3904061,42.6359967 C36.6591295,42.6359967 36.9240222,42.549226 37.1433645,42.3836788 C37.4558896,42.1475992 37.6395908,41.7786156 37.6395908,41.3868984 L37.6395908,33.7583218 L41.7285661,32.5955778 C42.2655132,32.4428547 42.6359967,31.9522921 42.6359967,31.3940285 L42.6359967,6.24551545 C42.6359967,5.8358112 42.4351412,5.45217147 42.0983834,5.2188399 Z M7.49460879,23.1299106 L16.1829422,26.0026703 C17.9041208,26.5764228 19.2062674,27.9137907 19.7665311,29.5638496 L7.49460879,25.4957862 L7.49460879,23.1299106 Z M35.1413879,20.4986434 L25.6629562,23.6326311 C24.4751439,24.0285953 23.4267314,24.6780431 22.5670998,25.507611 L22.5670998,7.14744772 L35.1413879,2.97912332 L35.1413879,20.4986434 Z M35.1413879,23.1299106 L35.1413879,25.4958694 L22.8693824,29.5639329 C23.4295627,27.9139572 24.7311265,26.5767558 26.4501399,26.0037528 L35.1413879,23.1299106 Z M20.0688969,7.14744772 L20.0688969,25.5081106 C19.2086823,24.6780431 18.1593538,24.0281789 16.970126,23.6317151 L7.49460879,20.4986434 L7.49460879,2.97912332 L20.0688969,7.14744772 Z M7.49460879,39.7330089 L7.49460879,34.4686424 L16.7512001,37.1008256 L7.49460879,39.7330089 Z M35.1413879,39.7330089 L25.8847966,37.1008256 L35.1413879,34.4686424 L35.1413879,39.7330089 Z M40.1377938,30.4506261 L21.3179983,35.802263 L2.49820293,30.4506261 L2.49820293,8.04796434 L4.99640586,8.98478809 L4.99640586,26.3976351 C4.99640586,26.9360798 5.34140769,27.4139015 5.85245673,27.5832793 L20.9249478,32.5796726 C21.0303719,32.6154801 21.1836783,32.6431268 21.3179983,32.6431268 C21.4501533,32.6431268 21.6054582,32.6155634 21.7110489,32.5796726 L36.78354,27.5832793 C37.294589,27.4139015 37.6395908,26.9360798 37.6395908,26.3976351 C37.6395908,25.5416697 37.6395908,9.8445841 37.6395908,8.98478809 L40.1377938,8.04796434 L40.1377938,30.4506261 Z" id="Shape"></path>
                </g>
            </g>
        </g>
    </g>
</svg>