<?xml version="1.0" encoding="UTF-8"?>
<svg width="42px" height="51px" viewBox="0 0 42 51" version="1.1" xmlns="http://www.w3.org/2000/svg" xmlns:xlink="http://www.w3.org/1999/xlink">
    <!-- Generator: Sketch 61.2 (89653) - https://sketch.com -->
    <title>cat_5</title>
    <desc>Created with Sketch.</desc>
    <g id="Page-2" stroke="none" stroke-width="1" fill="none" fill-rule="evenodd" opacity="0.85">
        <g id="Artboard" transform="translate(-135.000000, -152.000000)" fill-rule="nonzero" stroke="#888888" stroke-width="1.3">
            <g id="cat_5" transform="translate(136.000000, 153.000000)">
                <path d="M20.6399038,3.93599997 L2.87999998,3.93599997 L2.87999998,1.43999999 C2.87999998,0.644735995 2.23526398,0 1.43999999,0 C0.644735995,0 0,0.644735995 0,1.43999999 L0,47.7119996 C0,48.5072636 0.644735995,49.1519996 1.43999999,49.1519996 C2.23526398,49.1519996 2.87999998,48.5072636 2.87999998,47.7119996 L2.87999998,26.0159998 L20.6399038,26.0159998 C21.4351678,26.0159998 22.0799038,25.3712638 22.0799038,24.5759998 L22.0799038,5.37599996 C22.0799038,4.58073597 21.4351678,3.93599997 20.6399038,3.93599997 Z" id="Path"></path>
                <path d="M40.2170877,28.8412798 L36.5911677,19.7759999 L40.2170877,10.7107199 C40.3946877,10.2671999 40.3399677,9.76415993 40.0721277,9.36863993 C39.8042877,8.97311993 39.3578877,8.73599993 38.8798077,8.73599993 L24.9599038,8.73599993 L24.9599038,24.5759998 C24.9599038,26.9577598 23.0216638,28.8959998 20.6399038,28.8959998 C18.4805759,28.8959998 16.5599039,28.8959998 14.3999039,28.8959998 L14.3999039,29.3759998 C14.3999039,30.1727038 15.0449279,30.8159998 15.8399039,30.8159998 L38.8798077,30.8159998 C39.3578877,30.8159998 39.8042877,30.5788798 40.0721277,30.1833598 C40.3399677,29.7878398 40.3946877,29.2847998 40.2170877,28.8412798 Z" id="Path" stroke-opacity="0.85"></path>
            </g>
        </g>
    </g>
</svg>