<?xml version="1.0" encoding="UTF-8"?>
<svg width="32px" height="49px" viewBox="0 0 32 49" version="1.1" xmlns="http://www.w3.org/2000/svg" xmlns:xlink="http://www.w3.org/1999/xlink">
    <!-- Generator: Sketch 61.2 (89653) - https://sketch.com -->
    <title>cat_2</title>
    <desc>Created with Sketch.</desc>
    <g id="Page-2" stroke="none" stroke-width="1" fill="none" fill-rule="evenodd" fill-opacity="0.65" opacity="0.85">
        <g id="Artboard" transform="translate(-433.000000, -153.000000)" fill="#F7F7F7" fill-rule="nonzero" stroke="#888888" stroke-width="1.80499995">
            <g id="cat_2" transform="translate(433.000000, 153.000000)">
                <path d="M27.7715593,47.8324988 C27.9011733,47.42917 28.0102569,47.1169863 28.0977109,46.9070694 C29.4247757,43.7139127 30.1922599,40.2151871 30.5134908,36.5546405 C30.7330977,34.0521377 30.7266011,32.0077678 30.6015448,29.7089814 C30.4911227,27.733946 30.2649646,26.7989269 29.6130765,26.0188199 C28.6584009,24.8834349 27.2085897,24.2575847 25.7277294,24.0115116 L25.2260393,23.9281463 L25.0374871,23.4558214 C24.5490707,22.2323337 23.844309,21.4722203 22.9310028,21.1308371 C22.5787775,20.9989592 22.1884099,20.9309962 21.7719457,20.9309962 C21.1448918,20.9309962 20.5090493,21.078756 19.9135523,21.3192289 L19.1723307,21.6185481 L18.7857021,20.9188912 C18.1998799,19.8587662 17.4622616,19.2382595 16.5713245,19.0156326 C16.3306265,18.9548296 16.0717556,18.9235888 15.8031465,18.9235888 C15.0337065,18.9235888 14.232141,19.1763526 13.4623885,19.5929006 L12.3319439,20.2046355 L12.1404364,18.9336321 C12.0379521,18.2534612 11.8280677,15.4368087 11.439954,9.78117899 C11.4238043,9.54576194 11.4238043,9.54576194 11.4076643,9.31018806 C11.3607119,8.62469222 11.2031605,6.31662562 11.1800369,5.97857678 C11.0940883,4.72207683 11.0312926,3.81181307 10.9757075,3.01985972 C10.8923798,1.82886819 9.89733589,0.902499977 8.69839879,0.902499977 L8.69613168,0.902499977 C7.40508766,0.902499977 6.35851938,1.94137747 6.35325173,3.22568398 C6.30934362,12.2515522 6.0727636,23.9689843 5.93536065,27.3297226 L5.91264914,27.8852236 L5.40630206,28.1148098 C5.39031816,28.1220571 4.08848064,28.6809579 3.69051368,28.8736151 C2.81406271,29.2979082 2.21833923,29.7103193 1.89969121,30.1410529 C0.505386535,32.0260877 0.627577325,33.461542 1.81396522,35.4409159 C2.62137077,36.7897762 3.62920039,38.4943682 5.18368232,41.1352388 C5.19844679,41.1603219 5.19844679,41.1603219 5.21321104,41.1854052 C5.50250937,41.6769026 5.8262154,42.2270814 6.42755029,43.2491603 C6.90944629,44.0681444 7.25225092,44.6504002 7.5738092,45.1959191 C8.2354944,46.3184583 8.74247359,47.1753426 9.13428845,47.8324988 L27.7715593,47.8324988 Z" id="Path"></path>
            </g>
        </g>
    </g>
</svg>