<?xml version="1.0" encoding="UTF-8"?>
<svg width="22px" height="22px" viewBox="0 0 22 22" version="1.1" xmlns="http://www.w3.org/2000/svg" xmlns:xlink="http://www.w3.org/1999/xlink">
    <!-- Generator: Sketch 50.2 (55047) - http://www.bohemiancoding.com/sketch -->
    <title>Shape</title>
    <desc>Created with Sketch.</desc>
    <defs></defs>
    <g id="Welcome" stroke="none" stroke-width="1" fill="none" fill-rule="evenodd">
        <g id="single-service-copy-2" transform="translate(-772.000000, -594.000000)" fill="#009587" fill-rule="nonzero">
            <g id="Group-26">
                <g id="Modal-One" transform="translate(429.000000, 88.000000)">
                    <g id="Group-6" transform="translate(18.000000, 0.000000)">
                        <g id="close" transform="translate(256.000000, 490.000000)">
                            <path d="M81.9378333,26.9935833 L90.5838333,18.3475833 C91.121,17.810875 91.121,16.9400417 90.5838333,16.4033333 C90.0466667,15.8661667 89.17675,15.8661667 88.6395833,16.4033333 L79.9935833,25.0493333 L71.347125,16.4033333 C70.8099583,15.8661667 69.9400417,15.8661667 69.402875,16.4033333 C68.8657083,16.9400417 68.8657083,17.810875 69.402875,18.3475833 L78.0493333,26.9935833 L69.402875,35.6395833 C68.8657083,36.1762917 68.8657083,37.047125 69.402875,37.5838333 C69.6714583,37.8519583 70.0234583,37.98625 70.375,37.98625 C70.7265417,37.98625 71.0785417,37.8519583 71.347125,37.583375 L79.9935833,28.937375 L88.6395833,37.583375 C88.9081667,37.8519583 89.2601667,37.98625 89.6117083,37.98625 C89.96325,37.98625 90.31525,37.8519583 90.5838333,37.583375 C91.121,37.0466667 91.121,36.1758333 90.5838333,35.639125 L81.9378333,26.9935833 Z" id="Shape"></path>
                        </g>
                    </g>
                </g>
            </g>
        </g>
    </g>
</svg>